<?xml version="1.0" encoding="utf-8"?>
<!-- Generator: Adobe Illustrator 17.0.0, SVG Export Plug-In . SVG Version: 6.00 Build 0)  -->
<!DOCTYPE svg PUBLIC "-//W3C//DTD SVG 1.1//EN" "http://www.w3.org/Graphics/SVG/1.1/DTD/svg11.dtd">
<svg version="1.1" id="Layer_1" xmlns="http://www.w3.org/2000/svg" xmlns:xlink="http://www.w3.org/1999/xlink" x="0px" y="0px"
	 width="630px" height="80px" viewBox="0 0 630 80" enable-background="new 0 0 630 80" xml:space="preserve">
<g>
	<path fill="#1F2429" d="M3.888-599.921c0.339-0.052,0.664-0.065,1.003-0.078c18.812,0,37.612,0,56.411,0
		c0.743,0,1.485-0.026,2.202,0.182c1.394,0.391,2.58,1.433,3.114,2.775c0.508,1.225,0.469,2.671-0.104,3.869
		c-0.769,1.681-2.58,2.801-4.43,2.736c-19.06,0-38.133,0-57.193,0c-1.915,0.065-3.804-1.146-4.521-2.931
		c-0.495-1.186-0.495-2.58,0.026-3.765C1.009-598.566,2.364-599.634,3.888-599.921L3.888-599.921z"/>
	<path fill="#3B7859" d="M3.771-585.538c0.456-0.104,0.925-0.104,1.381-0.117c9.028,0,18.07,0,27.098,0
		c0.73,0,1.472-0.026,2.189,0.104c1.537,0.313,2.892,1.407,3.478,2.879c0.495,1.173,0.482,2.554-0.039,3.726
		c-0.73,1.733-2.58,2.918-4.456,2.866c-9.341,0.013-18.669,0-28.01,0c-0.586,0-1.173,0-1.746-0.13
		c-1.394-0.339-2.619-1.316-3.218-2.619c-0.625-1.329-0.599-2.944,0.091-4.234C1.178-584.313,2.39-585.238,3.771-585.538z"/>
	<path fill="#C63B2B" d="M46.894-585.551c0.704-0.13,1.446-0.104,2.163-0.104c9.12,0,18.239,0,27.359,0
		c1.498-0.039,3.009,0.651,3.908,1.863c0.704,0.873,1.055,2.019,1.003,3.14c-0.052,1.694-1.107,3.335-2.658,4.065
		c-0.756,0.43-1.655,0.521-2.514,0.508c-9.419,0-18.838,0.013-28.271,0c-1.12,0.013-2.215-0.404-3.101-1.094
		c-1.159-0.977-1.837-2.514-1.72-4.026C43.181-583.284,44.835-585.173,46.894-585.551L46.894-585.551z"/>
	<path fill="#1D424A" d="M3.901-571.22c0.365-0.052,0.743-0.065,1.12-0.078c12.637,0.013,25.274,0,37.911,0.013
		c1.212-0.052,2.423,0.417,3.335,1.225c1.029,0.938,1.642,2.332,1.576,3.739c-0.052,0.977-0.378,1.954-1.003,2.723
		c-0.899,1.212-2.41,1.902-3.908,1.876c-12.416,0-24.844-0.013-37.26,0c-0.704-0.013-1.42,0.026-2.098-0.156
		c-1.264-0.339-2.384-1.199-2.996-2.358c-0.677-1.225-0.756-2.736-0.235-4.026C0.905-569.787,2.312-570.92,3.901-571.22
		L3.901-571.22z"/>
	<path fill="#83B877" d="M56.534-571.22c0.547-0.078,1.094-0.078,1.642-0.078c2.957,0.013,5.902,0,8.859,0.013
		c1.876-0.026,3.674,1.212,4.364,2.944c0.508,1.212,0.482,2.632-0.065,3.83c-0.756,1.642-2.488,2.788-4.299,2.775
		c-3.257,0-6.514,0.013-9.771,0c-2.475-0.013-4.703-2.241-4.625-4.729C52.535-568.732,54.32-570.842,56.534-571.22z"/>
	<path fill="#C63B2B" d="M3.901-556.876c0.456-0.065,0.925-0.065,1.381-0.065c9.25-0.013,18.5,0,27.75,0
		c0.73-0.013,1.472,0.026,2.163,0.313c1.342,0.495,2.423,1.642,2.853,3.009c0.717,2.071-0.248,4.573-2.189,5.615
		c-0.73,0.43-1.576,0.638-2.423,0.638c-9.523,0-19.034,0-28.557,0c-0.938,0-1.889-0.261-2.671-0.769
		c-1.511-0.938-2.371-2.762-2.176-4.521C0.201-554.714,1.882-556.499,3.901-556.876z"/>
	<path fill="#3B7859" d="M47.024-556.876c0.417-0.065,0.834-0.065,1.251-0.065c7.426-0.013,14.852,0,22.278-0.013
		c0.638,0.013,1.29-0.013,1.928,0.065c1.655,0.234,3.14,1.42,3.739,2.983c0.443,1.186,0.443,2.553-0.091,3.713
		c-0.743,1.707-2.54,2.827-4.39,2.827c-7.96,0-15.907,0-23.867,0c-1.003,0-1.98-0.326-2.814-0.899
		c-1.485-1.042-2.293-2.996-1.902-4.794C43.467-554.974,45.109-556.564,47.024-556.876L47.024-556.876z"/>
	<path fill="#1F2429" d="M4.553-542.572c19.125-0.039,38.263-0.013,57.401-0.013c1.524-0.078,3.075,0.599,4,1.824
		c0.86,1.055,1.186,2.514,0.938,3.843c-0.261,1.459-1.251,2.775-2.593,3.4c-0.756,0.404-1.628,0.508-2.475,0.495
		c-18.5,0-36.999,0-55.499,0c-0.925-0.026-1.863,0.078-2.775-0.169c-1.498-0.378-2.775-1.55-3.27-3.022
		c-0.521-1.446-0.3-3.153,0.638-4.403C1.739-541.777,3.12-542.533,4.553-542.572z"/>
</g>
<g>
	<path fill="#1F2429" d="M153.186-547.333c-1.344-2.24-2.417-4.601-3.237-7.064l-0.068-0.063c-4.046,4.73-9.06,7.094-15.043,7.094
		c-3.704,0-7.008-0.812-9.914-2.436c-2.906-1.624-5.171-3.889-6.795-6.795c-1.624-2.906-2.436-6.21-2.436-9.915
		c0-3.703,0.812-7.008,2.436-9.914c1.624-2.906,3.889-5.171,6.795-6.795c2.906-1.624,6.21-2.436,9.914-2.436
		c5.983,0,10.996,2.337,15.043,7.008l0.105-0.097c0.815-2.42,1.879-4.741,3.201-6.945c0.851-1.419,1.788-2.765,2.807-4.036
		c-2.27-2.048-4.858-3.717-7.779-4.99c-4.188-1.823-8.876-2.735-14.06-2.735c-6.154,0-11.696,1.325-16.624,3.974
		c-4.929,2.65-8.804,6.325-11.624,11.026c-2.82,4.701-4.23,10.015-4.23,15.94c0,5.927,1.41,11.239,4.23,15.94
		c2.821,4.701,6.695,8.376,11.624,11.026c4.928,2.649,10.44,3.974,16.538,3.974c5.184,0,9.885-0.912,14.102-2.735
		c2.934-1.269,5.529-2.947,7.802-5.017C154.963-544.586,154.032-545.923,153.186-547.333z"/>
	<path fill="#1F2429" d="M272-599.999v63.418h-7.863v-7.179c-1.824,2.508-4.132,4.417-6.923,5.727
		c-2.793,1.312-5.87,1.966-9.231,1.966c-4.389,0-8.32-0.969-11.795-2.906c-3.476-1.937-6.196-4.657-8.162-8.162
		c-1.965-3.504-2.948-7.534-2.948-12.094c0-4.558,0.983-8.575,2.948-12.052c1.966-3.475,4.687-6.181,8.162-8.119
		c3.476-1.937,7.407-2.906,11.795-2.906c3.248,0,6.239,0.613,8.974,1.837c2.735,1.226,5.014,3.034,6.838,5.427v-23.35L272-599.999z
		 M256.445-545.256c2.335-1.338,4.158-3.219,5.47-5.641c1.31-2.421,1.966-5.199,1.966-8.333c0-3.133-0.656-5.911-1.966-8.334
		c-1.312-2.421-3.135-4.286-5.47-5.598c-2.337-1.31-4.929-1.966-7.778-1.966c-2.906,0-5.513,0.656-7.821,1.966
		c-2.308,1.312-4.132,3.177-5.47,5.598c-1.339,2.422-2.009,5.201-2.009,8.334c0,3.134,0.67,5.912,2.009,8.333
		c1.338,2.422,3.162,4.303,5.47,5.641c2.308,1.339,4.914,2.009,7.821,2.009C251.516-543.248,254.108-543.917,256.445-545.256z"/>
	<path fill="#1F2429" d="M315.93-548.718l4.444,5.299c-1.994,2.393-4.516,4.217-7.564,5.47c-3.048,1.254-6.453,1.881-10.214,1.881
		c-4.786,0-9.032-0.983-12.735-2.949c-3.705-1.966-6.568-4.714-8.59-8.248c-2.024-3.532-3.034-7.521-3.034-11.966
		c0-4.388,0.983-8.347,2.948-11.88c1.966-3.532,4.672-6.282,8.12-8.248c3.447-1.966,7.336-2.949,11.666-2.949
		c4.103,0,7.835,0.927,11.197,2.778c3.362,1.852,6.039,4.46,8.035,7.821c1.993,3.363,3.019,7.237,3.077,11.624l-35.983,7.009
		c1.139,3.135,3.063,5.555,5.769,7.265c2.706,1.709,5.968,2.565,9.787,2.565C308.266-543.248,312.625-545.071,315.93-548.718z
		 M293.324-573.419c-2.252,1.312-4.004,3.149-5.256,5.513c-1.255,2.366-1.881,5.115-1.881,8.249v0.854l28.974-5.47
		c-0.742-3.304-2.393-5.983-4.957-8.035c-2.565-2.051-5.641-3.077-9.232-3.077C298.123-575.385,295.574-574.728,293.324-573.419z"/>
	<path fill="#1F2429" d="M368.837-581.88l-19.829,45.299h-8.376l-19.155-43.759l7.873-1.54l15.556,36.325l15.145-34.605
		L368.837-581.88z"/>
	<path fill="#1F2429" d="M403.622-548.718l4.444,5.299c-1.994,2.393-4.516,4.217-7.564,5.47c-3.048,1.254-6.453,1.881-10.214,1.881
		c-4.786,0-9.032-0.983-12.735-2.949c-3.705-1.966-6.568-4.714-8.59-8.248c-2.024-3.532-3.034-7.521-3.034-11.966
		c0-4.388,0.983-8.347,2.948-11.88c1.966-3.532,4.672-6.282,8.12-8.248c3.447-1.966,7.336-2.949,11.666-2.949
		c4.103,0,7.835,0.927,11.197,2.778c3.362,1.852,6.039,4.46,8.035,7.821c1.993,3.363,3.019,7.237,3.077,11.624l-35.983,7.009
		c1.139,3.135,3.063,5.555,5.769,7.265c2.706,1.709,5.968,2.565,9.787,2.565C395.957-543.248,400.317-545.071,403.622-548.718z
		 M381.015-573.419c-2.252,1.312-4.004,3.149-5.256,5.513c-1.255,2.366-1.881,5.115-1.881,8.249v0.854l28.974-5.47
		c-0.742-3.304-2.393-5.983-4.957-8.035c-2.565-2.051-5.641-3.077-9.232-3.077C385.815-575.385,383.265-574.728,381.015-573.419z"/>
	<path fill="#1F2429" d="M420.887-539.701c-2.393-2.422-3.589-5.825-3.589-10.214v-48.478l8.205-1.607v49.401
		c0,2.451,0.583,4.331,1.752,5.641c1.167,1.311,2.919,1.965,5.256,1.965c1.423,0,2.763-0.284,4.017-0.854l0.427,6.752
		c-1.88,0.684-3.846,1.026-5.897,1.026C426.669-536.068,423.28-537.278,420.887-539.701z"/>
	<path fill="#1F2429" d="M446.015-539.06c-3.589-1.993-6.396-4.744-8.418-8.248c-2.024-3.505-3.034-7.479-3.034-11.923
		c0-4.444,1.01-8.419,3.034-11.923c2.022-3.504,4.829-6.239,8.418-8.205c3.59-1.966,7.635-2.949,12.137-2.949
		c4.5,0,8.533,0.983,12.093,2.949c3.561,1.966,6.354,4.701,8.376,8.205c2.022,3.504,3.034,7.479,3.034,11.923
		c0,4.444-1.012,8.418-3.034,11.923c-2.023,3.504-4.816,6.254-8.376,8.248c-3.561,1.995-7.593,2.992-12.093,2.992
		C453.65-536.068,449.605-537.064,446.015-539.06z M465.973-545.256c2.308-1.338,4.116-3.219,5.427-5.641
		c1.31-2.421,1.966-5.199,1.966-8.333c0-3.133-0.656-5.911-1.966-8.334c-1.312-2.421-3.119-4.286-5.427-5.598
		c-2.308-1.31-4.914-1.966-7.821-1.966c-2.906,0-5.513,0.656-7.821,1.966c-2.308,1.312-4.132,3.177-5.47,5.598
		c-1.339,2.422-2.009,5.201-2.009,8.334c0,3.134,0.67,5.912,2.009,8.333c1.338,2.422,3.162,4.303,5.47,5.641
		c2.308,1.339,4.914,2.009,7.821,2.009C461.059-543.248,463.665-543.917,465.973-545.256z"/>
	<path fill="#1F2429" d="M520.798-579.401c3.475,1.938,6.196,4.644,8.162,8.119c1.965,3.477,2.948,7.494,2.948,12.052
		c0,4.559-0.983,8.59-2.948,12.094c-1.966,3.505-4.688,6.226-8.162,8.162c-3.477,1.938-7.409,2.906-11.795,2.906
		c-3.247,0-6.226-0.627-8.931-1.881c-2.708-1.253-5-3.077-6.88-5.47v21.813L484.986-520v-61.88h7.863v7.179
		c1.823-2.506,4.13-4.402,6.923-5.683c2.791-1.282,5.868-1.923,9.231-1.923C513.389-582.307,517.321-581.338,520.798-579.401z
		 M516.139-545.256c2.308-1.338,4.131-3.219,5.47-5.641c1.338-2.421,2.009-5.199,2.009-8.333c0-3.133-0.671-5.911-2.009-8.334
		c-1.339-2.421-3.162-4.286-5.47-5.598c-2.308-1.31-4.914-1.966-7.821-1.966c-2.85,0-5.427,0.67-7.735,2.009
		c-2.307,1.339-4.132,3.205-5.47,5.598c-1.339,2.393-2.009,5.158-2.009,8.291c0,3.134,0.654,5.912,1.966,8.333
		c1.311,2.422,3.133,4.303,5.47,5.641c2.336,1.339,4.928,2.009,7.778,2.009C511.225-543.248,513.831-543.917,516.139-545.256z"/>
	<path fill="#1F2429" d="M572.621-548.718l4.444,5.299c-1.994,2.393-4.516,4.217-7.564,5.47c-3.048,1.254-6.453,1.881-10.214,1.881
		c-4.786,0-9.032-0.983-12.735-2.949c-3.705-1.966-6.568-4.714-8.59-8.248c-2.024-3.532-3.034-7.521-3.034-11.966
		c0-4.388,0.983-8.347,2.948-11.88c1.966-3.532,4.672-6.282,8.12-8.248c3.447-1.966,7.336-2.949,11.666-2.949
		c4.103,0,7.835,0.927,11.197,2.778c3.362,1.852,6.039,4.46,8.035,7.821c1.993,3.363,3.019,7.237,3.077,11.624l-35.983,7.009
		c1.139,3.135,3.063,5.555,5.769,7.265c2.706,1.709,5.968,2.565,9.787,2.565C564.956-543.248,569.316-545.071,572.621-548.718z
		 M550.014-573.419c-2.252,1.312-4.004,3.149-5.256,5.513c-1.255,2.366-1.881,5.115-1.881,8.249v0.854l28.974-5.47
		c-0.742-3.304-2.393-5.983-4.957-8.035c-2.565-2.051-5.641-3.077-9.232-3.077C554.814-575.385,552.264-574.728,550.014-573.419z"/>
	<path fill="#1F2429" d="M630-599.999v63.418h-7.863v-7.179c-1.824,2.508-4.132,4.417-6.923,5.727
		c-2.793,1.312-5.87,1.966-9.231,1.966c-4.388,0-8.32-0.969-11.795-2.906c-3.476-1.937-6.196-4.657-8.162-8.162
		c-1.965-3.504-2.948-7.534-2.948-12.094c0-4.558,0.983-8.575,2.948-12.052c1.966-3.475,4.687-6.181,8.162-8.119
		c3.476-1.937,7.407-2.906,11.795-2.906c3.248,0,6.239,0.613,8.974,1.837c2.735,1.226,5.014,3.034,6.838,5.427v-23.35L630-599.999z
		 M614.445-545.256c2.335-1.338,4.158-3.219,5.47-5.641c1.31-2.421,1.966-5.199,1.966-8.333c0-3.133-0.656-5.911-1.966-8.334
		c-1.312-2.421-3.135-4.286-5.47-5.598c-2.337-1.31-4.929-1.966-7.778-1.966c-2.906,0-5.513,0.656-7.82,1.966
		c-2.308,1.312-4.132,3.177-5.47,5.598c-1.339,2.422-2.009,5.201-2.009,8.334c0,3.134,0.669,5.912,2.009,8.333
		c1.338,2.422,3.162,4.303,5.47,5.641c2.308,1.339,4.914,2.009,7.82,2.009C609.516-543.248,612.108-543.917,614.445-545.256z"/>
	<path fill="#1F2429" d="M215.692-550.656c2.848-4.701,4.273-9.985,4.273-15.855c0-5.868-1.425-11.154-4.273-15.855
		c-2.85-4.701-6.752-8.389-11.709-11.068c-4.957-2.677-10.542-4.017-16.752-4.017c-6.212,0-11.81,1.34-16.795,4.017
		c-4.987,2.679-8.889,6.368-11.709,11.068c-2.82,4.701-4.23,9.987-4.23,15.855c0,5.87,1.41,11.154,4.23,15.855
		c2.821,4.701,6.723,8.391,11.709,11.068c4.985,2.679,10.583,4.017,16.795,4.017c6.21,0,11.795-1.338,16.752-4.017
		C208.939-542.265,212.842-545.955,215.692-550.656z M203.512-556.596c-1.624,2.906-3.861,5.171-6.709,6.795
		c-2.85,1.624-6.041,2.436-9.573,2.436c-3.534,0-6.724-0.812-9.573-2.436c-2.85-1.624-5.085-3.889-6.709-6.795
		c-1.624-2.906-2.436-6.21-2.436-9.915c0-3.703,0.812-7.008,2.436-9.914c1.624-2.906,3.86-5.171,6.709-6.795
		c2.849-1.624,6.039-2.436,9.573-2.436c3.532,0,6.722,0.812,9.573,2.436c2.849,1.624,5.086,3.889,6.709,6.795
		c1.624,2.906,2.436,6.211,2.436,9.914C205.948-562.806,205.136-559.502,203.512-556.596z"/>
</g>
<g>
	<path fill="#1F2429" d="M3.888,0.079c0.339-0.052,0.664-0.065,1.003-0.078c18.812,0,37.612,0,56.411,0
		c0.743,0,1.485-0.026,2.202,0.182c1.394,0.391,2.58,1.433,3.114,2.775c0.508,1.225,0.469,2.671-0.104,3.869
		c-0.769,1.681-2.58,2.801-4.43,2.736c-19.06,0-38.133,0-57.193,0C2.976,9.629,1.087,8.417,0.371,6.632
		c-0.495-1.186-0.495-2.58,0.026-3.765C1.009,1.434,2.364,0.366,3.888,0.079L3.888,0.079z"/>
	<path fill="#3B7859" d="M3.771,14.462c0.456-0.104,0.925-0.104,1.381-0.117c9.028,0,18.07,0,27.098,0
		c0.73,0,1.472-0.026,2.189,0.104c1.537,0.313,2.892,1.407,3.478,2.879c0.495,1.173,0.482,2.553-0.039,3.726
		c-0.73,1.733-2.58,2.918-4.456,2.866c-9.341,0.013-18.669,0-28.01,0c-0.586,0-1.173,0-1.746-0.13
		c-1.394-0.339-2.619-1.316-3.218-2.619c-0.625-1.329-0.599-2.944,0.091-4.234C1.178,15.687,2.39,14.762,3.771,14.462z"/>
	<path fill="#C63B2B" d="M46.894,14.449c0.704-0.13,1.446-0.104,2.163-0.104c9.12,0,18.239,0,27.359,0
		c1.498-0.039,3.009,0.651,3.908,1.863c0.704,0.873,1.055,2.019,1.003,3.14c-0.052,1.694-1.107,3.335-2.658,4.065
		c-0.756,0.43-1.655,0.521-2.514,0.508c-9.419,0-18.838,0.013-28.271,0c-1.12,0.013-2.215-0.404-3.101-1.094
		c-1.159-0.977-1.837-2.514-1.72-4.026C43.181,16.716,44.835,14.827,46.894,14.449L46.894,14.449z"/>
	<path fill="#1D424A" d="M3.901,28.78c0.365-0.052,0.743-0.065,1.12-0.078c12.637,0.013,25.274,0,37.911,0.013
		c1.212-0.052,2.423,0.417,3.335,1.225c1.029,0.938,1.642,2.332,1.576,3.739c-0.052,0.977-0.378,1.954-1.003,2.723
		c-0.899,1.212-2.41,1.902-3.908,1.876c-12.416,0-24.844-0.013-37.26,0c-0.704-0.013-1.42,0.026-2.098-0.156
		c-1.264-0.339-2.384-1.199-2.996-2.358c-0.677-1.225-0.756-2.736-0.235-4.026C0.905,30.213,2.312,29.08,3.901,28.78L3.901,28.78z"
		/>
	<path fill="#83B877" d="M56.534,28.78c0.547-0.078,1.094-0.078,1.642-0.078c2.957,0.013,5.902,0,8.859,0.013
		c1.876-0.026,3.674,1.212,4.364,2.944c0.508,1.212,0.482,2.632-0.065,3.83c-0.756,1.642-2.488,2.788-4.299,2.775
		c-3.257,0-6.514,0.013-9.771,0c-2.475-0.013-4.703-2.241-4.625-4.729C52.535,31.268,54.32,29.158,56.534,28.78z"/>
	<path fill="#C63B2B" d="M3.901,43.124c0.456-0.065,0.925-0.065,1.381-0.065c9.25-0.013,18.5,0,27.75,0
		c0.73-0.013,1.472,0.026,2.163,0.313c1.342,0.495,2.423,1.642,2.853,3.009c0.717,2.071-0.248,4.573-2.189,5.615
		c-0.73,0.43-1.576,0.638-2.423,0.638c-9.523,0-19.034,0-28.557,0c-0.938,0-1.889-0.261-2.671-0.769
		c-1.511-0.938-2.371-2.762-2.176-4.521C0.201,45.286,1.882,43.501,3.901,43.124z"/>
	<path fill="#3B7859" d="M47.024,43.124c0.417-0.065,0.834-0.065,1.251-0.065c7.426-0.013,14.852,0,22.278-0.013
		c0.638,0.013,1.29-0.013,1.928,0.065c1.655,0.235,3.14,1.42,3.739,2.983c0.443,1.186,0.443,2.553-0.091,3.713
		c-0.743,1.707-2.54,2.827-4.39,2.827c-7.96,0-15.907,0-23.867,0c-1.003,0-1.98-0.326-2.814-0.899
		c-1.485-1.042-2.293-2.996-1.902-4.794C43.467,45.026,45.109,43.436,47.024,43.124L47.024,43.124z"/>
	<path fill="#1F2429" d="M4.553,57.428c19.125-0.039,38.263-0.013,57.401-0.013c1.524-0.078,3.075,0.599,4,1.824
		c0.86,1.055,1.186,2.514,0.938,3.843c-0.261,1.459-1.251,2.775-2.593,3.4c-0.756,0.404-1.628,0.508-2.475,0.495
		c-18.5,0-36.999,0-55.499,0c-0.925-0.026-1.863,0.078-2.775-0.169c-1.498-0.378-2.775-1.55-3.27-3.022
		c-0.521-1.446-0.3-3.153,0.638-4.403C1.739,58.223,3.12,57.467,4.553,57.428z"/>
</g>
<g>
	<path fill="#FFFFFF" d="M153.186,52.667c-1.344-2.24-2.417-4.601-3.237-7.064l-0.068-0.063c-4.046,4.73-9.06,7.094-15.043,7.094
		c-3.704,0-7.008-0.812-9.914-2.436c-2.906-1.624-5.171-3.889-6.795-6.795c-1.624-2.906-2.436-6.21-2.436-9.915
		c0-3.703,0.812-7.008,2.436-9.914c1.624-2.906,3.889-5.171,6.795-6.795c2.906-1.624,6.21-2.436,9.914-2.436
		c5.983,0,10.996,2.337,15.043,7.008l0.105-0.097c0.815-2.42,1.879-4.741,3.201-6.945c0.851-1.419,1.788-2.765,2.807-4.037
		c-2.27-2.048-4.858-3.717-7.779-4.99c-4.188-1.823-8.876-2.735-14.06-2.735c-6.154,0-11.696,1.325-16.624,3.974
		c-4.929,2.65-8.804,6.325-11.624,11.026c-2.82,4.701-4.23,10.015-4.23,15.94c0,5.927,1.41,11.239,4.23,15.94
		c2.821,4.701,6.695,8.376,11.624,11.026c4.928,2.649,10.44,3.974,16.538,3.974c5.184,0,9.885-0.912,14.102-2.735
		c2.934-1.269,5.529-2.947,7.802-5.017C154.963,55.414,154.032,54.077,153.186,52.667z"/>
	<path fill="#FFFFFF" d="M272,0.001v63.418h-7.863v-7.179c-1.824,2.508-4.132,4.417-6.923,5.727
		c-2.793,1.312-5.87,1.966-9.231,1.966c-4.389,0-8.32-0.969-11.795-2.906c-3.476-1.937-6.196-4.657-8.162-8.162
		c-1.965-3.504-2.948-7.535-2.948-12.093c0-4.558,0.983-8.575,2.948-12.052c1.966-3.475,4.687-6.181,8.162-8.119
		c3.476-1.937,7.407-2.906,11.795-2.906c3.248,0,6.239,0.613,8.974,1.837c2.735,1.226,5.014,3.034,6.838,5.427V1.607L272,0.001z
		 M256.445,54.744c2.335-1.338,4.158-3.219,5.47-5.641c1.31-2.421,1.966-5.199,1.966-8.333c0-3.133-0.656-5.911-1.966-8.334
		c-1.312-2.421-3.135-4.286-5.47-5.598c-2.337-1.31-4.929-1.966-7.778-1.966c-2.906,0-5.513,0.656-7.821,1.966
		c-2.308,1.312-4.132,3.177-5.47,5.598c-1.339,2.422-2.009,5.201-2.009,8.334c0,3.134,0.67,5.912,2.009,8.333
		c1.338,2.422,3.162,4.303,5.47,5.641c2.308,1.339,4.914,2.009,7.821,2.009C251.516,56.752,254.108,56.083,256.445,54.744z"/>
	<path fill="#FFFFFF" d="M315.93,51.282l4.444,5.299c-1.994,2.393-4.516,4.217-7.564,5.47c-3.048,1.254-6.453,1.881-10.214,1.881
		c-4.786,0-9.032-0.983-12.735-2.949c-3.705-1.966-6.568-4.714-8.59-8.248c-2.024-3.532-3.034-7.521-3.034-11.966
		c0-4.388,0.983-8.347,2.948-11.88c1.966-3.532,4.672-6.282,8.12-8.248c3.447-1.966,7.336-2.949,11.666-2.949
		c4.103,0,7.835,0.927,11.197,2.778c3.362,1.852,6.039,4.46,8.035,7.821c1.993,3.363,3.019,7.237,3.077,11.624l-35.983,7.009
		c1.139,3.135,3.063,5.555,5.769,7.265c2.706,1.709,5.968,2.565,9.787,2.565C308.266,56.752,312.625,54.929,315.93,51.282z
		 M293.324,26.581c-2.252,1.312-4.004,3.149-5.256,5.513c-1.255,2.366-1.881,5.115-1.881,8.249v0.854l28.974-5.47
		c-0.742-3.304-2.393-5.983-4.957-8.035c-2.565-2.051-5.641-3.077-9.232-3.077C298.123,24.615,295.574,25.272,293.324,26.581z"/>
	<path fill="#FFFFFF" d="M368.837,18.12l-19.829,45.299h-8.376l-19.155-43.759l7.873-1.54l15.556,36.325L360.05,19.84L368.837,18.12
		z"/>
	<path fill="#FFFFFF" d="M403.622,51.282l4.444,5.299c-1.994,2.393-4.516,4.217-7.564,5.47c-3.048,1.254-6.453,1.881-10.214,1.881
		c-4.786,0-9.032-0.983-12.735-2.949c-3.705-1.966-6.568-4.714-8.59-8.248c-2.024-3.532-3.034-7.521-3.034-11.966
		c0-4.388,0.983-8.347,2.948-11.88c1.966-3.532,4.672-6.282,8.12-8.248c3.447-1.966,7.336-2.949,11.666-2.949
		c4.103,0,7.835,0.927,11.197,2.778c3.362,1.852,6.039,4.46,8.035,7.821c1.993,3.363,3.019,7.237,3.077,11.624l-35.983,7.009
		c1.139,3.135,3.063,5.555,5.769,7.265c2.706,1.709,5.968,2.565,9.787,2.565C395.957,56.752,400.317,54.929,403.622,51.282z
		 M381.015,26.581c-2.252,1.312-4.004,3.149-5.256,5.513c-1.255,2.366-1.881,5.115-1.881,8.249v0.854l28.974-5.47
		c-0.742-3.304-2.393-5.983-4.957-8.035c-2.565-2.051-5.641-3.077-9.232-3.077C385.815,24.615,383.265,25.272,381.015,26.581z"/>
	<path fill="#FFFFFF" d="M420.887,60.299c-2.393-2.422-3.589-5.825-3.589-10.214V1.608l8.205-1.607v49.401
		c0,2.451,0.583,4.331,1.752,5.641c1.167,1.311,2.919,1.965,5.256,1.965c1.423,0,2.763-0.284,4.017-0.854l0.427,6.752
		c-1.88,0.684-3.846,1.026-5.897,1.026C426.669,63.932,423.28,62.722,420.887,60.299z"/>
	<path fill="#FFFFFF" d="M446.015,60.94c-3.589-1.993-6.396-4.744-8.418-8.248c-2.024-3.505-3.034-7.479-3.034-11.923
		s1.01-8.419,3.034-11.923c2.022-3.504,4.829-6.239,8.418-8.205c3.59-1.966,7.635-2.949,12.137-2.949
		c4.5,0,8.533,0.983,12.093,2.949c3.561,1.966,6.354,4.701,8.376,8.205c2.022,3.504,3.034,7.479,3.034,11.923
		s-1.012,8.418-3.034,11.923c-2.023,3.504-4.816,6.254-8.376,8.248c-3.561,1.995-7.593,2.992-12.093,2.992
		C453.65,63.932,449.605,62.936,446.015,60.94z M465.973,54.744c2.308-1.338,4.116-3.219,5.427-5.641
		c1.31-2.421,1.966-5.199,1.966-8.333c0-3.133-0.656-5.911-1.966-8.334c-1.312-2.421-3.119-4.286-5.427-5.598
		c-2.308-1.31-4.914-1.966-7.821-1.966c-2.906,0-5.513,0.656-7.821,1.966c-2.308,1.312-4.132,3.177-5.47,5.598
		c-1.339,2.422-2.009,5.201-2.009,8.334c0,3.134,0.67,5.912,2.009,8.333c1.338,2.422,3.162,4.303,5.47,5.641
		c2.308,1.339,4.914,2.009,7.821,2.009C461.059,56.752,463.665,56.083,465.973,54.744z"/>
	<path fill="#FFFFFF" d="M520.798,20.599c3.475,1.938,6.196,4.644,8.162,8.119c1.965,3.477,2.948,7.494,2.948,12.052
		c0,4.559-0.983,8.59-2.948,12.093c-1.966,3.505-4.688,6.226-8.162,8.162c-3.477,1.938-7.409,2.906-11.795,2.906
		c-3.247,0-6.226-0.627-8.931-1.881c-2.708-1.253-5-3.077-6.88-5.47v21.813L484.986,80V18.12h7.863v7.179
		c1.823-2.506,4.13-4.402,6.923-5.683c2.791-1.282,5.868-1.923,9.231-1.923C513.389,17.692,517.321,18.662,520.798,20.599z
		 M516.139,54.744c2.308-1.338,4.131-3.219,5.47-5.641c1.338-2.421,2.009-5.199,2.009-8.333c0-3.133-0.671-5.911-2.009-8.334
		c-1.339-2.421-3.162-4.286-5.47-5.598c-2.308-1.31-4.914-1.966-7.821-1.966c-2.85,0-5.427,0.67-7.735,2.009
		c-2.307,1.339-4.132,3.205-5.47,5.598c-1.339,2.393-2.009,5.158-2.009,8.291c0,3.134,0.654,5.912,1.966,8.333
		c1.311,2.422,3.133,4.303,5.47,5.641c2.336,1.339,4.928,2.009,7.778,2.009C511.225,56.752,513.831,56.083,516.139,54.744z"/>
	<path fill="#FFFFFF" d="M572.621,51.282l4.444,5.299c-1.994,2.393-4.516,4.217-7.564,5.47c-3.048,1.254-6.453,1.881-10.214,1.881
		c-4.786,0-9.032-0.983-12.735-2.949c-3.705-1.966-6.568-4.714-8.59-8.248c-2.024-3.532-3.034-7.521-3.034-11.966
		c0-4.388,0.983-8.347,2.948-11.88c1.966-3.532,4.672-6.282,8.12-8.248c3.447-1.966,7.336-2.949,11.666-2.949
		c4.103,0,7.835,0.927,11.197,2.778c3.362,1.852,6.039,4.46,8.035,7.821c1.993,3.363,3.019,7.237,3.077,11.624l-35.983,7.009
		c1.139,3.135,3.063,5.555,5.769,7.265c2.706,1.709,5.968,2.565,9.787,2.565C564.956,56.752,569.316,54.929,572.621,51.282z
		 M550.014,26.581c-2.252,1.312-4.004,3.149-5.256,5.513c-1.255,2.366-1.881,5.115-1.881,8.249v0.854l28.974-5.47
		c-0.742-3.304-2.393-5.983-4.957-8.035c-2.565-2.051-5.641-3.077-9.232-3.077C554.814,24.615,552.264,25.272,550.014,26.581z"/>
	<path fill="#FFFFFF" d="M630,0.001v63.418h-7.863v-7.179c-1.824,2.508-4.132,4.417-6.923,5.727
		c-2.793,1.312-5.87,1.966-9.231,1.966c-4.388,0-8.32-0.969-11.795-2.906c-3.476-1.937-6.196-4.657-8.162-8.162
		c-1.965-3.504-2.948-7.535-2.948-12.093c0-4.558,0.983-8.575,2.948-12.052c1.966-3.475,4.687-6.181,8.162-8.119
		c3.476-1.937,7.407-2.906,11.795-2.906c3.248,0,6.239,0.613,8.974,1.837c2.735,1.226,5.014,3.034,6.838,5.427V1.607L630,0.001z
		 M614.445,54.744c2.335-1.338,4.158-3.219,5.47-5.641c1.31-2.421,1.966-5.199,1.966-8.333c0-3.133-0.656-5.911-1.966-8.334
		c-1.312-2.421-3.135-4.286-5.47-5.598c-2.337-1.31-4.929-1.966-7.778-1.966c-2.906,0-5.513,0.656-7.82,1.966
		c-2.308,1.312-4.132,3.177-5.47,5.598c-1.339,2.422-2.009,5.201-2.009,8.334c0,3.134,0.669,5.912,2.009,8.333
		c1.338,2.422,3.162,4.303,5.47,5.641c2.308,1.339,4.914,2.009,7.82,2.009C609.516,56.752,612.108,56.083,614.445,54.744z"/>
	<path fill="#FFFFFF" d="M215.692,49.344c2.848-4.701,4.273-9.985,4.273-15.855c0-5.868-1.425-11.154-4.273-15.855
		c-2.85-4.701-6.752-8.389-11.709-11.068C199.025,3.889,193.44,2.55,187.23,2.55c-6.212,0-11.81,1.34-16.795,4.017
		c-4.987,2.679-8.889,6.368-11.709,11.068c-2.82,4.701-4.23,9.987-4.23,15.855c0,5.87,1.41,11.154,4.23,15.855
		c2.821,4.701,6.723,8.391,11.709,11.068c4.985,2.679,10.583,4.017,16.795,4.017c6.21,0,11.795-1.338,16.752-4.017
		C208.939,57.735,212.842,54.045,215.692,49.344z M203.512,43.404c-1.624,2.906-3.861,5.171-6.709,6.795
		c-2.85,1.624-6.041,2.436-9.573,2.436c-3.534,0-6.724-0.812-9.573-2.436c-2.85-1.624-5.085-3.889-6.709-6.795
		c-1.624-2.906-2.436-6.21-2.436-9.915c0-3.703,0.812-7.008,2.436-9.914c1.624-2.906,3.86-5.171,6.709-6.795
		c2.849-1.624,6.039-2.436,9.573-2.436c3.532,0,6.722,0.812,9.573,2.436c2.849,1.624,5.086,3.889,6.709,6.795
		c1.624,2.906,2.436,6.212,2.436,9.914C205.948,37.194,205.136,40.498,203.512,43.404z"/>
</g>
<path opacity="0.8" fill="#3B7859" d="M3.888-499.921c0.339-0.052,0.664-0.065,1.003-0.078c18.812,0,37.612,0,56.411,0
	c0.743,0,1.485-0.026,2.202,0.182c1.394,0.391,2.58,1.433,3.114,2.775c0.508,1.225,0.469,2.671-0.104,3.869
	c-0.769,1.681-2.58,2.801-4.43,2.736c-19.06,0-38.133,0-57.193,0c-1.915,0.065-3.804-1.146-4.521-2.931
	c-0.495-1.186-0.495-2.58,0.026-3.765C1.009-498.566,2.364-499.634,3.888-499.921L3.888-499.921z"/>
<path opacity="0.6" fill="#3B7859" d="M3.771-485.538c0.456-0.104,0.925-0.104,1.381-0.117c9.028,0,18.07,0,27.098,0
	c0.73,0,1.472-0.026,2.189,0.104c1.537,0.313,2.892,1.407,3.478,2.879c0.495,1.173,0.482,2.553-0.039,3.726
	c-0.73,1.733-2.58,2.918-4.456,2.866c-9.341,0.013-18.669,0-28.01,0c-0.586,0-1.173,0-1.746-0.13
	c-1.394-0.339-2.619-1.316-3.218-2.619c-0.625-1.329-0.599-2.944,0.091-4.234C1.178-484.313,2.39-485.238,3.771-485.538z"/>
<path opacity="0.45" fill="#3B7859" d="M46.894-485.551c0.704-0.13,1.446-0.104,2.163-0.104c9.12,0,18.239,0,27.359,0
	c1.498-0.039,3.009,0.651,3.908,1.863c0.704,0.873,1.055,2.019,1.003,3.14c-0.052,1.694-1.107,3.335-2.658,4.065
	c-0.756,0.43-1.655,0.521-2.514,0.508c-9.419,0-18.838,0.013-28.271,0c-1.12,0.013-2.215-0.404-3.101-1.094
	c-1.159-0.977-1.837-2.514-1.72-4.026C43.181-483.284,44.835-485.173,46.894-485.551L46.894-485.551z"/>
<path opacity="0.7" fill="#3B7859" d="M3.901-471.22c0.365-0.052,0.743-0.065,1.12-0.078c12.637,0.013,25.274,0,37.911,0.013
	c1.212-0.052,2.423,0.417,3.335,1.225c1.029,0.938,1.642,2.332,1.576,3.739c-0.052,0.977-0.378,1.954-1.003,2.723
	c-0.899,1.212-2.41,1.902-3.908,1.876c-12.416,0-24.844-0.013-37.26,0c-0.704-0.013-1.42,0.026-2.098-0.156
	c-1.264-0.339-2.384-1.199-2.996-2.358c-0.677-1.225-0.756-2.736-0.235-4.026C0.905-469.787,2.312-470.921,3.901-471.22
	L3.901-471.22z"/>
<path opacity="0.3" fill="#3B7859" d="M56.534-471.22c0.547-0.078,1.094-0.078,1.642-0.078c2.957,0.013,5.902,0,8.859,0.013
	c1.876-0.026,3.674,1.212,4.364,2.944c0.508,1.212,0.482,2.632-0.065,3.83c-0.756,1.642-2.488,2.788-4.299,2.775
	c-3.257,0-6.514,0.013-9.771,0c-2.475-0.013-4.703-2.241-4.625-4.729C52.535-468.732,54.32-470.842,56.534-471.22z"/>
<path opacity="0.45" fill="#3B7859" d="M3.901-456.876c0.456-0.065,0.925-0.065,1.381-0.065c9.25-0.013,18.5,0,27.75,0
	c0.73-0.013,1.472,0.026,2.163,0.313c1.342,0.495,2.423,1.642,2.853,3.009c0.717,2.071-0.248,4.573-2.189,5.615
	c-0.73,0.43-1.576,0.638-2.423,0.638c-9.523,0-19.034,0-28.557,0c-0.938,0-1.889-0.261-2.671-0.769
	c-1.511-0.938-2.371-2.762-2.176-4.521C0.201-454.714,1.882-456.499,3.901-456.876z"/>
<path opacity="0.6" fill="#3B7859" d="M47.024-456.876c0.417-0.065,0.834-0.065,1.251-0.065c7.426-0.013,14.852,0,22.278-0.013
	c0.638,0.013,1.29-0.013,1.928,0.065c1.655,0.234,3.14,1.42,3.739,2.983c0.443,1.186,0.443,2.553-0.091,3.713
	c-0.743,1.707-2.54,2.827-4.39,2.827c-7.96,0-15.907,0-23.867,0c-1.003,0-1.98-0.326-2.814-0.899
	c-1.485-1.042-2.293-2.996-1.902-4.794C43.467-454.974,45.109-456.564,47.024-456.876L47.024-456.876z"/>
<path opacity="0.8" fill="#3B7859" d="M4.553-442.572c19.125-0.039,38.263-0.013,57.401-0.013c1.524-0.078,3.075,0.599,4,1.824
	c0.86,1.055,1.186,2.514,0.938,3.843c-0.261,1.459-1.251,2.775-2.593,3.4c-0.756,0.404-1.628,0.508-2.475,0.495
	c-18.5,0-36.999,0-55.499,0c-0.925-0.026-1.863,0.078-2.775-0.169c-1.498-0.378-2.775-1.55-3.27-3.022
	c-0.521-1.446-0.3-3.153,0.638-4.403C1.739-441.777,3.12-442.533,4.553-442.572z"/>
<g>
	<path fill="#3B7859" d="M153.186-447.333c-1.344-2.24-2.417-4.601-3.237-7.064l-0.068-0.063c-4.046,4.73-9.06,7.094-15.043,7.094
		c-3.704,0-7.008-0.812-9.914-2.436c-2.906-1.624-5.171-3.889-6.795-6.795c-1.624-2.906-2.436-6.21-2.436-9.915
		c0-3.703,0.812-7.008,2.436-9.914c1.624-2.906,3.889-5.171,6.795-6.795c2.906-1.624,6.21-2.436,9.914-2.436
		c5.983,0,10.996,2.337,15.043,7.008l0.105-0.097c0.815-2.42,1.879-4.741,3.201-6.945c0.851-1.419,1.788-2.765,2.807-4.036
		c-2.27-2.048-4.858-3.717-7.779-4.99c-4.188-1.823-8.876-2.735-14.06-2.735c-6.154,0-11.696,1.325-16.624,3.974
		c-4.929,2.65-8.804,6.325-11.624,11.026c-2.82,4.701-4.23,10.015-4.23,15.94c0,5.927,1.41,11.239,4.23,15.94
		c2.821,4.701,6.695,8.376,11.624,11.026c4.928,2.649,10.44,3.974,16.538,3.974c5.184,0,9.885-0.912,14.102-2.735
		c2.934-1.269,5.529-2.947,7.802-5.017C154.963-444.586,154.032-445.923,153.186-447.333z"/>
	<path fill="#3B7859" d="M272-499.999v63.418h-7.863v-7.179c-1.824,2.508-4.132,4.417-6.923,5.727
		c-2.793,1.312-5.87,1.966-9.231,1.966c-4.389,0-8.32-0.969-11.795-2.906c-3.476-1.937-6.196-4.657-8.162-8.162
		c-1.965-3.504-2.948-7.535-2.948-12.093c0-4.558,0.983-8.575,2.948-12.052c1.966-3.475,4.687-6.181,8.162-8.119
		c3.476-1.937,7.407-2.906,11.795-2.906c3.248,0,6.239,0.613,8.974,1.837c2.735,1.226,5.014,3.034,6.838,5.427v-23.35L272-499.999z
		 M256.445-445.256c2.335-1.338,4.158-3.219,5.47-5.641c1.31-2.421,1.966-5.199,1.966-8.333c0-3.133-0.656-5.911-1.966-8.334
		c-1.312-2.421-3.135-4.286-5.47-5.598c-2.337-1.31-4.929-1.966-7.778-1.966c-2.906,0-5.513,0.656-7.821,1.966
		c-2.308,1.312-4.132,3.177-5.47,5.598c-1.339,2.422-2.009,5.201-2.009,8.334c0,3.134,0.67,5.912,2.009,8.333
		c1.338,2.422,3.162,4.303,5.47,5.641c2.308,1.339,4.914,2.009,7.821,2.009C251.516-443.248,254.108-443.917,256.445-445.256z"/>
	<path fill="#3B7859" d="M315.93-448.718l4.444,5.299c-1.994,2.393-4.516,4.217-7.564,5.47c-3.048,1.254-6.453,1.881-10.214,1.881
		c-4.786,0-9.032-0.983-12.735-2.949c-3.705-1.966-6.568-4.714-8.59-8.248c-2.024-3.532-3.034-7.521-3.034-11.966
		c0-4.388,0.983-8.347,2.948-11.88c1.966-3.532,4.672-6.282,8.12-8.248c3.447-1.966,7.336-2.949,11.666-2.949
		c4.103,0,7.835,0.927,11.197,2.778c3.362,1.852,6.039,4.46,8.035,7.82c1.993,3.363,3.019,7.237,3.077,11.624l-35.983,7.009
		c1.139,3.135,3.063,5.555,5.769,7.265c2.706,1.709,5.968,2.565,9.787,2.565C308.266-443.248,312.625-445.071,315.93-448.718z
		 M293.324-473.419c-2.252,1.312-4.004,3.149-5.256,5.513c-1.255,2.366-1.881,5.115-1.881,8.249v0.854l28.974-5.47
		c-0.742-3.304-2.393-5.983-4.957-8.035c-2.565-2.051-5.641-3.077-9.232-3.077C298.123-475.385,295.574-474.728,293.324-473.419z"/>
	<path fill="#3B7859" d="M368.837-481.88l-19.829,45.299h-8.376l-19.155-43.759l7.873-1.54l15.556,36.325l15.145-34.605
		L368.837-481.88z"/>
	<path fill="#3B7859" d="M403.622-448.718l4.444,5.299c-1.994,2.393-4.516,4.217-7.564,5.47c-3.048,1.254-6.453,1.881-10.214,1.881
		c-4.786,0-9.032-0.983-12.735-2.949c-3.705-1.966-6.568-4.714-8.59-8.248c-2.024-3.532-3.034-7.521-3.034-11.966
		c0-4.388,0.983-8.347,2.948-11.88c1.966-3.532,4.672-6.282,8.12-8.248c3.447-1.966,7.336-2.949,11.666-2.949
		c4.103,0,7.835,0.927,11.197,2.778c3.362,1.852,6.039,4.46,8.035,7.82c1.993,3.363,3.019,7.237,3.077,11.624l-35.983,7.009
		c1.139,3.135,3.063,5.555,5.769,7.265c2.706,1.709,5.968,2.565,9.787,2.565C395.957-443.248,400.317-445.071,403.622-448.718z
		 M381.015-473.419c-2.252,1.312-4.004,3.149-5.256,5.513c-1.255,2.366-1.881,5.115-1.881,8.249v0.854l28.974-5.47
		c-0.742-3.304-2.393-5.983-4.957-8.035c-2.565-2.051-5.641-3.077-9.232-3.077C385.815-475.385,383.265-474.728,381.015-473.419z"/>
	<path fill="#3B7859" d="M420.887-439.701c-2.393-2.422-3.589-5.825-3.589-10.214v-48.478l8.205-1.607v49.401
		c0,2.451,0.583,4.331,1.752,5.641c1.167,1.311,2.919,1.965,5.256,1.965c1.423,0,2.763-0.284,4.017-0.854l0.427,6.752
		c-1.88,0.684-3.846,1.026-5.897,1.026C426.669-436.068,423.28-437.278,420.887-439.701z"/>
	<path fill="#3B7859" d="M446.015-439.06c-3.589-1.993-6.396-4.744-8.418-8.248c-2.024-3.505-3.034-7.479-3.034-11.923
		c0-4.444,1.01-8.419,3.034-11.923c2.022-3.504,4.829-6.239,8.418-8.205c3.59-1.966,7.635-2.949,12.137-2.949
		c4.5,0,8.533,0.983,12.093,2.949c3.561,1.966,6.354,4.701,8.376,8.205c2.022,3.504,3.034,7.479,3.034,11.923
		c0,4.444-1.012,8.418-3.034,11.923c-2.023,3.504-4.816,6.254-8.376,8.248c-3.561,1.995-7.593,2.992-12.093,2.992
		C453.65-436.068,449.605-437.064,446.015-439.06z M465.973-445.256c2.308-1.338,4.116-3.219,5.427-5.641
		c1.31-2.421,1.966-5.199,1.966-8.333c0-3.133-0.656-5.911-1.966-8.334c-1.312-2.421-3.119-4.286-5.427-5.598
		c-2.308-1.31-4.914-1.966-7.821-1.966c-2.906,0-5.513,0.656-7.821,1.966c-2.308,1.312-4.132,3.177-5.47,5.598
		c-1.339,2.422-2.009,5.201-2.009,8.334c0,3.134,0.67,5.912,2.009,8.333c1.338,2.422,3.162,4.303,5.47,5.641
		c2.308,1.339,4.914,2.009,7.821,2.009C461.059-443.248,463.665-443.917,465.973-445.256z"/>
	<path fill="#3B7859" d="M520.798-479.401c3.475,1.938,6.196,4.644,8.162,8.119c1.965,3.477,2.948,7.494,2.948,12.052
		c0,4.559-0.983,8.59-2.948,12.093c-1.966,3.505-4.688,6.226-8.162,8.162c-3.477,1.938-7.409,2.906-11.795,2.906
		c-3.247,0-6.226-0.627-8.931-1.881c-2.708-1.253-5-3.077-6.88-5.47v21.813L484.986-420v-61.88h7.863v7.179
		c1.823-2.506,4.13-4.402,6.923-5.683c2.791-1.282,5.868-1.923,9.231-1.923C513.389-482.308,517.321-481.338,520.798-479.401z
		 M516.139-445.256c2.308-1.338,4.131-3.219,5.47-5.641c1.338-2.421,2.009-5.199,2.009-8.333c0-3.133-0.671-5.911-2.009-8.334
		c-1.339-2.421-3.162-4.286-5.47-5.598c-2.308-1.31-4.914-1.966-7.821-1.966c-2.85,0-5.427,0.67-7.735,2.009
		c-2.307,1.339-4.132,3.205-5.47,5.598c-1.339,2.393-2.009,5.158-2.009,8.291c0,3.134,0.654,5.912,1.966,8.333
		c1.311,2.422,3.133,4.303,5.47,5.641c2.336,1.339,4.928,2.009,7.778,2.009C511.225-443.248,513.831-443.917,516.139-445.256z"/>
	<path fill="#3B7859" d="M572.621-448.718l4.444,5.299c-1.994,2.393-4.516,4.217-7.564,5.47c-3.048,1.254-6.453,1.881-10.214,1.881
		c-4.786,0-9.032-0.983-12.735-2.949c-3.705-1.966-6.568-4.714-8.59-8.248c-2.024-3.532-3.034-7.521-3.034-11.966
		c0-4.388,0.983-8.347,2.948-11.88c1.966-3.532,4.672-6.282,8.12-8.248c3.447-1.966,7.336-2.949,11.666-2.949
		c4.103,0,7.835,0.927,11.197,2.778c3.362,1.852,6.039,4.46,8.035,7.82c1.993,3.363,3.019,7.237,3.077,11.624l-35.983,7.009
		c1.139,3.135,3.063,5.555,5.769,7.265c2.706,1.709,5.968,2.565,9.787,2.565C564.956-443.248,569.316-445.071,572.621-448.718z
		 M550.014-473.419c-2.252,1.312-4.004,3.149-5.256,5.513c-1.255,2.366-1.881,5.115-1.881,8.249v0.854l28.974-5.47
		c-0.742-3.304-2.393-5.983-4.957-8.035c-2.565-2.051-5.641-3.077-9.232-3.077C554.814-475.385,552.264-474.728,550.014-473.419z"/>
	<path fill="#3B7859" d="M630-499.999v63.418h-7.863v-7.179c-1.824,2.508-4.132,4.417-6.923,5.727
		c-2.793,1.312-5.87,1.966-9.231,1.966c-4.388,0-8.32-0.969-11.795-2.906c-3.476-1.937-6.196-4.657-8.162-8.162
		c-1.965-3.504-2.948-7.535-2.948-12.093c0-4.558,0.983-8.575,2.948-12.052c1.966-3.475,4.687-6.181,8.162-8.119
		c3.476-1.937,7.407-2.906,11.795-2.906c3.248,0,6.239,0.613,8.974,1.837c2.735,1.226,5.014,3.034,6.838,5.427v-23.35L630-499.999z
		 M614.445-445.256c2.335-1.338,4.158-3.219,5.47-5.641c1.31-2.421,1.966-5.199,1.966-8.333c0-3.133-0.656-5.911-1.966-8.334
		c-1.312-2.421-3.135-4.286-5.47-5.598c-2.337-1.31-4.929-1.966-7.778-1.966c-2.906,0-5.513,0.656-7.82,1.966
		c-2.308,1.312-4.132,3.177-5.47,5.598c-1.339,2.422-2.009,5.201-2.009,8.334c0,3.134,0.669,5.912,2.009,8.333
		c1.338,2.422,3.162,4.303,5.47,5.641c2.308,1.339,4.914,2.009,7.82,2.009C609.516-443.248,612.108-443.917,614.445-445.256z"/>
	<path fill="#3B7859" d="M215.692-450.656c2.848-4.701,4.273-9.985,4.273-15.855c0-5.868-1.425-11.154-4.273-15.855
		c-2.85-4.701-6.752-8.389-11.709-11.068c-4.957-2.677-10.542-4.017-16.752-4.017c-6.212,0-11.81,1.34-16.795,4.017
		c-4.987,2.679-8.889,6.368-11.709,11.068c-2.82,4.701-4.23,9.987-4.23,15.855c0,5.87,1.41,11.154,4.23,15.855
		c2.821,4.701,6.723,8.391,11.709,11.068c4.985,2.679,10.583,4.017,16.795,4.017c6.21,0,11.795-1.338,16.752-4.017
		C208.939-442.265,212.842-445.955,215.692-450.656z M203.512-456.596c-1.624,2.906-3.861,5.171-6.709,6.795
		c-2.85,1.624-6.041,2.436-9.573,2.436c-3.534,0-6.724-0.812-9.573-2.436c-2.85-1.624-5.085-3.889-6.709-6.795
		c-1.624-2.906-2.436-6.21-2.436-9.915c0-3.703,0.812-7.008,2.436-9.914c1.624-2.906,3.86-5.171,6.709-6.795
		c2.849-1.624,6.039-2.436,9.573-2.436c3.532,0,6.722,0.812,9.573,2.436c2.849,1.624,5.086,3.889,6.709,6.795
		c1.624,2.906,2.436,6.212,2.436,9.914C205.948-462.806,205.136-459.502,203.512-456.596z"/>
</g>
<path opacity="0.8" d="M3.888-399.921c0.339-0.052,0.664-0.065,1.003-0.078c18.812,0,37.612,0,56.411,0
	c0.743,0,1.485-0.026,2.202,0.182c1.394,0.391,2.58,1.433,3.114,2.775c0.508,1.225,0.469,2.671-0.104,3.869
	c-0.769,1.681-2.58,2.801-4.43,2.736c-19.06,0-38.133,0-57.193,0c-1.915,0.065-3.804-1.146-4.521-2.931
	c-0.495-1.186-0.495-2.58,0.026-3.765C1.009-398.566,2.364-399.634,3.888-399.921L3.888-399.921z"/>
<path opacity="0.6" d="M3.771-385.538c0.456-0.104,0.925-0.104,1.381-0.117c9.028,0,18.07,0,27.098,0
	c0.73,0,1.472-0.026,2.189,0.104c1.537,0.313,2.892,1.407,3.478,2.879c0.495,1.173,0.482,2.553-0.039,3.726
	c-0.73,1.733-2.58,2.918-4.456,2.866c-9.341,0.013-18.669,0-28.01,0c-0.586,0-1.173,0-1.746-0.13
	c-1.394-0.339-2.619-1.316-3.218-2.619c-0.625-1.329-0.599-2.944,0.091-4.234C1.178-384.313,2.39-385.238,3.771-385.538z"/>
<path opacity="0.45" d="M46.894-385.551c0.704-0.13,1.446-0.104,2.163-0.104c9.12,0,18.239,0,27.359,0
	c1.498-0.039,3.009,0.651,3.908,1.863c0.704,0.873,1.055,2.019,1.003,3.14c-0.052,1.694-1.107,3.335-2.658,4.065
	c-0.756,0.43-1.655,0.521-2.514,0.508c-9.419,0-18.838,0.013-28.271,0c-1.12,0.013-2.215-0.404-3.101-1.094
	c-1.159-0.977-1.837-2.514-1.72-4.026C43.181-383.284,44.835-385.173,46.894-385.551L46.894-385.551z"/>
<path opacity="0.7" d="M3.901-371.22c0.365-0.052,0.743-0.065,1.12-0.078c12.637,0.013,25.274,0,37.911,0.013
	c1.212-0.052,2.423,0.417,3.335,1.225c1.029,0.938,1.642,2.332,1.576,3.739c-0.052,0.977-0.378,1.954-1.003,2.723
	c-0.899,1.212-2.41,1.902-3.908,1.876c-12.416,0-24.844-0.013-37.26,0c-0.704-0.013-1.42,0.026-2.098-0.156
	c-1.264-0.339-2.384-1.199-2.996-2.358c-0.677-1.225-0.756-2.736-0.235-4.026C0.905-369.787,2.312-370.921,3.901-371.22
	L3.901-371.22z"/>
<path opacity="0.3" d="M56.534-371.22c0.547-0.078,1.094-0.078,1.642-0.078c2.957,0.013,5.902,0,8.859,0.013
	c1.876-0.026,3.674,1.212,4.364,2.944c0.508,1.212,0.482,2.632-0.065,3.83c-0.756,1.642-2.488,2.788-4.299,2.775
	c-3.257,0-6.514,0.013-9.771,0c-2.475-0.013-4.703-2.241-4.625-4.729C52.535-368.732,54.32-370.842,56.534-371.22z"/>
<path opacity="0.45" d="M3.901-356.876c0.456-0.065,0.925-0.065,1.381-0.065c9.25-0.013,18.5,0,27.75,0
	c0.73-0.013,1.472,0.026,2.163,0.313c1.342,0.495,2.423,1.642,2.853,3.009c0.717,2.071-0.248,4.573-2.189,5.615
	c-0.73,0.43-1.576,0.638-2.423,0.638c-9.523,0-19.034,0-28.557,0c-0.938,0-1.889-0.261-2.671-0.769
	c-1.511-0.938-2.371-2.762-2.176-4.521C0.201-354.714,1.882-356.499,3.901-356.876z"/>
<path opacity="0.6" d="M47.024-356.876c0.417-0.065,0.834-0.065,1.251-0.065c7.426-0.013,14.852,0,22.278-0.013
	c0.638,0.013,1.29-0.013,1.928,0.065c1.655,0.234,3.14,1.42,3.739,2.983c0.443,1.186,0.443,2.553-0.091,3.713
	c-0.743,1.707-2.54,2.827-4.39,2.827c-7.96,0-15.907,0-23.867,0c-1.003,0-1.98-0.326-2.814-0.899
	c-1.485-1.042-2.293-2.996-1.902-4.794C43.467-354.974,45.109-356.564,47.024-356.876L47.024-356.876z"/>
<path opacity="0.8" d="M4.553-342.572c19.125-0.039,38.263-0.013,57.401-0.013c1.524-0.078,3.075,0.599,4,1.824
	c0.86,1.055,1.186,2.514,0.938,3.843c-0.261,1.459-1.251,2.775-2.593,3.4c-0.756,0.404-1.628,0.508-2.475,0.495
	c-18.5,0-36.999,0-55.499,0c-0.925-0.026-1.863,0.078-2.775-0.169c-1.498-0.378-2.775-1.55-3.27-3.022
	c-0.521-1.446-0.3-3.153,0.638-4.403C1.739-341.777,3.12-342.533,4.553-342.572z"/>
<g>
	<path d="M153.186-347.333c-1.344-2.24-2.417-4.601-3.237-7.064l-0.068-0.063c-4.046,4.73-9.06,7.094-15.043,7.094
		c-3.704,0-7.008-0.812-9.914-2.436c-2.906-1.624-5.171-3.889-6.795-6.795c-1.624-2.906-2.436-6.21-2.436-9.915
		c0-3.703,0.812-7.008,2.436-9.914c1.624-2.906,3.889-5.171,6.795-6.795c2.906-1.624,6.21-2.436,9.914-2.436
		c5.983,0,10.996,2.337,15.043,7.008l0.105-0.097c0.815-2.42,1.879-4.741,3.201-6.945c0.851-1.419,1.788-2.765,2.807-4.036
		c-2.27-2.048-4.858-3.717-7.779-4.99c-4.188-1.823-8.876-2.735-14.06-2.735c-6.154,0-11.696,1.325-16.624,3.974
		c-4.929,2.65-8.804,6.325-11.624,11.026c-2.82,4.701-4.23,10.015-4.23,15.94c0,5.927,1.41,11.239,4.23,15.94
		c2.821,4.701,6.695,8.376,11.624,11.026c4.928,2.649,10.44,3.974,16.538,3.974c5.184,0,9.885-0.912,14.102-2.735
		c2.934-1.269,5.529-2.947,7.802-5.017C154.963-344.586,154.032-345.923,153.186-347.333z"/>
	<path d="M272-399.999v63.418h-7.863v-7.179c-1.824,2.508-4.132,4.417-6.923,5.727c-2.793,1.312-5.87,1.966-9.231,1.966
		c-4.389,0-8.32-0.969-11.795-2.906c-3.476-1.937-6.196-4.657-8.162-8.162c-1.965-3.504-2.948-7.535-2.948-12.093
		c0-4.558,0.983-8.575,2.948-12.052c1.966-3.475,4.687-6.181,8.162-8.119c3.476-1.937,7.407-2.906,11.795-2.906
		c3.248,0,6.239,0.613,8.974,1.837c2.735,1.226,5.014,3.034,6.838,5.427v-23.35L272-399.999z M256.445-345.256
		c2.335-1.338,4.158-3.219,5.47-5.641c1.31-2.421,1.966-5.199,1.966-8.333c0-3.133-0.656-5.911-1.966-8.334
		c-1.312-2.421-3.135-4.286-5.47-5.598c-2.337-1.31-4.929-1.966-7.778-1.966c-2.906,0-5.513,0.656-7.821,1.966
		c-2.308,1.312-4.132,3.177-5.47,5.598c-1.339,2.422-2.009,5.201-2.009,8.334c0,3.134,0.67,5.912,2.009,8.333
		c1.338,2.422,3.162,4.303,5.47,5.641c2.308,1.339,4.914,2.009,7.821,2.009C251.516-343.248,254.108-343.917,256.445-345.256z"/>
	<path d="M315.93-348.718l4.444,5.299c-1.994,2.393-4.516,4.217-7.564,5.47c-3.048,1.254-6.453,1.881-10.214,1.881
		c-4.786,0-9.032-0.983-12.735-2.949c-3.705-1.966-6.568-4.714-8.59-8.248c-2.024-3.532-3.034-7.521-3.034-11.966
		c0-4.388,0.983-8.347,2.948-11.88c1.966-3.532,4.672-6.282,8.12-8.248c3.447-1.966,7.336-2.949,11.666-2.949
		c4.103,0,7.835,0.927,11.197,2.778c3.362,1.852,6.039,4.46,8.035,7.82c1.993,3.363,3.019,7.237,3.077,11.624l-35.983,7.009
		c1.139,3.135,3.063,5.555,5.769,7.265c2.706,1.709,5.968,2.565,9.787,2.565C308.266-343.248,312.625-345.071,315.93-348.718z
		 M293.324-373.419c-2.252,1.312-4.004,3.149-5.256,5.513c-1.255,2.366-1.881,5.115-1.881,8.249v0.854l28.974-5.47
		c-0.742-3.304-2.393-5.983-4.957-8.035c-2.565-2.051-5.641-3.077-9.232-3.077C298.123-375.385,295.574-374.728,293.324-373.419z"/>
	<path d="M368.837-381.88l-19.829,45.299h-8.376l-19.155-43.759l7.873-1.54l15.556,36.325l15.145-34.605L368.837-381.88z"/>
	<path d="M403.622-348.718l4.444,5.299c-1.994,2.393-4.516,4.217-7.564,5.47c-3.048,1.254-6.453,1.881-10.214,1.881
		c-4.786,0-9.032-0.983-12.735-2.949c-3.705-1.966-6.568-4.714-8.59-8.248c-2.024-3.532-3.034-7.521-3.034-11.966
		c0-4.388,0.983-8.347,2.948-11.88c1.966-3.532,4.672-6.282,8.12-8.248c3.447-1.966,7.336-2.949,11.666-2.949
		c4.103,0,7.835,0.927,11.197,2.778c3.362,1.852,6.039,4.46,8.035,7.82c1.993,3.363,3.019,7.237,3.077,11.624l-35.983,7.009
		c1.139,3.135,3.063,5.555,5.769,7.265c2.706,1.709,5.968,2.565,9.787,2.565C395.957-343.248,400.317-345.071,403.622-348.718z
		 M381.015-373.419c-2.252,1.312-4.004,3.149-5.256,5.513c-1.255,2.366-1.881,5.115-1.881,8.249v0.854l28.974-5.47
		c-0.742-3.304-2.393-5.983-4.957-8.035c-2.565-2.051-5.641-3.077-9.232-3.077C385.815-375.385,383.265-374.728,381.015-373.419z"/>
	<path d="M420.887-339.701c-2.393-2.422-3.589-5.825-3.589-10.214v-48.478l8.205-1.607v49.401c0,2.451,0.583,4.331,1.752,5.641
		c1.167,1.311,2.919,1.965,5.256,1.965c1.423,0,2.763-0.284,4.017-0.854l0.427,6.752c-1.88,0.684-3.846,1.026-5.897,1.026
		C426.669-336.068,423.28-337.278,420.887-339.701z"/>
	<path d="M446.015-339.06c-3.589-1.993-6.396-4.744-8.418-8.248c-2.024-3.505-3.034-7.479-3.034-11.923
		c0-4.444,1.01-8.419,3.034-11.923c2.022-3.504,4.829-6.239,8.418-8.205c3.59-1.966,7.635-2.949,12.137-2.949
		c4.5,0,8.533,0.983,12.093,2.949c3.561,1.966,6.354,4.701,8.376,8.205c2.022,3.504,3.034,7.479,3.034,11.923
		c0,4.444-1.012,8.418-3.034,11.923c-2.023,3.504-4.816,6.254-8.376,8.248c-3.561,1.995-7.593,2.992-12.093,2.992
		C453.65-336.068,449.605-337.064,446.015-339.06z M465.973-345.256c2.308-1.338,4.116-3.219,5.427-5.641
		c1.31-2.421,1.966-5.199,1.966-8.333c0-3.133-0.656-5.911-1.966-8.334c-1.312-2.421-3.119-4.286-5.427-5.598
		c-2.308-1.31-4.914-1.966-7.821-1.966c-2.906,0-5.513,0.656-7.821,1.966c-2.308,1.312-4.132,3.177-5.47,5.598
		c-1.339,2.422-2.009,5.201-2.009,8.334c0,3.134,0.67,5.912,2.009,8.333c1.338,2.422,3.162,4.303,5.47,5.641
		c2.308,1.339,4.914,2.009,7.821,2.009C461.059-343.248,463.665-343.917,465.973-345.256z"/>
	<path d="M520.798-379.401c3.475,1.938,6.196,4.644,8.162,8.119c1.965,3.477,2.948,7.494,2.948,12.052
		c0,4.559-0.983,8.59-2.948,12.093c-1.966,3.505-4.688,6.226-8.162,8.162c-3.477,1.938-7.409,2.906-11.795,2.906
		c-3.247,0-6.226-0.627-8.931-1.881c-2.708-1.253-5-3.077-6.88-5.47v21.813L484.986-320v-61.88h7.863v7.179
		c1.823-2.506,4.13-4.402,6.923-5.683c2.791-1.282,5.868-1.923,9.231-1.923C513.389-382.308,517.321-381.338,520.798-379.401z
		 M516.139-345.256c2.308-1.338,4.131-3.219,5.47-5.641c1.338-2.421,2.009-5.199,2.009-8.333c0-3.133-0.671-5.911-2.009-8.334
		c-1.339-2.421-3.162-4.286-5.47-5.598c-2.308-1.31-4.914-1.966-7.821-1.966c-2.85,0-5.427,0.67-7.735,2.009
		c-2.307,1.339-4.132,3.205-5.47,5.598c-1.339,2.393-2.009,5.158-2.009,8.291c0,3.134,0.654,5.912,1.966,8.333
		c1.311,2.422,3.133,4.303,5.47,5.641c2.336,1.339,4.928,2.009,7.778,2.009C511.225-343.248,513.831-343.917,516.139-345.256z"/>
	<path d="M572.621-348.718l4.444,5.299c-1.994,2.393-4.516,4.217-7.564,5.47c-3.048,1.254-6.453,1.881-10.214,1.881
		c-4.786,0-9.032-0.983-12.735-2.949c-3.705-1.966-6.568-4.714-8.59-8.248c-2.024-3.532-3.034-7.521-3.034-11.966
		c0-4.388,0.983-8.347,2.948-11.88c1.966-3.532,4.672-6.282,8.12-8.248c3.447-1.966,7.336-2.949,11.666-2.949
		c4.103,0,7.835,0.927,11.197,2.778c3.362,1.852,6.039,4.46,8.035,7.82c1.993,3.363,3.019,7.237,3.077,11.624l-35.983,7.009
		c1.139,3.135,3.063,5.555,5.769,7.265c2.706,1.709,5.968,2.565,9.787,2.565C564.956-343.248,569.316-345.071,572.621-348.718z
		 M550.014-373.419c-2.252,1.312-4.004,3.149-5.256,5.513c-1.255,2.366-1.881,5.115-1.881,8.249v0.854l28.974-5.47
		c-0.742-3.304-2.393-5.983-4.957-8.035c-2.565-2.051-5.641-3.077-9.232-3.077C554.814-375.385,552.264-374.728,550.014-373.419z"/>
	<path d="M630-399.999v63.418h-7.863v-7.179c-1.824,2.508-4.132,4.417-6.923,5.727c-2.793,1.312-5.87,1.966-9.231,1.966
		c-4.388,0-8.32-0.969-11.795-2.906c-3.476-1.937-6.196-4.657-8.162-8.162c-1.965-3.504-2.948-7.535-2.948-12.093
		c0-4.558,0.983-8.575,2.948-12.052c1.966-3.475,4.687-6.181,8.162-8.119c3.476-1.937,7.407-2.906,11.795-2.906
		c3.248,0,6.239,0.613,8.974,1.837c2.735,1.226,5.014,3.034,6.838,5.427v-23.35L630-399.999z M614.445-345.256
		c2.335-1.338,4.158-3.219,5.47-5.641c1.31-2.421,1.966-5.199,1.966-8.333c0-3.133-0.656-5.911-1.966-8.334
		c-1.312-2.421-3.135-4.286-5.47-5.598c-2.337-1.31-4.929-1.966-7.778-1.966c-2.906,0-5.513,0.656-7.82,1.966
		c-2.308,1.312-4.132,3.177-5.47,5.598c-1.339,2.422-2.009,5.201-2.009,8.334c0,3.134,0.669,5.912,2.009,8.333
		c1.338,2.422,3.162,4.303,5.47,5.641c2.308,1.339,4.914,2.009,7.82,2.009C609.516-343.248,612.108-343.917,614.445-345.256z"/>
	<path d="M215.692-350.656c2.848-4.701,4.273-9.985,4.273-15.855c0-5.868-1.425-11.154-4.273-15.855
		c-2.85-4.701-6.752-8.389-11.709-11.068c-4.957-2.677-10.542-4.017-16.752-4.017c-6.212,0-11.81,1.34-16.795,4.017
		c-4.987,2.679-8.889,6.368-11.709,11.068c-2.82,4.701-4.23,9.987-4.23,15.855c0,5.87,1.41,11.154,4.23,15.855
		c2.821,4.701,6.723,8.391,11.709,11.068c4.985,2.679,10.583,4.017,16.795,4.017c6.21,0,11.795-1.338,16.752-4.017
		C208.939-342.265,212.842-345.955,215.692-350.656z M203.512-356.596c-1.624,2.906-3.861,5.171-6.709,6.795
		c-2.85,1.624-6.041,2.436-9.573,2.436c-3.534,0-6.724-0.812-9.573-2.436c-2.85-1.624-5.085-3.889-6.709-6.795
		c-1.624-2.906-2.436-6.21-2.436-9.915c0-3.703,0.812-7.008,2.436-9.914c1.624-2.906,3.86-5.171,6.709-6.795
		c2.849-1.624,6.039-2.436,9.573-2.436c3.532,0,6.722,0.812,9.573,2.436c2.849,1.624,5.086,3.889,6.709,6.795
		c1.624,2.906,2.436,6.212,2.436,9.914C205.948-362.806,205.136-359.502,203.512-356.596z"/>
</g>
<path opacity="0.8" fill="#FFFFFF" d="M3.888-199.921c0.339-0.052,0.664-0.065,1.003-0.078c18.812,0,37.612,0,56.411,0
	c0.743,0,1.485-0.026,2.202,0.182c1.394,0.391,2.58,1.433,3.114,2.775c0.508,1.225,0.469,2.671-0.104,3.869
	c-0.769,1.681-2.58,2.801-4.43,2.736c-19.06,0-38.133,0-57.193,0c-1.915,0.065-3.804-1.146-4.521-2.931
	c-0.495-1.186-0.495-2.58,0.026-3.765C1.009-198.566,2.364-199.634,3.888-199.921L3.888-199.921z"/>
<path opacity="0.6" fill="#FFFFFF" d="M3.771-185.538c0.456-0.104,0.925-0.104,1.381-0.117c9.028,0,18.07,0,27.098,0
	c0.73,0,1.472-0.026,2.189,0.104c1.537,0.313,2.892,1.407,3.478,2.879c0.495,1.173,0.482,2.553-0.039,3.726
	c-0.73,1.733-2.58,2.918-4.456,2.866c-9.341,0.013-18.669,0-28.01,0c-0.586,0-1.173,0-1.746-0.13
	c-1.394-0.339-2.619-1.316-3.218-2.619c-0.625-1.329-0.599-2.944,0.091-4.234C1.178-184.313,2.39-185.238,3.771-185.538z"/>
<path opacity="0.45" fill="#FFFFFF" d="M46.894-185.551c0.704-0.13,1.446-0.104,2.163-0.104c9.12,0,18.239,0,27.359,0
	c1.498-0.039,3.009,0.651,3.908,1.863c0.704,0.873,1.055,2.019,1.003,3.14c-0.052,1.694-1.107,3.335-2.658,4.065
	c-0.756,0.43-1.655,0.521-2.514,0.508c-9.419,0-18.838,0.013-28.271,0c-1.12,0.013-2.215-0.404-3.101-1.094
	c-1.159-0.977-1.837-2.514-1.72-4.026C43.181-183.284,44.835-185.173,46.894-185.551L46.894-185.551z"/>
<path opacity="0.7" fill="#FFFFFF" d="M3.901-171.22c0.365-0.052,0.743-0.065,1.12-0.078c12.637,0.013,25.274,0,37.911,0.013
	c1.212-0.052,2.423,0.417,3.335,1.225c1.029,0.938,1.642,2.332,1.576,3.739c-0.052,0.977-0.378,1.954-1.003,2.723
	c-0.899,1.212-2.41,1.902-3.908,1.876c-12.416,0-24.844-0.013-37.26,0c-0.704-0.013-1.42,0.026-2.098-0.156
	c-1.264-0.339-2.384-1.199-2.996-2.358c-0.677-1.225-0.756-2.736-0.235-4.026C0.905-169.787,2.312-170.92,3.901-171.22L3.901-171.22
	z"/>
<path opacity="0.3" fill="#FFFFFF" d="M56.534-171.22c0.547-0.078,1.094-0.078,1.642-0.078c2.957,0.013,5.902,0,8.859,0.013
	c1.876-0.026,3.674,1.212,4.364,2.944c0.508,1.212,0.482,2.632-0.065,3.83c-0.756,1.642-2.488,2.788-4.299,2.775
	c-3.257,0-6.514,0.013-9.771,0c-2.475-0.013-4.703-2.241-4.625-4.729C52.535-168.732,54.32-170.842,56.534-171.22z"/>
<path opacity="0.45" fill="#FFFFFF" d="M3.901-156.876c0.456-0.065,0.925-0.065,1.381-0.065c9.25-0.013,18.5,0,27.75,0
	c0.73-0.013,1.472,0.026,2.163,0.313c1.342,0.495,2.423,1.642,2.853,3.009c0.717,2.071-0.248,4.573-2.189,5.615
	c-0.73,0.43-1.576,0.638-2.423,0.638c-9.523,0-19.034,0-28.557,0c-0.938,0-1.889-0.261-2.671-0.769
	c-1.511-0.938-2.371-2.762-2.176-4.521C0.201-154.714,1.882-156.499,3.901-156.876z"/>
<path opacity="0.6" fill="#FFFFFF" d="M47.024-156.876c0.417-0.065,0.834-0.065,1.251-0.065c7.426-0.013,14.852,0,22.278-0.013
	c0.638,0.013,1.29-0.013,1.928,0.065c1.655,0.234,3.14,1.42,3.739,2.983c0.443,1.186,0.443,2.553-0.091,3.713
	c-0.743,1.707-2.54,2.827-4.39,2.827c-7.96,0-15.907,0-23.867,0c-1.003,0-1.98-0.326-2.814-0.899
	c-1.485-1.042-2.293-2.996-1.902-4.794C43.467-154.974,45.109-156.564,47.024-156.876L47.024-156.876z"/>
<path opacity="0.8" fill="#FFFFFF" d="M4.553-142.572c19.125-0.039,38.263-0.013,57.401-0.013c1.524-0.078,3.075,0.599,4,1.824
	c0.86,1.055,1.186,2.514,0.938,3.843c-0.261,1.459-1.251,2.775-2.593,3.4c-0.756,0.404-1.628,0.508-2.475,0.495
	c-18.5,0-36.999,0-55.499,0c-0.925-0.026-1.863,0.078-2.775-0.169c-1.498-0.378-2.775-1.55-3.27-3.022
	c-0.521-1.446-0.3-3.153,0.638-4.403C1.739-141.777,3.12-142.533,4.553-142.572z"/>
<g>
	<path fill="#FFFFFF" d="M153.186-147.333c-1.344-2.24-2.417-4.601-3.237-7.064l-0.068-0.063c-4.046,4.73-9.06,7.094-15.043,7.094
		c-3.704,0-7.008-0.812-9.914-2.436c-2.906-1.624-5.171-3.889-6.795-6.795c-1.624-2.906-2.436-6.21-2.436-9.915
		c0-3.703,0.812-7.008,2.436-9.914c1.624-2.906,3.889-5.171,6.795-6.795c2.906-1.624,6.21-2.436,9.914-2.436
		c5.983,0,10.996,2.337,15.043,7.008l0.105-0.097c0.815-2.42,1.879-4.741,3.201-6.945c0.851-1.419,1.788-2.765,2.807-4.037
		c-2.27-2.048-4.858-3.717-7.779-4.99c-4.188-1.823-8.876-2.735-14.06-2.735c-6.154,0-11.696,1.325-16.624,3.974
		c-4.929,2.65-8.804,6.325-11.624,11.026c-2.82,4.701-4.23,10.015-4.23,15.94c0,5.927,1.41,11.239,4.23,15.94
		c2.821,4.701,6.695,8.376,11.624,11.026c4.928,2.649,10.44,3.974,16.538,3.974c5.184,0,9.885-0.912,14.102-2.735
		c2.934-1.269,5.529-2.947,7.802-5.017C154.963-144.586,154.032-145.923,153.186-147.333z"/>
	<path fill="#FFFFFF" d="M272-199.999v63.418h-7.863v-7.179c-1.824,2.508-4.132,4.417-6.923,5.727
		c-2.793,1.312-5.87,1.966-9.231,1.966c-4.389,0-8.32-0.969-11.795-2.906c-3.476-1.937-6.196-4.657-8.162-8.162
		c-1.965-3.504-2.948-7.535-2.948-12.093c0-4.558,0.983-8.575,2.948-12.052c1.966-3.475,4.687-6.181,8.162-8.119
		c3.476-1.937,7.407-2.906,11.795-2.906c3.248,0,6.239,0.613,8.974,1.837c2.735,1.226,5.014,3.034,6.838,5.427v-23.35L272-199.999z
		 M256.445-145.256c2.335-1.338,4.158-3.219,5.47-5.641c1.31-2.421,1.966-5.199,1.966-8.333c0-3.133-0.656-5.911-1.966-8.334
		c-1.312-2.421-3.135-4.286-5.47-5.598c-2.337-1.31-4.929-1.966-7.778-1.966c-2.906,0-5.513,0.656-7.821,1.966
		c-2.308,1.312-4.132,3.177-5.47,5.598c-1.339,2.422-2.009,5.201-2.009,8.334c0,3.134,0.67,5.912,2.009,8.333
		c1.338,2.422,3.162,4.303,5.47,5.641c2.308,1.339,4.914,2.009,7.821,2.009C251.516-143.248,254.108-143.917,256.445-145.256z"/>
	<path fill="#FFFFFF" d="M315.93-148.718l4.444,5.299c-1.994,2.393-4.516,4.217-7.564,5.47c-3.048,1.254-6.453,1.881-10.214,1.881
		c-4.786,0-9.032-0.983-12.735-2.949c-3.705-1.966-6.568-4.714-8.59-8.248c-2.024-3.532-3.034-7.521-3.034-11.966
		c0-4.388,0.983-8.347,2.948-11.88c1.966-3.532,4.672-6.282,8.12-8.248c3.447-1.966,7.336-2.949,11.666-2.949
		c4.103,0,7.835,0.927,11.197,2.778c3.362,1.852,6.039,4.46,8.035,7.821c1.993,3.363,3.019,7.237,3.077,11.624l-35.983,7.009
		c1.139,3.135,3.063,5.555,5.769,7.265c2.706,1.709,5.968,2.565,9.787,2.565C308.266-143.248,312.625-145.071,315.93-148.718z
		 M293.324-173.419c-2.252,1.312-4.004,3.149-5.256,5.513c-1.255,2.366-1.881,5.115-1.881,8.249v0.854l28.974-5.47
		c-0.742-3.304-2.393-5.983-4.957-8.035c-2.565-2.051-5.641-3.077-9.232-3.077C298.123-175.385,295.574-174.728,293.324-173.419z"/>
	<path fill="#FFFFFF" d="M368.837-181.88l-19.829,45.299h-8.376l-19.155-43.759l7.873-1.54l15.556,36.325l15.145-34.605
		L368.837-181.88z"/>
	<path fill="#FFFFFF" d="M403.622-148.718l4.444,5.299c-1.994,2.393-4.516,4.217-7.564,5.47c-3.048,1.254-6.453,1.881-10.214,1.881
		c-4.786,0-9.032-0.983-12.735-2.949c-3.705-1.966-6.568-4.714-8.59-8.248c-2.024-3.532-3.034-7.521-3.034-11.966
		c0-4.388,0.983-8.347,2.948-11.88c1.966-3.532,4.672-6.282,8.12-8.248c3.447-1.966,7.336-2.949,11.666-2.949
		c4.103,0,7.835,0.927,11.197,2.778c3.362,1.852,6.039,4.46,8.035,7.821c1.993,3.363,3.019,7.237,3.077,11.624l-35.983,7.009
		c1.139,3.135,3.063,5.555,5.769,7.265c2.706,1.709,5.968,2.565,9.787,2.565C395.957-143.248,400.317-145.071,403.622-148.718z
		 M381.015-173.419c-2.252,1.312-4.004,3.149-5.256,5.513c-1.255,2.366-1.881,5.115-1.881,8.249v0.854l28.974-5.47
		c-0.742-3.304-2.393-5.983-4.957-8.035c-2.565-2.051-5.641-3.077-9.232-3.077C385.815-175.385,383.265-174.728,381.015-173.419z"/>
	<path fill="#FFFFFF" d="M420.887-139.701c-2.393-2.422-3.589-5.825-3.589-10.214v-48.478l8.205-1.607v49.401
		c0,2.451,0.583,4.331,1.752,5.641c1.167,1.311,2.919,1.965,5.256,1.965c1.423,0,2.763-0.284,4.017-0.854l0.427,6.752
		c-1.88,0.684-3.846,1.026-5.897,1.026C426.669-136.068,423.28-137.278,420.887-139.701z"/>
	<path fill="#FFFFFF" d="M446.015-139.06c-3.589-1.993-6.396-4.744-8.418-8.248c-2.024-3.505-3.034-7.479-3.034-11.923
		s1.01-8.419,3.034-11.923c2.022-3.504,4.829-6.239,8.418-8.205c3.59-1.966,7.635-2.949,12.137-2.949
		c4.5,0,8.533,0.983,12.093,2.949c3.561,1.966,6.354,4.701,8.376,8.205c2.022,3.504,3.034,7.479,3.034,11.923
		s-1.012,8.418-3.034,11.923c-2.023,3.504-4.816,6.254-8.376,8.248c-3.561,1.995-7.593,2.992-12.093,2.992
		C453.65-136.068,449.605-137.064,446.015-139.06z M465.973-145.256c2.308-1.338,4.116-3.219,5.427-5.641
		c1.31-2.421,1.966-5.199,1.966-8.333c0-3.133-0.656-5.911-1.966-8.334c-1.312-2.421-3.119-4.286-5.427-5.598
		c-2.308-1.31-4.914-1.966-7.821-1.966c-2.906,0-5.513,0.656-7.821,1.966c-2.308,1.312-4.132,3.177-5.47,5.598
		c-1.339,2.422-2.009,5.201-2.009,8.334c0,3.134,0.67,5.912,2.009,8.333c1.338,2.422,3.162,4.303,5.47,5.641
		c2.308,1.339,4.914,2.009,7.821,2.009C461.059-143.248,463.665-143.917,465.973-145.256z"/>
	<path fill="#FFFFFF" d="M520.798-179.401c3.475,1.938,6.196,4.644,8.162,8.119c1.965,3.477,2.948,7.494,2.948,12.052
		c0,4.559-0.983,8.589-2.948,12.093c-1.966,3.505-4.688,6.226-8.162,8.162c-3.477,1.938-7.409,2.906-11.795,2.906
		c-3.247,0-6.226-0.627-8.931-1.881c-2.708-1.253-5-3.077-6.88-5.47v21.813L484.986-120v-61.88h7.863v7.179
		c1.823-2.506,4.13-4.402,6.923-5.683c2.791-1.282,5.868-1.923,9.231-1.923C513.389-182.308,517.321-181.338,520.798-179.401z
		 M516.139-145.256c2.308-1.338,4.131-3.219,5.47-5.641c1.338-2.421,2.009-5.199,2.009-8.333c0-3.133-0.671-5.911-2.009-8.334
		c-1.339-2.421-3.162-4.286-5.47-5.598c-2.308-1.31-4.914-1.966-7.821-1.966c-2.85,0-5.427,0.671-7.735,2.009
		c-2.307,1.339-4.132,3.205-5.47,5.598c-1.339,2.393-2.009,5.158-2.009,8.291c0,3.134,0.654,5.912,1.966,8.333
		c1.311,2.422,3.133,4.303,5.47,5.641c2.336,1.339,4.928,2.009,7.778,2.009C511.225-143.248,513.831-143.917,516.139-145.256z"/>
	<path fill="#FFFFFF" d="M572.621-148.718l4.444,5.299c-1.994,2.393-4.516,4.217-7.564,5.47c-3.048,1.254-6.453,1.881-10.214,1.881
		c-4.786,0-9.032-0.983-12.735-2.949c-3.705-1.966-6.568-4.714-8.59-8.248c-2.024-3.532-3.034-7.521-3.034-11.966
		c0-4.388,0.983-8.347,2.948-11.88c1.966-3.532,4.672-6.282,8.12-8.248c3.447-1.966,7.336-2.949,11.666-2.949
		c4.103,0,7.835,0.927,11.197,2.778c3.362,1.852,6.039,4.46,8.035,7.821c1.993,3.363,3.019,7.237,3.077,11.624l-35.983,7.009
		c1.139,3.135,3.063,5.555,5.769,7.265c2.706,1.709,5.968,2.565,9.787,2.565C564.956-143.248,569.316-145.071,572.621-148.718z
		 M550.014-173.419c-2.252,1.312-4.004,3.149-5.256,5.513c-1.255,2.366-1.881,5.115-1.881,8.249v0.854l28.974-5.47
		c-0.742-3.304-2.393-5.983-4.957-8.035c-2.565-2.051-5.641-3.077-9.232-3.077C554.814-175.385,552.264-174.728,550.014-173.419z"/>
	<path fill="#FFFFFF" d="M630-199.999v63.418h-7.863v-7.179c-1.824,2.508-4.132,4.417-6.923,5.727
		c-2.793,1.312-5.87,1.966-9.231,1.966c-4.388,0-8.32-0.969-11.795-2.906c-3.476-1.937-6.196-4.657-8.162-8.162
		c-1.965-3.504-2.948-7.535-2.948-12.093c0-4.558,0.983-8.575,2.948-12.052c1.966-3.475,4.687-6.181,8.162-8.119
		c3.476-1.937,7.407-2.906,11.795-2.906c3.248,0,6.239,0.613,8.974,1.837c2.735,1.226,5.014,3.034,6.838,5.427v-23.35L630-199.999z
		 M614.445-145.256c2.335-1.338,4.158-3.219,5.47-5.641c1.31-2.421,1.966-5.199,1.966-8.333c0-3.133-0.656-5.911-1.966-8.334
		c-1.312-2.421-3.135-4.286-5.47-5.598c-2.337-1.31-4.929-1.966-7.778-1.966c-2.906,0-5.513,0.656-7.82,1.966
		c-2.308,1.312-4.132,3.177-5.47,5.598c-1.339,2.422-2.009,5.201-2.009,8.334c0,3.134,0.669,5.912,2.009,8.333
		c1.338,2.422,3.162,4.303,5.47,5.641c2.308,1.339,4.914,2.009,7.82,2.009C609.516-143.248,612.108-143.917,614.445-145.256z"/>
	<path fill="#FFFFFF" d="M215.692-150.656c2.848-4.701,4.273-9.985,4.273-15.855c0-5.868-1.425-11.154-4.273-15.855
		c-2.85-4.701-6.752-8.389-11.709-11.068c-4.957-2.677-10.542-4.017-16.752-4.017c-6.212,0-11.81,1.34-16.795,4.017
		c-4.987,2.679-8.889,6.368-11.709,11.068c-2.82,4.701-4.23,9.987-4.23,15.855c0,5.87,1.41,11.154,4.23,15.855
		c2.821,4.701,6.723,8.391,11.709,11.068c4.985,2.679,10.583,4.017,16.795,4.017c6.21,0,11.795-1.338,16.752-4.017
		C208.939-142.265,212.842-145.955,215.692-150.656z M203.512-156.596c-1.624,2.906-3.861,5.171-6.709,6.795
		c-2.85,1.624-6.041,2.436-9.573,2.436c-3.534,0-6.724-0.812-9.573-2.436c-2.85-1.624-5.085-3.889-6.709-6.795
		c-1.624-2.906-2.436-6.21-2.436-9.915c0-3.703,0.812-7.008,2.436-9.914c1.624-2.906,3.86-5.171,6.709-6.795
		c2.849-1.624,6.039-2.436,9.573-2.436c3.532,0,6.722,0.812,9.573,2.436c2.849,1.624,5.086,3.889,6.709,6.795
		c1.624,2.906,2.436,6.212,2.436,9.914C205.948-162.806,205.136-159.502,203.512-156.596z"/>
</g>
<path d="M3.888-299.921c0.339-0.052,0.664-0.065,1.003-0.078c18.812,0,37.612,0,56.411,0c0.743,0,1.485-0.026,2.202,0.182
	c1.394,0.391,2.58,1.433,3.114,2.775c0.508,1.225,0.469,2.671-0.104,3.869c-0.769,1.681-2.58,2.801-4.43,2.736
	c-19.06,0-38.133,0-57.193,0c-1.915,0.065-3.804-1.146-4.521-2.931c-0.495-1.186-0.495-2.58,0.026-3.765
	C1.009-298.566,2.364-299.634,3.888-299.921L3.888-299.921z"/>
<path d="M3.771-285.538c0.456-0.104,0.925-0.104,1.381-0.117c9.028,0,18.07,0,27.098,0c0.73,0,1.472-0.026,2.189,0.104
	c1.537,0.313,2.892,1.407,3.478,2.879c0.495,1.173,0.482,2.553-0.039,3.726c-0.73,1.733-2.58,2.918-4.456,2.866
	c-9.341,0.013-18.669,0-28.01,0c-0.586,0-1.173,0-1.746-0.13c-1.394-0.339-2.619-1.316-3.218-2.619
	c-0.625-1.329-0.599-2.944,0.091-4.234C1.178-284.313,2.39-285.238,3.771-285.538z"/>
<path d="M46.894-285.551c0.704-0.13,1.446-0.104,2.163-0.104c9.12,0,18.239,0,27.359,0c1.498-0.039,3.009,0.651,3.908,1.863
	c0.704,0.873,1.055,2.019,1.003,3.14c-0.052,1.694-1.107,3.335-2.658,4.065c-0.756,0.43-1.655,0.521-2.514,0.508
	c-9.419,0-18.838,0.013-28.271,0c-1.12,0.013-2.215-0.404-3.101-1.094c-1.159-0.977-1.837-2.514-1.72-4.026
	C43.181-283.284,44.835-285.173,46.894-285.551L46.894-285.551z"/>
<path d="M3.901-271.22c0.365-0.052,0.743-0.065,1.12-0.078c12.637,0.013,25.274,0,37.911,0.013c1.212-0.052,2.423,0.417,3.335,1.225
	c1.029,0.938,1.642,2.332,1.576,3.739c-0.052,0.977-0.378,1.954-1.003,2.723c-0.899,1.212-2.41,1.902-3.908,1.876
	c-12.416,0-24.844-0.013-37.26,0c-0.704-0.013-1.42,0.026-2.098-0.156c-1.264-0.339-2.384-1.199-2.996-2.358
	c-0.677-1.225-0.756-2.736-0.235-4.026C0.905-269.787,2.312-270.921,3.901-271.22L3.901-271.22z"/>
<path d="M56.534-271.22c0.547-0.078,1.094-0.078,1.642-0.078c2.957,0.013,5.902,0,8.859,0.013c1.876-0.026,3.674,1.212,4.364,2.944
	c0.508,1.212,0.482,2.632-0.065,3.83c-0.756,1.642-2.488,2.788-4.299,2.775c-3.257,0-6.514,0.013-9.771,0
	c-2.475-0.013-4.703-2.241-4.625-4.729C52.535-268.732,54.32-270.842,56.534-271.22z"/>
<path d="M3.901-256.876c0.456-0.065,0.925-0.065,1.381-0.065c9.25-0.013,18.5,0,27.75,0c0.73-0.013,1.472,0.026,2.163,0.313
	c1.342,0.495,2.423,1.642,2.853,3.009c0.717,2.071-0.248,4.573-2.189,5.615c-0.73,0.43-1.576,0.638-2.423,0.638
	c-9.523,0-19.034,0-28.557,0c-0.938,0-1.889-0.261-2.671-0.769c-1.511-0.938-2.371-2.762-2.176-4.521
	C0.201-254.714,1.882-256.499,3.901-256.876z"/>
<path d="M47.024-256.876c0.417-0.065,0.834-0.065,1.251-0.065c7.426-0.013,14.852,0,22.278-0.013
	c0.638,0.013,1.29-0.013,1.928,0.065c1.655,0.234,3.14,1.42,3.739,2.983c0.443,1.186,0.443,2.553-0.091,3.713
	c-0.743,1.707-2.54,2.827-4.39,2.827c-7.96,0-15.907,0-23.867,0c-1.003,0-1.98-0.326-2.814-0.899
	c-1.485-1.042-2.293-2.996-1.902-4.794C43.467-254.974,45.109-256.564,47.024-256.876L47.024-256.876z"/>
<path d="M4.553-242.572c19.125-0.039,38.263-0.013,57.401-0.013c1.524-0.078,3.075,0.599,4,1.824
	c0.86,1.055,1.186,2.514,0.938,3.843c-0.261,1.459-1.251,2.775-2.593,3.4c-0.756,0.404-1.628,0.508-2.475,0.495
	c-18.5,0-36.999,0-55.499,0c-0.925-0.026-1.863,0.078-2.775-0.169c-1.498-0.378-2.775-1.55-3.27-3.022
	c-0.521-1.446-0.3-3.153,0.638-4.403C1.739-241.777,3.12-242.533,4.553-242.572z"/>
<g>
	<path d="M153.186-247.333c-1.344-2.24-2.417-4.601-3.237-7.064l-0.068-0.063c-4.046,4.73-9.06,7.094-15.043,7.094
		c-3.704,0-7.008-0.812-9.914-2.436c-2.906-1.624-5.171-3.889-6.795-6.795c-1.624-2.906-2.436-6.21-2.436-9.915
		c0-3.703,0.812-7.008,2.436-9.914c1.624-2.906,3.889-5.171,6.795-6.795c2.906-1.624,6.21-2.436,9.914-2.436
		c5.983,0,10.996,2.337,15.043,7.008l0.105-0.097c0.815-2.42,1.879-4.741,3.201-6.945c0.851-1.419,1.788-2.765,2.807-4.036
		c-2.27-2.048-4.858-3.717-7.779-4.99c-4.188-1.823-8.876-2.735-14.06-2.735c-6.154,0-11.696,1.325-16.624,3.974
		c-4.929,2.65-8.804,6.325-11.624,11.026c-2.82,4.701-4.23,10.015-4.23,15.94c0,5.927,1.41,11.239,4.23,15.94
		c2.821,4.701,6.695,8.376,11.624,11.026c4.928,2.649,10.44,3.974,16.538,3.974c5.184,0,9.885-0.912,14.102-2.735
		c2.934-1.269,5.529-2.947,7.802-5.017C154.963-244.586,154.032-245.923,153.186-247.333z"/>
	<path d="M272-299.999v63.418h-7.863v-7.179c-1.824,2.508-4.132,4.417-6.923,5.727c-2.793,1.312-5.87,1.966-9.231,1.966
		c-4.389,0-8.32-0.969-11.795-2.906c-3.476-1.937-6.196-4.657-8.162-8.162c-1.965-3.504-2.948-7.535-2.948-12.093
		c0-4.558,0.983-8.575,2.948-12.052c1.966-3.475,4.687-6.181,8.162-8.119c3.476-1.937,7.407-2.906,11.795-2.906
		c3.248,0,6.239,0.613,8.974,1.837c2.735,1.226,5.014,3.034,6.838,5.427v-23.35L272-299.999z M256.445-245.256
		c2.335-1.338,4.158-3.219,5.47-5.641c1.31-2.421,1.966-5.199,1.966-8.333c0-3.133-0.656-5.911-1.966-8.334
		c-1.312-2.421-3.135-4.286-5.47-5.598c-2.337-1.31-4.929-1.966-7.778-1.966c-2.906,0-5.513,0.656-7.821,1.966
		c-2.308,1.312-4.132,3.177-5.47,5.598c-1.339,2.422-2.009,5.201-2.009,8.334c0,3.134,0.67,5.912,2.009,8.333
		c1.338,2.422,3.162,4.303,5.47,5.641c2.308,1.339,4.914,2.009,7.821,2.009C251.516-243.248,254.108-243.917,256.445-245.256z"/>
	<path d="M315.93-248.718l4.444,5.299c-1.994,2.393-4.516,4.217-7.564,5.47c-3.048,1.254-6.453,1.881-10.214,1.881
		c-4.786,0-9.032-0.983-12.735-2.949c-3.705-1.966-6.568-4.714-8.59-8.248c-2.024-3.532-3.034-7.521-3.034-11.966
		c0-4.388,0.983-8.347,2.948-11.88c1.966-3.532,4.672-6.282,8.12-8.248c3.447-1.966,7.336-2.949,11.666-2.949
		c4.103,0,7.835,0.927,11.197,2.778c3.362,1.852,6.039,4.46,8.035,7.82c1.993,3.363,3.019,7.237,3.077,11.624l-35.983,7.009
		c1.139,3.135,3.063,5.555,5.769,7.265c2.706,1.709,5.968,2.565,9.787,2.565C308.266-243.248,312.625-245.071,315.93-248.718z
		 M293.324-273.419c-2.252,1.312-4.004,3.149-5.256,5.513c-1.255,2.366-1.881,5.115-1.881,8.249v0.854l28.974-5.47
		c-0.742-3.304-2.393-5.983-4.957-8.035c-2.565-2.051-5.641-3.077-9.232-3.077C298.123-275.385,295.574-274.728,293.324-273.419z"/>
	<path d="M368.837-281.88l-19.829,45.299h-8.376l-19.155-43.759l7.873-1.54l15.556,36.325l15.145-34.605L368.837-281.88z"/>
	<path d="M403.622-248.718l4.444,5.299c-1.994,2.393-4.516,4.217-7.564,5.47c-3.048,1.254-6.453,1.881-10.214,1.881
		c-4.786,0-9.032-0.983-12.735-2.949c-3.705-1.966-6.568-4.714-8.59-8.248c-2.024-3.532-3.034-7.521-3.034-11.966
		c0-4.388,0.983-8.347,2.948-11.88c1.966-3.532,4.672-6.282,8.12-8.248c3.447-1.966,7.336-2.949,11.666-2.949
		c4.103,0,7.835,0.927,11.197,2.778c3.362,1.852,6.039,4.46,8.035,7.82c1.993,3.363,3.019,7.237,3.077,11.624l-35.983,7.009
		c1.139,3.135,3.063,5.555,5.769,7.265c2.706,1.709,5.968,2.565,9.787,2.565C395.957-243.248,400.317-245.071,403.622-248.718z
		 M381.015-273.419c-2.252,1.312-4.004,3.149-5.256,5.513c-1.255,2.366-1.881,5.115-1.881,8.249v0.854l28.974-5.47
		c-0.742-3.304-2.393-5.983-4.957-8.035c-2.565-2.051-5.641-3.077-9.232-3.077C385.815-275.385,383.265-274.728,381.015-273.419z"/>
	<path d="M420.887-239.701c-2.393-2.422-3.589-5.825-3.589-10.214v-48.478l8.205-1.607v49.401c0,2.451,0.583,4.331,1.752,5.641
		c1.167,1.311,2.919,1.965,5.256,1.965c1.423,0,2.763-0.284,4.017-0.854l0.427,6.752c-1.88,0.684-3.846,1.026-5.897,1.026
		C426.669-236.068,423.28-237.278,420.887-239.701z"/>
	<path d="M446.015-239.06c-3.589-1.993-6.396-4.744-8.418-8.248c-2.024-3.505-3.034-7.479-3.034-11.923
		c0-4.444,1.01-8.419,3.034-11.923c2.022-3.504,4.829-6.239,8.418-8.205c3.59-1.966,7.635-2.949,12.137-2.949
		c4.5,0,8.533,0.983,12.093,2.949c3.561,1.966,6.354,4.701,8.376,8.205c2.022,3.504,3.034,7.479,3.034,11.923
		c0,4.444-1.012,8.418-3.034,11.923c-2.023,3.504-4.816,6.254-8.376,8.248c-3.561,1.995-7.593,2.992-12.093,2.992
		C453.65-236.068,449.605-237.064,446.015-239.06z M465.973-245.256c2.308-1.338,4.116-3.219,5.427-5.641
		c1.31-2.421,1.966-5.199,1.966-8.333c0-3.133-0.656-5.911-1.966-8.334c-1.312-2.421-3.119-4.286-5.427-5.598
		c-2.308-1.31-4.914-1.966-7.821-1.966c-2.906,0-5.513,0.656-7.821,1.966c-2.308,1.312-4.132,3.177-5.47,5.598
		c-1.339,2.422-2.009,5.201-2.009,8.334c0,3.134,0.67,5.912,2.009,8.333c1.338,2.422,3.162,4.303,5.47,5.641
		c2.308,1.339,4.914,2.009,7.821,2.009C461.059-243.248,463.665-243.917,465.973-245.256z"/>
	<path d="M520.798-279.401c3.475,1.938,6.196,4.644,8.162,8.119c1.965,3.477,2.948,7.494,2.948,12.052
		c0,4.559-0.983,8.589-2.948,12.093c-1.966,3.505-4.688,6.226-8.162,8.162c-3.477,1.938-7.409,2.906-11.795,2.906
		c-3.247,0-6.226-0.627-8.931-1.881c-2.708-1.253-5-3.077-6.88-5.47v21.813L484.986-220v-61.88h7.863v7.179
		c1.823-2.506,4.13-4.402,6.923-5.683c2.791-1.282,5.868-1.923,9.231-1.923C513.389-282.308,517.321-281.338,520.798-279.401z
		 M516.139-245.256c2.308-1.338,4.131-3.219,5.47-5.641c1.338-2.421,2.009-5.199,2.009-8.333c0-3.133-0.671-5.911-2.009-8.334
		c-1.339-2.421-3.162-4.286-5.47-5.598c-2.308-1.31-4.914-1.966-7.821-1.966c-2.85,0-5.427,0.67-7.735,2.009
		c-2.307,1.339-4.132,3.205-5.47,5.598c-1.339,2.393-2.009,5.158-2.009,8.291c0,3.134,0.654,5.912,1.966,8.333
		c1.311,2.422,3.133,4.303,5.47,5.641c2.336,1.339,4.928,2.009,7.778,2.009C511.225-243.248,513.831-243.917,516.139-245.256z"/>
	<path d="M572.621-248.718l4.444,5.299c-1.994,2.393-4.516,4.217-7.564,5.47c-3.048,1.254-6.453,1.881-10.214,1.881
		c-4.786,0-9.032-0.983-12.735-2.949c-3.705-1.966-6.568-4.714-8.59-8.248c-2.024-3.532-3.034-7.521-3.034-11.966
		c0-4.388,0.983-8.347,2.948-11.88c1.966-3.532,4.672-6.282,8.12-8.248c3.447-1.966,7.336-2.949,11.666-2.949
		c4.103,0,7.835,0.927,11.197,2.778c3.362,1.852,6.039,4.46,8.035,7.82c1.993,3.363,3.019,7.237,3.077,11.624l-35.983,7.009
		c1.139,3.135,3.063,5.555,5.769,7.265c2.706,1.709,5.968,2.565,9.787,2.565C564.956-243.248,569.316-245.071,572.621-248.718z
		 M550.014-273.419c-2.252,1.312-4.004,3.149-5.256,5.513c-1.255,2.366-1.881,5.115-1.881,8.249v0.854l28.974-5.47
		c-0.742-3.304-2.393-5.983-4.957-8.035c-2.565-2.051-5.641-3.077-9.232-3.077C554.814-275.385,552.264-274.728,550.014-273.419z"/>
	<path d="M630-299.999v63.418h-7.863v-7.179c-1.824,2.508-4.132,4.417-6.923,5.727c-2.793,1.312-5.87,1.966-9.231,1.966
		c-4.388,0-8.32-0.969-11.795-2.906c-3.476-1.937-6.196-4.657-8.162-8.162c-1.965-3.504-2.948-7.535-2.948-12.093
		c0-4.558,0.983-8.575,2.948-12.052c1.966-3.475,4.687-6.181,8.162-8.119c3.476-1.937,7.407-2.906,11.795-2.906
		c3.248,0,6.239,0.613,8.974,1.837c2.735,1.226,5.014,3.034,6.838,5.427v-23.35L630-299.999z M614.445-245.256
		c2.335-1.338,4.158-3.219,5.47-5.641c1.31-2.421,1.966-5.199,1.966-8.333c0-3.133-0.656-5.911-1.966-8.334
		c-1.312-2.421-3.135-4.286-5.47-5.598c-2.337-1.31-4.929-1.966-7.778-1.966c-2.906,0-5.513,0.656-7.82,1.966
		c-2.308,1.312-4.132,3.177-5.47,5.598c-1.339,2.422-2.009,5.201-2.009,8.334c0,3.134,0.669,5.912,2.009,8.333
		c1.338,2.422,3.162,4.303,5.47,5.641c2.308,1.339,4.914,2.009,7.82,2.009C609.516-243.248,612.108-243.917,614.445-245.256z"/>
	<path d="M215.692-250.656c2.848-4.701,4.273-9.985,4.273-15.855c0-5.868-1.425-11.154-4.273-15.855
		c-2.85-4.701-6.752-8.389-11.709-11.068c-4.957-2.677-10.542-4.017-16.752-4.017c-6.212,0-11.81,1.34-16.795,4.017
		c-4.987,2.679-8.889,6.368-11.709,11.068c-2.82,4.701-4.23,9.987-4.23,15.855c0,5.87,1.41,11.154,4.23,15.855
		c2.821,4.701,6.723,8.391,11.709,11.068c4.985,2.679,10.583,4.017,16.795,4.017c6.21,0,11.795-1.338,16.752-4.017
		C208.939-242.265,212.842-245.955,215.692-250.656z M203.512-256.596c-1.624,2.906-3.861,5.171-6.709,6.795
		c-2.85,1.624-6.041,2.436-9.573,2.436c-3.534,0-6.724-0.812-9.573-2.436c-2.85-1.624-5.085-3.889-6.709-6.795
		c-1.624-2.906-2.436-6.21-2.436-9.915c0-3.703,0.812-7.008,2.436-9.914c1.624-2.906,3.86-5.171,6.709-6.795
		c2.849-1.624,6.039-2.436,9.573-2.436c3.532,0,6.722,0.812,9.573,2.436c2.849,1.624,5.086,3.889,6.709,6.795
		c1.624,2.906,2.436,6.212,2.436,9.914C205.948-262.806,205.136-259.502,203.512-256.596z"/>
</g>
<text transform="matrix(1 0 0 1 -37 -590.4337)" fill="#FFFFFF" font-family="'MyriadPro-Regular'" font-size="12">color</text>
<text transform="matrix(1 0 0 1 -37 -490.4338)" fill="#FFFFFF" font-family="'MyriadPro-Regular'" font-size="12">mono</text>
<text transform="matrix(1 0 0 1 -55 -390.4335)" fill="#FFFFFF" font-family="'MyriadPro-Regular'" font-size="12">grayscale</text>
<text transform="matrix(1 0 0 1 -64.3333 -285.6572)" fill="#FFFFFF" font-family="'MyriadPro-Regular'" font-size="12">black/white</text>
<text transform="matrix(1 0 0 1 -53.8232 -185.6572)"><tspan x="0" y="0" fill="#FFFFFF" font-family="'MyriadPro-Regular'" font-size="12">grayscale</tspan><tspan x="31.583" y="14.4" fill="#FFFFFF" font-family="'MyriadPro-Regular'" font-size="12">inv</tspan></text>
<path fill="#FFFFFF" d="M3.888-99.921c0.339-0.052,0.664-0.065,1.003-0.078c18.812,0,37.612,0,56.411,0
	c0.743,0,1.485-0.026,2.202,0.182c1.394,0.391,2.58,1.433,3.114,2.775c0.508,1.225,0.469,2.671-0.104,3.869
	c-0.769,1.681-2.58,2.801-4.43,2.736c-19.06,0-38.133,0-57.193,0c-1.915,0.065-3.804-1.146-4.521-2.931
	c-0.495-1.186-0.495-2.58,0.026-3.765C1.009-98.566,2.364-99.634,3.888-99.921L3.888-99.921z"/>
<path fill="#FFFFFF" d="M3.771-85.538c0.456-0.104,0.925-0.104,1.381-0.117c9.028,0,18.07,0,27.098,0
	c0.73,0,1.472-0.026,2.189,0.104c1.537,0.313,2.892,1.407,3.478,2.879c0.495,1.173,0.482,2.553-0.039,3.726
	c-0.73,1.733-2.58,2.918-4.456,2.866c-9.341,0.013-18.669,0-28.01,0c-0.586,0-1.173,0-1.746-0.13
	c-1.394-0.339-2.619-1.316-3.218-2.619c-0.625-1.329-0.599-2.944,0.091-4.234C1.178-84.313,2.39-85.238,3.771-85.538z"/>
<path fill="#FFFFFF" d="M46.894-85.551c0.704-0.13,1.446-0.104,2.163-0.104c9.12,0,18.239,0,27.359,0
	c1.498-0.039,3.009,0.651,3.908,1.863c0.704,0.873,1.055,2.019,1.003,3.14c-0.052,1.694-1.107,3.335-2.658,4.065
	c-0.756,0.43-1.655,0.521-2.514,0.508c-9.419,0-18.838,0.013-28.271,0c-1.12,0.013-2.215-0.404-3.101-1.094
	c-1.159-0.977-1.837-2.514-1.72-4.026C43.181-83.284,44.835-85.173,46.894-85.551L46.894-85.551z"/>
<path fill="#FFFFFF" d="M3.901-71.22c0.365-0.052,0.743-0.065,1.12-0.078c12.637,0.013,25.274,0,37.911,0.013
	c1.212-0.052,2.423,0.417,3.335,1.225c1.029,0.938,1.642,2.332,1.576,3.739c-0.052,0.977-0.378,1.954-1.003,2.723
	c-0.899,1.212-2.41,1.902-3.908,1.876c-12.416,0-24.844-0.013-37.26,0c-0.704-0.013-1.42,0.026-2.098-0.156
	c-1.264-0.339-2.384-1.199-2.996-2.358c-0.677-1.225-0.756-2.736-0.235-4.026C0.905-69.787,2.312-70.92,3.901-71.22L3.901-71.22z"/>
<path fill="#FFFFFF" d="M56.534-71.22c0.547-0.078,1.094-0.078,1.642-0.078c2.957,0.013,5.902,0,8.859,0.013
	c1.876-0.026,3.674,1.212,4.364,2.944c0.508,1.212,0.482,2.632-0.065,3.83c-0.756,1.642-2.488,2.788-4.299,2.775
	c-3.257,0-6.514,0.013-9.771,0c-2.475-0.013-4.703-2.241-4.625-4.729C52.535-68.732,54.32-70.842,56.534-71.22z"/>
<path fill="#FFFFFF" d="M3.901-56.876c0.456-0.065,0.925-0.065,1.381-0.065c9.25-0.013,18.5,0,27.75,0
	c0.73-0.013,1.472,0.026,2.163,0.313c1.342,0.495,2.423,1.642,2.853,3.009c0.717,2.071-0.248,4.573-2.189,5.615
	c-0.73,0.43-1.576,0.638-2.423,0.638c-9.523,0-19.034,0-28.557,0c-0.938,0-1.889-0.261-2.671-0.769
	c-1.511-0.938-2.371-2.762-2.176-4.521C0.201-54.714,1.882-56.499,3.901-56.876z"/>
<path fill="#FFFFFF" d="M47.024-56.876c0.417-0.065,0.834-0.065,1.251-0.065c7.426-0.013,14.852,0,22.278-0.013
	c0.638,0.013,1.29-0.013,1.928,0.065c1.655,0.235,3.14,1.42,3.739,2.983c0.443,1.186,0.443,2.553-0.091,3.713
	c-0.743,1.707-2.54,2.827-4.39,2.827c-7.96,0-15.907,0-23.867,0c-1.003,0-1.98-0.326-2.814-0.899
	c-1.485-1.042-2.293-2.996-1.902-4.794C43.467-54.974,45.109-56.564,47.024-56.876L47.024-56.876z"/>
<path fill="#FFFFFF" d="M4.553-42.572c19.125-0.039,38.263-0.013,57.401-0.013c1.524-0.078,3.075,0.599,4,1.824
	c0.86,1.055,1.186,2.514,0.938,3.843c-0.261,1.459-1.251,2.775-2.593,3.4c-0.756,0.404-1.628,0.508-2.475,0.495
	c-18.5,0-36.999,0-55.499,0c-0.925-0.026-1.863,0.078-2.775-0.169c-1.498-0.378-2.775-1.55-3.27-3.022
	c-0.521-1.446-0.3-3.153,0.638-4.403C1.739-41.777,3.12-42.533,4.553-42.572z"/>
<g>
	<path fill="#FFFFFF" d="M153.186-47.333c-1.344-2.24-2.417-4.601-3.237-7.064l-0.068-0.063c-4.046,4.73-9.06,7.094-15.043,7.094
		c-3.704,0-7.008-0.812-9.914-2.436c-2.906-1.624-5.171-3.889-6.795-6.795c-1.624-2.906-2.436-6.21-2.436-9.915
		c0-3.703,0.812-7.008,2.436-9.914c1.624-2.906,3.889-5.171,6.795-6.795c2.906-1.624,6.21-2.436,9.914-2.436
		c5.983,0,10.996,2.337,15.043,7.008l0.105-0.097c0.815-2.42,1.879-4.741,3.201-6.945c0.851-1.419,1.788-2.765,2.807-4.037
		c-2.27-2.048-4.858-3.717-7.779-4.99c-4.188-1.823-8.876-2.735-14.06-2.735c-6.154,0-11.696,1.325-16.624,3.974
		c-4.929,2.65-8.804,6.325-11.624,11.026c-2.82,4.701-4.23,10.015-4.23,15.94c0,5.927,1.41,11.239,4.23,15.94
		c2.821,4.701,6.695,8.376,11.624,11.026c4.928,2.649,10.44,3.974,16.538,3.974c5.184,0,9.885-0.912,14.102-2.735
		c2.934-1.269,5.529-2.947,7.802-5.017C154.963-44.586,154.032-45.923,153.186-47.333z"/>
	<path fill="#FFFFFF" d="M272-99.999v63.418h-7.863v-7.179c-1.824,2.508-4.132,4.417-6.923,5.727
		c-2.793,1.312-5.87,1.966-9.231,1.966c-4.389,0-8.32-0.969-11.795-2.906c-3.476-1.937-6.196-4.657-8.162-8.162
		c-1.965-3.504-2.948-7.535-2.948-12.093c0-4.558,0.983-8.575,2.948-12.052c1.966-3.475,4.687-6.181,8.162-8.119
		c3.476-1.937,7.407-2.906,11.795-2.906c3.248,0,6.239,0.613,8.974,1.837c2.735,1.226,5.014,3.034,6.838,5.427v-23.35L272-99.999z
		 M256.445-45.256c2.335-1.338,4.158-3.219,5.47-5.641c1.31-2.421,1.966-5.199,1.966-8.333c0-3.133-0.656-5.911-1.966-8.334
		c-1.312-2.421-3.135-4.286-5.47-5.598c-2.337-1.31-4.929-1.966-7.778-1.966c-2.906,0-5.513,0.656-7.821,1.966
		c-2.308,1.312-4.132,3.177-5.47,5.598c-1.339,2.422-2.009,5.201-2.009,8.334c0,3.134,0.67,5.912,2.009,8.333
		c1.338,2.422,3.162,4.303,5.47,5.641c2.308,1.339,4.914,2.009,7.821,2.009C251.516-43.248,254.108-43.917,256.445-45.256z"/>
	<path fill="#FFFFFF" d="M315.93-48.718l4.444,5.299c-1.994,2.393-4.516,4.217-7.564,5.47c-3.048,1.254-6.453,1.881-10.214,1.881
		c-4.786,0-9.032-0.983-12.735-2.949c-3.705-1.966-6.568-4.714-8.59-8.248c-2.024-3.532-3.034-7.521-3.034-11.966
		c0-4.388,0.983-8.347,2.948-11.88c1.966-3.532,4.672-6.282,8.12-8.248c3.447-1.966,7.336-2.949,11.666-2.949
		c4.103,0,7.835,0.927,11.197,2.778c3.362,1.852,6.039,4.46,8.035,7.821c1.993,3.363,3.019,7.237,3.077,11.624l-35.983,7.009
		c1.139,3.135,3.063,5.555,5.769,7.265c2.706,1.709,5.968,2.565,9.787,2.565C308.266-43.248,312.625-45.071,315.93-48.718z
		 M293.324-73.419c-2.252,1.312-4.004,3.149-5.256,5.513c-1.255,2.366-1.881,5.115-1.881,8.249v0.854l28.974-5.47
		c-0.742-3.304-2.393-5.983-4.957-8.035c-2.565-2.051-5.641-3.077-9.232-3.077C298.123-75.385,295.574-74.728,293.324-73.419z"/>
	<path fill="#FFFFFF" d="M368.837-81.88l-19.829,45.299h-8.376l-19.155-43.759l7.873-1.54l15.556,36.325L360.05-80.16L368.837-81.88
		z"/>
	<path fill="#FFFFFF" d="M403.622-48.718l4.444,5.299c-1.994,2.393-4.516,4.217-7.564,5.47c-3.048,1.254-6.453,1.881-10.214,1.881
		c-4.786,0-9.032-0.983-12.735-2.949c-3.705-1.966-6.568-4.714-8.59-8.248c-2.024-3.532-3.034-7.521-3.034-11.966
		c0-4.388,0.983-8.347,2.948-11.88c1.966-3.532,4.672-6.282,8.12-8.248c3.447-1.966,7.336-2.949,11.666-2.949
		c4.103,0,7.835,0.927,11.197,2.778c3.362,1.852,6.039,4.46,8.035,7.821c1.993,3.363,3.019,7.237,3.077,11.624l-35.983,7.009
		c1.139,3.135,3.063,5.555,5.769,7.265c2.706,1.709,5.968,2.565,9.787,2.565C395.957-43.248,400.317-45.071,403.622-48.718z
		 M381.015-73.419c-2.252,1.312-4.004,3.149-5.256,5.513c-1.255,2.366-1.881,5.115-1.881,8.249v0.854l28.974-5.47
		c-0.742-3.304-2.393-5.983-4.957-8.035c-2.565-2.051-5.641-3.077-9.232-3.077C385.815-75.385,383.265-74.728,381.015-73.419z"/>
	<path fill="#FFFFFF" d="M420.887-39.701c-2.393-2.422-3.589-5.825-3.589-10.214v-48.478l8.205-1.607v49.401
		c0,2.451,0.583,4.331,1.752,5.641c1.167,1.311,2.919,1.965,5.256,1.965c1.423,0,2.763-0.284,4.017-0.854l0.427,6.752
		c-1.88,0.684-3.846,1.026-5.897,1.026C426.669-36.068,423.28-37.278,420.887-39.701z"/>
	<path fill="#FFFFFF" d="M446.015-39.06c-3.589-1.993-6.396-4.744-8.418-8.248c-2.024-3.505-3.034-7.479-3.034-11.923
		s1.01-8.419,3.034-11.923c2.022-3.504,4.829-6.239,8.418-8.205c3.59-1.966,7.635-2.949,12.137-2.949
		c4.5,0,8.533,0.983,12.093,2.949c3.561,1.966,6.354,4.701,8.376,8.205c2.022,3.504,3.034,7.479,3.034,11.923
		s-1.012,8.418-3.034,11.923c-2.023,3.504-4.816,6.254-8.376,8.248c-3.561,1.995-7.593,2.992-12.093,2.992
		C453.65-36.068,449.605-37.064,446.015-39.06z M465.973-45.256c2.308-1.338,4.116-3.219,5.427-5.641
		c1.31-2.421,1.966-5.199,1.966-8.333c0-3.133-0.656-5.911-1.966-8.334c-1.312-2.421-3.119-4.286-5.427-5.598
		c-2.308-1.31-4.914-1.966-7.821-1.966c-2.906,0-5.513,0.656-7.821,1.966c-2.308,1.312-4.132,3.177-5.47,5.598
		c-1.339,2.422-2.009,5.201-2.009,8.334c0,3.134,0.67,5.912,2.009,8.333c1.338,2.422,3.162,4.303,5.47,5.641
		c2.308,1.339,4.914,2.009,7.821,2.009C461.059-43.248,463.665-43.917,465.973-45.256z"/>
	<path fill="#FFFFFF" d="M520.798-79.401c3.475,1.938,6.196,4.644,8.162,8.119c1.965,3.477,2.948,7.494,2.948,12.052
		c0,4.559-0.983,8.59-2.948,12.093c-1.966,3.505-4.688,6.226-8.162,8.162c-3.477,1.938-7.409,2.906-11.795,2.906
		c-3.247,0-6.226-0.627-8.931-1.881c-2.708-1.253-5-3.077-6.88-5.47v21.813L484.986-20v-61.88h7.863v7.179
		c1.823-2.506,4.13-4.402,6.923-5.683c2.791-1.282,5.868-1.923,9.231-1.923C513.389-82.308,517.321-81.338,520.798-79.401z
		 M516.139-45.256c2.308-1.338,4.131-3.219,5.47-5.641c1.338-2.421,2.009-5.199,2.009-8.333c0-3.133-0.671-5.911-2.009-8.334
		c-1.339-2.421-3.162-4.286-5.47-5.598c-2.308-1.31-4.914-1.966-7.821-1.966c-2.85,0-5.427,0.67-7.735,2.009
		c-2.307,1.339-4.132,3.205-5.47,5.598c-1.339,2.393-2.009,5.158-2.009,8.291c0,3.134,0.654,5.912,1.966,8.333
		c1.311,2.422,3.133,4.303,5.47,5.641c2.336,1.339,4.928,2.009,7.778,2.009C511.225-43.248,513.831-43.917,516.139-45.256z"/>
	<path fill="#FFFFFF" d="M572.621-48.718l4.444,5.299c-1.994,2.393-4.516,4.217-7.564,5.47c-3.048,1.254-6.453,1.881-10.214,1.881
		c-4.786,0-9.032-0.983-12.735-2.949c-3.705-1.966-6.568-4.714-8.59-8.248c-2.024-3.532-3.034-7.521-3.034-11.966
		c0-4.388,0.983-8.347,2.948-11.88c1.966-3.532,4.672-6.282,8.12-8.248c3.447-1.966,7.336-2.949,11.666-2.949
		c4.103,0,7.835,0.927,11.197,2.778c3.362,1.852,6.039,4.46,8.035,7.821c1.993,3.363,3.019,7.237,3.077,11.624l-35.983,7.009
		c1.139,3.135,3.063,5.555,5.769,7.265c2.706,1.709,5.968,2.565,9.787,2.565C564.956-43.248,569.316-45.071,572.621-48.718z
		 M550.014-73.419c-2.252,1.312-4.004,3.149-5.256,5.513c-1.255,2.366-1.881,5.115-1.881,8.249v0.854l28.974-5.47
		c-0.742-3.304-2.393-5.983-4.957-8.035c-2.565-2.051-5.641-3.077-9.232-3.077C554.814-75.385,552.264-74.728,550.014-73.419z"/>
	<path fill="#FFFFFF" d="M630-99.999v63.418h-7.863v-7.179c-1.824,2.508-4.132,4.417-6.923,5.727
		c-2.793,1.312-5.87,1.966-9.231,1.966c-4.388,0-8.32-0.969-11.795-2.906c-3.476-1.937-6.196-4.657-8.162-8.162
		c-1.965-3.504-2.948-7.535-2.948-12.093c0-4.558,0.983-8.575,2.948-12.052c1.966-3.475,4.687-6.181,8.162-8.119
		c3.476-1.937,7.407-2.906,11.795-2.906c3.248,0,6.239,0.613,8.974,1.837c2.735,1.226,5.014,3.034,6.838,5.427v-23.35L630-99.999z
		 M614.445-45.256c2.335-1.338,4.158-3.219,5.47-5.641c1.31-2.421,1.966-5.199,1.966-8.333c0-3.133-0.656-5.911-1.966-8.334
		c-1.312-2.421-3.135-4.286-5.47-5.598c-2.337-1.31-4.929-1.966-7.778-1.966c-2.906,0-5.513,0.656-7.82,1.966
		c-2.308,1.312-4.132,3.177-5.47,5.598c-1.339,2.422-2.009,5.201-2.009,8.334c0,3.134,0.669,5.912,2.009,8.333
		c1.338,2.422,3.162,4.303,5.47,5.641c2.308,1.339,4.914,2.009,7.82,2.009C609.516-43.248,612.108-43.917,614.445-45.256z"/>
	<path fill="#FFFFFF" d="M215.692-50.656c2.848-4.701,4.273-9.985,4.273-15.855c0-5.868-1.425-11.154-4.273-15.855
		c-2.85-4.701-6.752-8.389-11.709-11.068c-4.957-2.677-10.542-4.017-16.752-4.017c-6.212,0-11.81,1.34-16.795,4.017
		c-4.987,2.679-8.889,6.368-11.709,11.068c-2.82,4.701-4.23,9.987-4.23,15.855c0,5.87,1.41,11.154,4.23,15.855
		c2.821,4.701,6.723,8.391,11.709,11.068c4.985,2.679,10.583,4.017,16.795,4.017c6.21,0,11.795-1.338,16.752-4.017
		C208.939-42.265,212.842-45.955,215.692-50.656z M203.512-56.596c-1.624,2.906-3.861,5.171-6.709,6.795
		c-2.85,1.624-6.041,2.436-9.573,2.436c-3.534,0-6.724-0.812-9.573-2.436c-2.85-1.624-5.085-3.889-6.709-6.795
		c-1.624-2.906-2.436-6.21-2.436-9.915c0-3.703,0.812-7.008,2.436-9.914c1.624-2.906,3.86-5.171,6.709-6.795
		c2.849-1.624,6.039-2.436,9.573-2.436c3.532,0,6.722,0.812,9.573,2.436c2.849,1.624,5.086,3.889,6.709,6.795
		c1.624,2.906,2.436,6.212,2.436,9.914C205.948-62.806,205.136-59.502,203.512-56.596z"/>
</g>
<text transform="matrix(1 0 0 1 -35 -85.6572)" fill="#FFFFFF" font-family="'MyriadPro-Regular'" font-size="12">white</text>
<text transform="matrix(1 0 0 1 -103.8862 14.3428)" fill="#FFFFFF" font-family="'MyriadPro-Regular'" font-size="12">white /w color logo</text>
</svg>
