<?xml version="1.0" encoding="utf-8"?>
<!-- Generator: Adobe Illustrator 17.0.0, SVG Export Plug-In . SVG Version: 6.00 Build 0)  -->
<!DOCTYPE svg PUBLIC "-//W3C//DTD SVG 1.1//EN" "http://www.w3.org/Graphics/SVG/1.1/DTD/svg11.dtd">
<svg version="1.1" id="Layer_1" xmlns="http://www.w3.org/2000/svg" xmlns:xlink="http://www.w3.org/1999/xlink" x="0px" y="0px"
	 width="630px" height="80px" viewBox="0 0 630 80" enable-background="new 0 0 630 80" xml:space="preserve">
<path opacity="0.8" fill="#FFFFFF" d="M3.888,0.079c0.339-0.052,0.664-0.065,1.003-0.078c18.812,0,37.612,0,56.411,0
	c0.743,0,1.485-0.026,2.202,0.182c1.394,0.391,2.58,1.433,3.114,2.775c0.508,1.225,0.469,2.671-0.104,3.869
	c-0.769,1.681-2.58,2.801-4.43,2.736c-19.06,0-38.133,0-57.193,0C2.976,9.629,1.087,8.417,0.371,6.632
	c-0.495-1.186-0.495-2.58,0.026-3.765C1.009,1.434,2.364,0.366,3.888,0.079L3.888,0.079z"/>
<path opacity="0.6" fill="#FFFFFF" d="M3.771,14.462c0.456-0.104,0.925-0.104,1.381-0.117c9.028,0,18.07,0,27.098,0
	c0.73,0,1.472-0.026,2.189,0.104c1.537,0.313,2.892,1.407,3.478,2.879c0.495,1.173,0.482,2.553-0.039,3.726
	c-0.73,1.733-2.58,2.918-4.456,2.866c-9.341,0.013-18.669,0-28.01,0c-0.586,0-1.173,0-1.746-0.13
	c-1.394-0.339-2.619-1.316-3.218-2.619c-0.625-1.329-0.599-2.944,0.091-4.234C1.178,15.687,2.39,14.762,3.771,14.462z"/>
<path opacity="0.45" fill="#FFFFFF" d="M46.894,14.449c0.704-0.13,1.446-0.104,2.163-0.104c9.12,0,18.239,0,27.359,0
	c1.498-0.039,3.009,0.651,3.908,1.863c0.704,0.873,1.055,2.019,1.003,3.14c-0.052,1.694-1.107,3.335-2.658,4.065
	c-0.756,0.43-1.655,0.521-2.514,0.508c-9.419,0-18.838,0.013-28.271,0c-1.12,0.013-2.215-0.404-3.101-1.094
	c-1.159-0.977-1.837-2.514-1.72-4.026C43.181,16.716,44.835,14.827,46.894,14.449L46.894,14.449z"/>
<path opacity="0.7" fill="#FFFFFF" d="M3.901,28.78c0.365-0.052,0.743-0.065,1.12-0.078c12.637,0.013,25.274,0,37.911,0.013
	c1.212-0.052,2.423,0.417,3.335,1.225c1.029,0.938,1.642,2.332,1.576,3.739c-0.052,0.977-0.378,1.954-1.003,2.723
	c-0.899,1.212-2.41,1.902-3.908,1.876c-12.416,0-24.844-0.013-37.26,0c-0.704-0.013-1.42,0.026-2.098-0.156
	c-1.264-0.339-2.384-1.199-2.996-2.358c-0.677-1.225-0.756-2.736-0.235-4.026C0.905,30.213,2.312,29.08,3.901,28.78L3.901,28.78z"/>
<path opacity="0.3" fill="#FFFFFF" d="M56.534,28.78c0.547-0.078,1.094-0.078,1.642-0.078c2.957,0.013,5.902,0,8.859,0.013
	c1.876-0.026,3.674,1.212,4.364,2.944c0.508,1.212,0.482,2.632-0.065,3.83c-0.756,1.642-2.488,2.788-4.299,2.775
	c-3.257,0-6.514,0.013-9.771,0c-2.475-0.013-4.703-2.241-4.625-4.729C52.535,31.268,54.32,29.158,56.534,28.78z"/>
<path opacity="0.45" fill="#FFFFFF" d="M3.901,43.124c0.456-0.065,0.925-0.065,1.381-0.065c9.25-0.013,18.5,0,27.75,0
	c0.73-0.013,1.472,0.026,2.163,0.313c1.342,0.495,2.423,1.642,2.853,3.009c0.717,2.071-0.248,4.573-2.189,5.615
	c-0.73,0.43-1.576,0.638-2.423,0.638c-9.523,0-19.034,0-28.557,0c-0.938,0-1.889-0.261-2.671-0.769
	c-1.511-0.938-2.371-2.762-2.176-4.521C0.201,45.286,1.882,43.501,3.901,43.124z"/>
<path opacity="0.6" fill="#FFFFFF" d="M47.024,43.124c0.417-0.065,0.834-0.065,1.251-0.065c7.426-0.013,14.852,0,22.278-0.013
	c0.638,0.013,1.29-0.013,1.928,0.065c1.655,0.235,3.14,1.42,3.739,2.983c0.443,1.186,0.443,2.553-0.091,3.713
	c-0.743,1.707-2.54,2.827-4.39,2.827c-7.96,0-15.907,0-23.867,0c-1.003,0-1.98-0.326-2.814-0.899
	c-1.485-1.042-2.293-2.996-1.902-4.794C43.467,45.026,45.109,43.436,47.024,43.124L47.024,43.124z"/>
<path opacity="0.8" fill="#FFFFFF" d="M4.553,57.428c19.125-0.039,38.263-0.013,57.401-0.013c1.524-0.078,3.075,0.599,4,1.824
	c0.86,1.055,1.186,2.514,0.938,3.843c-0.261,1.459-1.251,2.775-2.593,3.4c-0.756,0.404-1.628,0.508-2.475,0.495
	c-18.5,0-36.999,0-55.499,0c-0.925-0.026-1.863,0.078-2.775-0.169c-1.498-0.378-2.775-1.55-3.27-3.022
	c-0.521-1.446-0.3-3.153,0.638-4.403C1.739,58.223,3.12,57.467,4.553,57.428z"/>
<g>
	<path fill="#FFFFFF" d="M153.186,52.667c-1.344-2.24-2.417-4.601-3.237-7.064l-0.068-0.063c-4.046,4.73-9.06,7.094-15.043,7.094
		c-3.704,0-7.008-0.812-9.914-2.436c-2.906-1.624-5.171-3.889-6.795-6.795c-1.624-2.906-2.436-6.21-2.436-9.915
		c0-3.703,0.812-7.008,2.436-9.914c1.624-2.906,3.889-5.171,6.795-6.795c2.906-1.624,6.21-2.436,9.914-2.436
		c5.983,0,10.996,2.337,15.043,7.008l0.105-0.097c0.815-2.42,1.879-4.741,3.201-6.945c0.851-1.419,1.788-2.765,2.807-4.037
		c-2.27-2.048-4.858-3.717-7.779-4.99c-4.188-1.823-8.876-2.735-14.06-2.735c-6.154,0-11.696,1.325-16.624,3.974
		c-4.929,2.65-8.804,6.325-11.624,11.026c-2.82,4.701-4.23,10.015-4.23,15.94c0,5.927,1.41,11.239,4.23,15.94
		c2.821,4.701,6.695,8.376,11.624,11.026c4.928,2.649,10.44,3.974,16.538,3.974c5.184,0,9.885-0.912,14.102-2.735
		c2.934-1.269,5.529-2.947,7.802-5.017C154.963,55.414,154.032,54.077,153.186,52.667z"/>
	<path fill="#FFFFFF" d="M272,0.001v63.418h-7.863v-7.179c-1.824,2.508-4.132,4.417-6.923,5.727
		c-2.793,1.312-5.87,1.966-9.231,1.966c-4.389,0-8.32-0.969-11.795-2.906c-3.476-1.937-6.196-4.657-8.162-8.162
		c-1.965-3.504-2.948-7.535-2.948-12.093c0-4.558,0.983-8.575,2.948-12.052c1.966-3.475,4.687-6.181,8.162-8.119
		c3.476-1.937,7.407-2.906,11.795-2.906c3.248,0,6.239,0.613,8.974,1.837c2.735,1.226,5.014,3.034,6.838,5.427V1.607L272,0.001z
		 M256.445,54.744c2.335-1.338,4.158-3.219,5.47-5.641c1.31-2.421,1.966-5.199,1.966-8.333c0-3.133-0.656-5.911-1.966-8.334
		c-1.312-2.421-3.135-4.286-5.47-5.598c-2.337-1.31-4.929-1.966-7.778-1.966c-2.906,0-5.513,0.656-7.821,1.966
		c-2.308,1.312-4.132,3.177-5.47,5.598c-1.339,2.422-2.009,5.201-2.009,8.334c0,3.134,0.67,5.912,2.009,8.333
		c1.338,2.422,3.162,4.303,5.47,5.641c2.308,1.339,4.914,2.009,7.821,2.009C251.516,56.752,254.108,56.083,256.445,54.744z"/>
	<path fill="#FFFFFF" d="M315.93,51.282l4.444,5.299c-1.994,2.393-4.516,4.217-7.564,5.47c-3.048,1.254-6.453,1.881-10.214,1.881
		c-4.786,0-9.032-0.983-12.735-2.949c-3.705-1.966-6.568-4.714-8.59-8.248c-2.024-3.532-3.034-7.521-3.034-11.966
		c0-4.388,0.983-8.347,2.948-11.88c1.966-3.532,4.672-6.282,8.12-8.248c3.447-1.966,7.336-2.949,11.666-2.949
		c4.103,0,7.835,0.927,11.197,2.778c3.362,1.852,6.039,4.46,8.035,7.821c1.993,3.363,3.019,7.237,3.077,11.624l-35.983,7.009
		c1.139,3.135,3.063,5.555,5.769,7.265c2.706,1.709,5.968,2.565,9.787,2.565C308.266,56.752,312.625,54.929,315.93,51.282z
		 M293.324,26.581c-2.252,1.312-4.004,3.149-5.256,5.513c-1.255,2.366-1.881,5.115-1.881,8.249v0.854l28.974-5.47
		c-0.742-3.304-2.393-5.983-4.957-8.035c-2.565-2.051-5.641-3.077-9.232-3.077C298.123,24.615,295.574,25.272,293.324,26.581z"/>
	<path fill="#FFFFFF" d="M368.837,18.12l-19.829,45.299h-8.376l-19.155-43.759l7.873-1.54l15.556,36.325L360.05,19.84L368.837,18.12
		z"/>
	<path fill="#FFFFFF" d="M403.622,51.282l4.444,5.299c-1.994,2.393-4.516,4.217-7.564,5.47c-3.048,1.254-6.453,1.881-10.214,1.881
		c-4.786,0-9.032-0.983-12.735-2.949c-3.705-1.966-6.568-4.714-8.59-8.248c-2.024-3.532-3.034-7.521-3.034-11.966
		c0-4.388,0.983-8.347,2.948-11.88c1.966-3.532,4.672-6.282,8.12-8.248c3.447-1.966,7.336-2.949,11.666-2.949
		c4.103,0,7.835,0.927,11.197,2.778c3.362,1.852,6.039,4.46,8.035,7.821c1.993,3.363,3.019,7.237,3.077,11.624l-35.983,7.009
		c1.139,3.135,3.063,5.555,5.769,7.265c2.706,1.709,5.968,2.565,9.787,2.565C395.957,56.752,400.317,54.929,403.622,51.282z
		 M381.015,26.581c-2.252,1.312-4.004,3.149-5.256,5.513c-1.255,2.366-1.881,5.115-1.881,8.249v0.854l28.974-5.47
		c-0.742-3.304-2.393-5.983-4.957-8.035c-2.565-2.051-5.641-3.077-9.232-3.077C385.815,24.615,383.265,25.272,381.015,26.581z"/>
	<path fill="#FFFFFF" d="M420.887,60.299c-2.393-2.422-3.589-5.825-3.589-10.214V1.608l8.205-1.607v49.401
		c0,2.451,0.583,4.331,1.752,5.641c1.167,1.311,2.919,1.965,5.256,1.965c1.423,0,2.763-0.284,4.017-0.854l0.427,6.752
		c-1.88,0.684-3.846,1.026-5.897,1.026C426.669,63.932,423.28,62.722,420.887,60.299z"/>
	<path fill="#FFFFFF" d="M446.015,60.94c-3.589-1.993-6.396-4.744-8.418-8.248c-2.024-3.505-3.034-7.479-3.034-11.923
		s1.01-8.419,3.034-11.923c2.022-3.504,4.829-6.239,8.418-8.205c3.59-1.966,7.635-2.949,12.137-2.949
		c4.5,0,8.533,0.983,12.093,2.949c3.561,1.966,6.354,4.701,8.376,8.205c2.022,3.504,3.034,7.479,3.034,11.923
		s-1.012,8.418-3.034,11.923c-2.023,3.504-4.816,6.254-8.376,8.248c-3.561,1.995-7.593,2.992-12.093,2.992
		C453.65,63.932,449.605,62.936,446.015,60.94z M465.973,54.744c2.308-1.338,4.116-3.219,5.427-5.641
		c1.31-2.421,1.966-5.199,1.966-8.333c0-3.133-0.656-5.911-1.966-8.334c-1.312-2.421-3.119-4.286-5.427-5.598
		c-2.308-1.31-4.914-1.966-7.821-1.966c-2.906,0-5.513,0.656-7.821,1.966c-2.308,1.312-4.132,3.177-5.47,5.598
		c-1.339,2.422-2.009,5.201-2.009,8.334c0,3.134,0.67,5.912,2.009,8.333c1.338,2.422,3.162,4.303,5.47,5.641
		c2.308,1.339,4.914,2.009,7.821,2.009C461.059,56.752,463.665,56.083,465.973,54.744z"/>
	<path fill="#FFFFFF" d="M520.798,20.599c3.475,1.938,6.196,4.644,8.162,8.119c1.965,3.477,2.948,7.494,2.948,12.052
		c0,4.559-0.983,8.59-2.948,12.093c-1.966,3.505-4.688,6.226-8.162,8.162c-3.477,1.938-7.409,2.906-11.795,2.906
		c-3.247,0-6.226-0.627-8.931-1.881c-2.708-1.253-5-3.077-6.88-5.47v21.813L484.986,80V18.12h7.863v7.179
		c1.823-2.506,4.13-4.402,6.923-5.683c2.791-1.282,5.868-1.923,9.231-1.923C513.389,17.692,517.321,18.662,520.798,20.599z
		 M516.139,54.744c2.308-1.338,4.131-3.219,5.47-5.641c1.338-2.421,2.009-5.199,2.009-8.333c0-3.133-0.671-5.911-2.009-8.334
		c-1.339-2.421-3.162-4.286-5.47-5.598c-2.308-1.31-4.914-1.966-7.821-1.966c-2.85,0-5.427,0.67-7.735,2.009
		c-2.307,1.339-4.132,3.205-5.47,5.598c-1.339,2.393-2.009,5.158-2.009,8.291c0,3.134,0.654,5.912,1.966,8.333
		c1.311,2.422,3.133,4.303,5.47,5.641c2.336,1.339,4.928,2.009,7.778,2.009C511.225,56.752,513.831,56.083,516.139,54.744z"/>
	<path fill="#FFFFFF" d="M572.621,51.282l4.444,5.299c-1.994,2.393-4.516,4.217-7.564,5.47c-3.048,1.254-6.453,1.881-10.214,1.881
		c-4.786,0-9.032-0.983-12.735-2.949c-3.705-1.966-6.568-4.714-8.59-8.248c-2.024-3.532-3.034-7.521-3.034-11.966
		c0-4.388,0.983-8.347,2.948-11.88c1.966-3.532,4.672-6.282,8.12-8.248c3.447-1.966,7.336-2.949,11.666-2.949
		c4.103,0,7.835,0.927,11.197,2.778c3.362,1.852,6.039,4.46,8.035,7.821c1.993,3.363,3.019,7.237,3.077,11.624l-35.983,7.009
		c1.139,3.135,3.063,5.555,5.769,7.265c2.706,1.709,5.968,2.565,9.787,2.565C564.956,56.752,569.316,54.929,572.621,51.282z
		 M550.014,26.581c-2.252,1.312-4.004,3.149-5.256,5.513c-1.255,2.366-1.881,5.115-1.881,8.249v0.854l28.974-5.47
		c-0.742-3.304-2.393-5.983-4.957-8.035c-2.565-2.051-5.641-3.077-9.232-3.077C554.814,24.615,552.264,25.272,550.014,26.581z"/>
	<path fill="#FFFFFF" d="M630,0.001v63.418h-7.863v-7.179c-1.824,2.508-4.132,4.417-6.923,5.727
		c-2.793,1.312-5.87,1.966-9.231,1.966c-4.388,0-8.32-0.969-11.795-2.906c-3.476-1.937-6.196-4.657-8.162-8.162
		c-1.965-3.504-2.948-7.535-2.948-12.093c0-4.558,0.983-8.575,2.948-12.052c1.966-3.475,4.687-6.181,8.162-8.119
		c3.476-1.937,7.407-2.906,11.795-2.906c3.248,0,6.239,0.613,8.974,1.837c2.735,1.226,5.014,3.034,6.838,5.427V1.607L630,0.001z
		 M614.445,54.744c2.335-1.338,4.158-3.219,5.47-5.641c1.31-2.421,1.966-5.199,1.966-8.333c0-3.133-0.656-5.911-1.966-8.334
		c-1.312-2.421-3.135-4.286-5.47-5.598c-2.337-1.31-4.929-1.966-7.778-1.966c-2.906,0-5.513,0.656-7.82,1.966
		c-2.308,1.312-4.132,3.177-5.47,5.598c-1.339,2.422-2.009,5.201-2.009,8.334c0,3.134,0.669,5.912,2.009,8.333
		c1.338,2.422,3.162,4.303,5.47,5.641c2.308,1.339,4.914,2.009,7.82,2.009C609.516,56.752,612.108,56.083,614.445,54.744z"/>
	<path fill="#FFFFFF" d="M215.692,49.344c2.848-4.701,4.273-9.985,4.273-15.855c0-5.868-1.425-11.154-4.273-15.855
		c-2.85-4.701-6.752-8.389-11.709-11.068C199.025,3.889,193.44,2.55,187.23,2.55c-6.212,0-11.81,1.34-16.795,4.017
		c-4.987,2.679-8.889,6.368-11.709,11.068c-2.82,4.701-4.23,9.987-4.23,15.855c0,5.87,1.41,11.154,4.23,15.855
		c2.821,4.701,6.723,8.391,11.709,11.068c4.985,2.679,10.583,4.017,16.795,4.017c6.21,0,11.795-1.338,16.752-4.017
		C208.939,57.735,212.842,54.045,215.692,49.344z M203.512,43.404c-1.624,2.906-3.861,5.171-6.709,6.795
		c-2.85,1.624-6.041,2.436-9.573,2.436c-3.534,0-6.724-0.812-9.573-2.436c-2.85-1.624-5.085-3.889-6.709-6.795
		c-1.624-2.906-2.436-6.21-2.436-9.915c0-3.703,0.812-7.008,2.436-9.914c1.624-2.906,3.86-5.171,6.709-6.795
		c2.849-1.624,6.039-2.436,9.573-2.436c3.532,0,6.722,0.812,9.573,2.436c2.849,1.624,5.086,3.889,6.709,6.795
		c1.624,2.906,2.436,6.212,2.436,9.914C205.948,37.194,205.136,40.498,203.512,43.404z"/>
</g>
</svg>
