<?xml version="1.0" encoding="utf-8"?>
<!-- Generator: Adobe Illustrator 17.0.0, SVG Export Plug-In . SVG Version: 6.00 Build 0)  -->
<!DOCTYPE svg PUBLIC "-//W3C//DTD SVG 1.1//EN" "http://www.w3.org/Graphics/SVG/1.1/DTD/svg11.dtd">
<svg version="1.1" id="Layer_1" xmlns="http://www.w3.org/2000/svg" xmlns:xlink="http://www.w3.org/1999/xlink" x="0px" y="0px"
	 width="566.929px" height="566.929px" viewBox="0 0 566.929 566.929" enable-background="new 0 0 566.929 566.929"
	 xml:space="preserve">
<path d="M370.03,535.588c-2.617-2.22-5.233-4.442-8.641-7.333c0.962-0.318,1.991-0.66,3.019-1c-0.182-0.282-0.364-0.565-0.545-0.847
	c-0.672-0.167-1.344-0.333-2.203-0.545c0.572-2.072,1.166-4.224,1.929-6.994c-1.276,0.148-1.894,0.22-2.657,0.308
	c-2.581-1.637-5.325-3.378-8.197-5.199c2.365-6.073,4.706-12.063,5.51-18.528c-0.88-2.357-1.78-4.769-2.683-7.187
	c0.479-1.085,0.917-2.077,1.493-3.381c-4.259-4.47-8.598-9.023-12.939-13.577c-0.208,0.167-0.414,0.335-0.622,0.502
	c-0.258-1.241-0.517-2.482-0.691-3.322c-3.181-1.765-6.038-3.351-9.422-5.229c-0.361,0.113-1.412,0.438-3.329,1.033
	c-0.199-0.424-0.582-1.247-1.155-2.471c-2.939,0.959-5.665,1.849-9.277,3.028c-1.431,0.132-3.901,0.359-7.463,0.687
	c-3.402-2.002-7.782-1.146-12.208,0.727c-3.44,1.457-6.935,1.237-10.703,0.783c-3.85-0.464-7.912,0.77-11.802,2.075
	c-2.102-0.515-4.204-1.031-6.755-1.657c-0.114-0.883-0.268-2.08-0.502-3.886c-2.316-0.376-4.808-0.779-7.761-1.258
	c-0.397-0.637-1.04-1.666-2.038-3.264c-1.865,0.939-3.588,1.807-5.173,2.605c-0.239,1.376-0.417,2.403-0.658,3.792
	c-1.546-0.405-2.858-0.747-4.841-1.266c1.499-0.654,2.262-0.987,2.914-1.272c-2.884-2.67-5.719-5.294-8.623-7.982
	c-1.339,1.127-2.53,2.13-3.754,3.159c-1.222-0.523-2.227-0.954-3.478-1.489c-0.912,0.662-1.933,1.401-3.365,2.44
	c1.725,1.264,3.147,2.307,4.678,3.428c-0.057,0.598-0.122,1.267-0.242,2.514c-1.978-1.543-3.529-2.753-5.479-4.274
	c-3.687,3.494-9.737,3.716-11.737,8.482c-9.304,5.278-18.289,9.708-28.809,9.989c0.148,2.564,0.239,4.127,0.368,6.35
	c-1.493-1.6-2.571-2.755-4.088-4.38c-3.821,0.654-7.798,1.336-11.777,2.018c0.022,0.167,0.046,0.335,0.068,0.502
	c-2.007-0.307-4.015-0.615-6.3-0.965c-1.349,1.178-2.709,2.365-4.419,3.858c3.22,4.76,6.285,9.29,9.378,13.864
	c-2.317-0.871-2.342-0.852-5.224-4.535c-1.59-2.031-3.08-4.138-4.723-6.356c-2.218,0-4.424,0-6.6,0
	c-5.622-2.838-7.479-8.699-11.507-13.715c1.584-0.667,2.959-1.244,4.478-1.883c-0.986-2.104-2.056-4.384-3.241-6.913
	c0.898-0.994,1.851-2.05,2.764-3.059c-0.948-4.729-2.108-9.275-2.65-13.892c-0.192-1.634,1.032-3.48,1.799-5.146
	c0.347-0.754,1.154-1.302,2.195-1.828c-2.062,5.086-3.133,10.043,0.395,15.398c0.412-0.674,0.672-1.17,1.001-1.619
	c0.313-0.427,0.698-0.803,1.339-1.527c0.866,1.051,1.617,1.963,2.463,2.99c1.891-1.247,3.945-2.603,6.289-4.149
	c1.989,2.827,4.055,5.042,4.054,8.804c0,2.508,1.807,5.016,2.871,7.691c2.637-0.41,5.158-0.801,8.481-1.317
	c-1.063-3.162-1.971-6.045-2.999-8.885c-1.814-5.011-4.071-9.899-5.477-15.015c-2.458-8.944,0.96-13.966,10.056-16.265
	c2.828-0.715,5.451-2.21,8.478-3.479c1.914,2.395-0.497,4.716-0.064,7.336c-1.737,0-3.137,0-4.589,0
	c-2.947,2.707-5.867,5.388-8.344,7.662c-1.753,10.642,3.458,18.502,7.621,27.107c3.115-0.407,6.183-0.808,9.251-1.208
	c-0.1-0.222-0.201-0.444-0.301-0.667c5.16-2.648,10.322-5.296,15.575-7.991c-0.375-0.475-0.87-1.102-1.646-2.087
	c8.459-2.58,13.054-9.137,17.703-16.279c-3.07-1.718-6.107-3.417-9.356-5.234c0.787-0.471,1.665-0.996,2.608-1.561
	c-0.783-2.405-1.385-4.254-2.019-6.2c-1.214,0.494-2.003,0.816-3.048,1.24c0.203-1.241,0.37-2.26,0.566-3.455
	c-0.873-0.619-1.761-1.249-3.003-2.129c-0.586,1.214-1.122,2.327-1.66,3.44c-0.37-0.303-0.741-0.606-1.111-0.907
	c0.139-0.752,0.279-1.502,0.302-1.627c-3.055-3.075-5.875-5.807-8.569-8.653c-2.751-2.907-5.925-4.456-9.692-3.478
	c-2.929-4.917-5.543-9.721-8.611-14.223c-0.985-1.446-3.17-2.098-5.556-3.578c-2.208-6.621-7.4-12.433-11.851-18.774
	c-4.761-6.782-7.344-14.7-9.198-22.827c-0.913-4.004-2.815-7.791-4.767-11.528c-0.525-4.825-0.876-9.535-3.299-14.238
	c-1.515-2.942-0.506-7.133-0.67-10.763c-0.396-8.799-0.842-17.595-1.216-26.395c-0.279-6.551-2.512-12.431-6.256-18.658
	c-0.553,1.725-0.889,2.775-1.335,4.168c-2.633-5.371-5.073-10.347-7.905-16.125c-1.544-0.098-3.523-0.225-5.503-0.353
	c-0.047,0.27-0.093,0.539-0.14,0.809c-0.87-0.622-1.739-1.245-3.29-2.354c2.823-0.823,4.884-1.425,7.142-2.083
	c0.095-0.628,0.197-1.308,0.383-2.533c-1.593,0.212-2.832,0.378-4.292,0.573c-2.649-13.953-5.278-27.801-7.953-41.891
	c-0.578,0.515-1.059,0.943-2.117,1.884c0-3.516,0.007-6.542-0.001-9.569c-0.034-12.477,1.176-24.77,3.916-37.019
	c2.031-9.08,2.475-18.495,3.959-27.708c0.605-3.758,1.94-7.429,3.206-11.051c2.423-6.93,5.202-13.743,7.465-20.72
	c0.669-2.06,0.103-4.508,0.103-7.376c0.951-1.714,2.194-3.95,3.492-6.288c-0.953-0.321-1.763-0.594-3.101-1.044
	c3.077-4.12,6-8.036,10.385-13.908c4.603-3.015,11.229-7.355,17.855-11.697c0.146,0.221,0.291,0.442,0.436,0.662
	c1.369-1.909,2.738-3.817,4.081-5.691c5.581-0.935,8.767-4.858,12.308-8.843c2.031,0,4.201,0,6.783,0
	c-0.132-0.514-0.281-1.09-0.438-1.701c10.178-1.596,17.611-4.691,23.128-9.727c2.021,0.327,4.203,0.681,6.563,1.063
	c1.203-0.699,2.463-1.429,2.91-1.689c5.427,0,10.012,0,14.853,0c2.214-2.374,4.468-4.792,6.916-7.418
	c5.067,1.839,10.384,2.071,15.847-1.081c0.258,0.628,0.557,1.352,0.969,2.353c6.227,0.563,12.415,3.567,18.437,1.459
	c3.388,0.368,6.268,0.681,9,0.978c1.578-1.269,2.844-2.286,3.811-3.064c2.773,0.885,5.192,1.657,7.504,2.395
	c4.576,4.955,11.059,4.683,17.238,6.165c0.35,0.953,0.766,2.083,1.162,3.16c7.345,3.206,14.525,6.367,21.376,10.531
	c7.681,4.667,14.439,10.327,21.173,16.015c3.885,3.279,6.946,7.675,9.788,11.948c7.439,11.183,14.435,22.597,20.484,34.64
	c5.926,11.797,10.017,24.067,13.325,36.704c0.693,2.649,1.784,5.197,2.291,7.901c0.735,2.908,1.647,5.784,2.172,8.728
	c2.187,12.269,4.173,24.557,4.824,37.037c0.167,3.205,1.587,6.346,2.461,9.629c-1.067,0.722-2.13,1.439-3.431,2.319
	c-0.059,1.12-0.126,2.359-0.203,3.822c1.085,0.48,2.07,0.915,2.277,1.007c3.945,17.845,7.105,35.385,7.958,53.767
	c-5.013-2.486-1.878-7.564-4.639-10.298c-3.116,3.024-4.701,8.263-4.374,13.809c2.657,3.494,5.197,6.833,8.032,10.557
	c-1.873,1.103-3.239,1.908-4.609,2.713c-0.364-0.422-0.71-0.825-1.032-1.198c-4.092,1.511-2.802,9.042,2.592,13.865
	c-1.93,0.526-3.602,0.981-5.703,1.555c0.478,1.866,0.913,3.562,1.093,4.262c-0.163,3.348-0.825,5.833-0.297,8.044
	c2.157,9.04-0.525,16.939-4.944,24.684c-3.253,5.702-6.34,11.533-8.978,17.529c-2.283,5.188-3.529,10.82-5.827,16.001
	c-1.219,2.747-3.656,4.984-5.624,7.387c-1.314,1.605-3.245,2.479-3.934,4.906c-0.432,1.523-2.899,2.593-4.602,3.63
	c-2.143,1.305-4.437,2.369-6.284,3.336c-0.457,8.587-6.489,12.164-12.09,16.071c-0.169,1.746-0.327,3.356-0.498,5.115
	c-1.69,0.755-3.348,1.495-5.379,2.403c0.953,1.201,1.698,2.142,2.442,3.085c-0.116,1.975-0.231,3.948-0.353,6.029
	c-1.332,0.876-2.688,1.768-4.428,2.912c1.606,0.869,2.81,1.52,4.645,2.513c-3.082,1.03-6.509-0.16-7.72,3.283
	c0.234,3.676,4.037,3.189,6.287,5.027c-0.53,0.84-1.059,1.68-1.77,2.804c1.289,0.288,2.466,0.553,4.004,0.897
	c-0.229,0.844-0.448,1.657-0.668,2.47c0.073,0.169,0.111,0.458,0.225,0.491c3.734,1.078,3.487,5.203,5.833,7.428
	c1.522,1.443,2.715,3.577,3.252,5.607c1.575,5.969,2.419,12.136,4.159,18.051c2.575,8.752,6.258,17.104,11.025,24.954
	c0.572,0.943,1.188,1.873,1.635,2.875c0.981,2.198,2.059,3.839,4.746,4.81c2.2,0.796,4.248,3.096,5.448,5.229
	c1.897,3.375,4.41,5.768,8.863,7.48c-1.446,0.875-2.353,1.424-3.476,2.103c0.476,1.596,0.883,2.963,1.292,4.33
	C386.487,535.588,378.258,535.588,370.03,535.588z M140.516,165.46c2.054,3.635,4.611,8.597,0.646,13.987
	c1.243,1.061,2.195,1.873,3.778,3.224c-2.659,4.814-0.79,9.693,0.527,14.653c0.369,1.39,0.079,2.94,0.226,4.403
	c0.165,1.635,0.466,3.256,0.738,4.879c0.451,2.685,1.018,5.354,1.368,8.051c0.401,3.086,0.822,6.192,0.873,9.295
	c0.099,6.061-0.053,12.126-0.103,18.189c-0.056,6.745-0.616,13.531-0.048,20.226c0.726,8.561,2.372,17.047,3.597,25.569
	c0.678,4.713,0.945,9.518,2.059,14.126c1.109,4.588,3.044,8.982,4.703,13.707c-2.42,2.811-1.854,5.883-1.129,9.278
	c1.143,5.35,1.557,10.851,2.278,16.269c1.24,3.589,2.507,7.254,3.909,11.312c3.393,1.151,3.393,1.151,2.079,8.877
	c1.178,1.424,2.806,2.955,3.895,4.798c2.327,3.937,4.103,8.21,6.642,11.997c1.461,2.181,3.723,4.707,6.061,5.248
	c3.547,0.82,5.219,2.575,6.959,5.443c1.439,2.372,4.028,4.15,6.337,5.898c1.832,1.388,4.011,2.332,6.037,3.474
	c0.035-0.05,0.07-0.099,0.104-0.149c1.985,1.088,3.971,2.174,6,3.286c0.683-0.904,1.636-2.162,2.406-3.18c2.639,0,4.848,0,6.836,0
	c3.343-2.558,5.974-4.893,6.426-9.379c0.278-2.756,2.789-5.294,3.922-7.272c3.49,0.433,6.135,0.762,9.284,1.152
	c0.421,0.468,1.26,1.401,2.099,2.335c0.11-0.256,0.219-0.513,0.329-0.768c4.561,1.2,9.121,2.399,14.457,3.803
	c3.554-0.825,7.997-1.856,12.532-2.908c0.315-1.746,0.637-3.528,0.908-5.021c2.472-2.808,5.503-3.448,8.715-3.825
	c4.56-0.535,9.099-1.237,13.77-1.884c0.114,0.382,0.389,1.299,0.95,3.169c0.643-1.568,0.969-2.369,1.382-3.376
	c1.841,2.453,3.043,4.054,4.267,5.684c2.384-0.854,4.595-1.646,7.136-2.556c8.396,4.577,16.857,1.555,25.15-0.802
	c5.573,2.846,10.905,5.568,15.938,8.138c0.256,1.97,0.432,3.318,0.65,4.999c1.849-0.275,3.318-0.405,4.742-0.728
	c1.602-0.364,3.164-0.902,4.483-1.288c7.925-18.566,8.674-17.38,15.033-22.99c-0.103-1.726-0.205-3.452-0.315-5.289
	c1.351,0,2.252,0,2.96,0c0.981,1.233,1.812,2.279,3.141,3.949c1.001-2.704,1.72-4.649,2.611-7.054
	c2.044,1.074,3.731,1.96,5.745,3.018c1.446-4.935,2.81-9.59,4.497-15.347c0.478-2.922,1.146-6.996,1.92-11.724
	c0.971-0.639,2.516-1.656,4.22-2.777c-2.684-3.493-0.652-6.902-2.723-9.81c-1.846-2.592-3.007-5.657-4.311-8.201
	c1.298-1.641,2.075-2.623,2.767-3.497c-0.46-1.13-0.802-1.966-1.139-2.794c1.462-0.834,2.871-1.638,4.869-2.779
	c-1.553-3.548-3.027-6.917-4.77-10.897c0.332-0.938,0.926-2.618,1.473-4.17c-1.492-1.301-2.835-2.472-4.475-3.901
	c1.555-0.762,2.665-1.304,3.743-1.832c0.745-3.306,1.461-6.48,2.244-9.956c-0.554-1.2-1.249-2.706-1.906-4.131
	c0.52-6.393,1.03-12.687,1.534-18.893c-1.142-2.695-2.281-5.38-3.419-8.066c0.364-0.04,0.728-0.081,1.093-0.12
	c0.14-2.228,0.598-4.493,0.341-6.675c-0.32-2.719-0.976-5.461-1.934-8.032c-2.297-6.165-3.827-12.546-7.213-18.411
	c-2.89-5.009-4.809-10.754-6.108-16.406c-1.258-5.475-2.353-10.892-4.443-14.618c-1.064-4.845-1.838-8.377-2.617-11.924
	c-1.312-0.847-2.535-1.636-3.49-2.251c-2.594-6.198-5.046-12.057-7.539-18.014c3.584-2.879,2.389-6.744,2.493-9.117
	c-1.002-2.509-1.913-3.898-2.086-5.371c-0.862-7.345-4.768-13.404-9.25-18.784c-4.191-5.028-9.722-8.972-14.99-13.686
	c-2.998-0.995-6.413-2.128-11.032-3.659c1.94,3.369,3.182,5.526,4.572,7.939c1.651,0.949,4.468,1.185,4.468,4.588
	c-2.274,0.345-4.386,0.664-6.629,1.004c-1.068-0.548-2.218-1.138-3.513-1.804c-2.329,1.387-4.695,2.795-6.353,3.783
	c-2.74,0-5.578,0.844-6.712-0.166c-2.839-2.528-5.38-1.272-8.258-0.293c-0.101-1.312-0.177-2.3-0.258-3.333
	c-1.781,0.48-3.32,0.894-6.133,1.651c1.921-2.219,2.987-3.452,3.735-4.315c-2.543-1.246-4.856-2.378-7.769-3.805
	c-3.987,1.166-7.6-0.377-9.807-4.565c-5.394-1.546-10.506-3.013-16.219-4.651c-5.917,2.527-11.188-1.657-16.448-3.378
	c-1.719,0.561-2.98,0.974-5.044,1.647c0.632-4.043,2.396-5.082,5.507-4.602c0.59,0.091,1.26-0.318,2.38-0.634
	c-0.95-1.215-1.585-2.026-2.289-2.926c-1.533,0.567-2.879,1.064-4.05,1.498c-1.794-0.654-3.319-1.21-3.592-1.309
	c-3.717,1.985-6.471,3.455-9.387,5.012c-1.206-1.682-2.031-2.832-2.944-4.105c-7.748-0.543-14.201,2.691-20.158,6.984
	c-2.593,0-5.002,0-6.529,0c-3.67,1.728-6.582,3.242-9.607,4.487c-3.701,1.522-7.977,1.852-10.636,5.43
	c-0.498,0.671-1.525,0.998-2.356,1.384c-3.166,1.467-6.353,2.892-8.396,3.82c-2.697,3.17-4.67,5.488-6.53,7.674
	c-1.176-0.294-1.682-0.453-2.2-0.542c-0.498-0.085-1.009-0.097-2.014-0.187C149.29,127.027,139.597,143.878,140.516,165.46z
	 M411.167,266.939c-0.402-8.671-4.833-22.051-8.358-24.387C404.06,250.797,402.757,259.81,411.167,266.939z M104.1,535.588
	c-0.621-2.14-1.241-4.281-1.862-6.42c-0.256,0.051-0.511,0.102-0.766,0.153c0.282-1.312,0.563-2.624,1.031-4.8
	c1.371-1.072,3.497-2.734,5.663-4.427c1.694-4.037-2.945-5.52-3.845-9.815c0.071-3.117-0.826-7.327,1.324-11.7
	c1.433-2.915,1.059-6.693,1.476-10.086c0.2-1.627,0.355-3.258,0.559-5.153c1.423-0.354,2.742-0.682,4.488-1.116
	c-0.706-2.144-1.327-4.029-2.107-6.397c3.54-6.565,6.836-13.739,15.471-17.579c1.689-2.965,4.716-5.428,9.614-6.462
	c-1.149,4.739-5.683,6.038-7.705,9.301c-2.122,3.425-4.596,6.648-6.57,10.148c-1.984,3.519-3.54,7.271-5.499,11.373
	c1.98,4.577,0.674,9.343-0.496,14.207c-0.534,2.217-0.285,4.704,0.028,7.014c0.599,4.422,0.441,8.639-0.946,12.988
	c-0.902,2.829-0.54,6.051-0.781,9.658c-0.994,2.616-2.23,5.864-3.465,9.114C107.84,535.588,105.971,535.588,104.1,535.588z
	 M504.678,482.536c-1.095-0.066-2.19-0.133-3.523-0.213c-1.186-4.344-5.149-5.909-8.524-7.8c-3.107-1.741-5.009-4.052-6.322-7.142
	c1.611-2.077,3.097-0.658,4.381,0.091c4.704,2.743,9.332,5.611,13.989,8.433C504.678,478.115,504.678,480.326,504.678,482.536z
	 M79.415,535.588c-0.267-2.17-0.533-4.339-0.837-6.814c1.804-2.732,3.711-5.614,8.086-4.66c-0.401,2.619-0.401,2.619-3.573,4.068
	c0.261,2.383,0.537,4.894,0.812,7.406C82.407,535.588,80.91,535.588,79.415,535.588z M429.639,487.191
	c-10.02,5.468-16.369,15.409-27.695,18.561c1.848-1.703,3.575-3.56,5.567-5.082c7.837-5.992,14.497-13.09,20.572-20.763
	c1.946-2.457,3.984-4.849,5.816-7.385c1.181-1.637,2.365-3.383,3.013-5.259c1.075-3.115,1.719-6.373,2.497-9.383
	c-1.325-3.643-2.571-7.068-4.347-11.953c-5.719-3.43-12.647-7.584-19.576-11.738c10.579,0.584,20.593,2.629,29.885,6.882
	c3.351,6.277,2.794,12.031,0.084,18.198c-3.504,7.975-8.467,15.024-13.029,22.346C431.362,483.32,430.614,485.216,429.639,487.191z
	 M417.613,498.519c2.372-0.176,3.984-0.294,5.157-0.381c1.676-1.33,3.024-2.542,4.514-3.55c3.096-2.094,6.418-3.806,8.643-7.047
	c1.269-1.848,3.428-1.879,5.364-0.561c0.642-1.379,1.233-2.648,1.892-4.061c2.875,0.367,5.453,0.573,6.159,4.515
	c-1.104,0.777-2.453,1.727-3.792,2.669c0,2.504,0,4.659,0,6.864c-0.949,0.994-1.917,2.007-3.071,3.215
	c-1.083-0.456-2.249-0.948-3.597-1.517c-0.745,0.661-1.553,1.377-2.593,2.3c-0.705-0.274-1.535-0.598-2.633-1.025
	c-1.869,2.691-4.495,3.991-7.637,2.837c-4.583,3.899-8.837,7.521-13.446,11.444C412.534,508.389,418.207,504.746,417.613,498.519z
	 M98.557,483.458c-0.645,5.114-3.456,8.045-6.256,10.982c-0.491,5.019-0.491,5.019-4.524,8.379c-0.47,1.787-0.981,3.727-1.491,5.667
	c0.533,0.96,1.033,1.862,1.67,3.008c-0.83-0.054-1.406,0.049-1.849-0.144c-3.953-1.715-4.153-5.442-4.326-8.818
	c-0.295-5.806-0.082-11.637-0.082-18.238c3.934-1.26,8.423-2.698,13.189-4.225C96.191,481.272,97.355,482.347,98.557,483.458z
	 M472.572,487.592c-3.03,2.075-5.257,3.6-8.218,5.627c3.209-6.336,6.058-11.96,8.906-17.583c0.329,0.09,0.658,0.178,0.986,0.267
	C473.677,479.875,473.108,483.845,472.572,487.592z M409.542,429.276c-5.193,1.3-8.595-1.672-9.944-8.688
	C403.175,420.538,403.175,420.538,409.542,429.276z M449.873,499.077c0.224,1.309,0.399,2.323,0.662,3.853
	c-4.914,3.821-9.939,7.728-14.964,11.635c-0.302-0.316-0.605-0.631-0.907-0.947C439.516,508.98,444.368,504.341,449.873,499.077z
	 M454.021,507.228c-0.735,3.011-0.853,6.267-4.615,8.105c-0.882-0.764-1.899-1.645-2.893-2.504
	C450.131,508.121,450.281,508.011,454.021,507.228z M467.102,478.106c-2.458,3.448-4.622,6.483-6.786,9.519
	c-0.376-0.222-0.752-0.444-1.128-0.667c1.955-3.867,3.909-7.734,6.222-12.31C466.133,476.124,466.556,476.989,467.102,478.106z
	 M468.24,467.989c-0.87-4.674-1.675-9.01-2.521-13.558C469.48,456.313,470.513,462.613,468.24,467.989z M288.134,362.09
	c-0.175-2.33-0.35-4.66-0.544-7.242c1.423,0.148,2.653,0.276,3.93,0.409c3.049-1.383,4.979-5.699,9.185-3.218
	c1.846-1.554,3.391-2.856,5.038-4.244c1.37,0.621,2.683,1.217,3.87,1.755c0.537-0.329,1.075-0.471,1.133-0.722
	c1.033-4.407,7.46-5.735,6.82-11.518c-1.254,0.217-2.231,0.386-4.254,0.736c1.456-2.028,2.442-3.399,3.591-4.999
	c-1.162-3.983-3.882-6.287-9.219-6.725c5.434-2.312,9.947-4.432,15.286-4.183c2.768,0.129,5.583-0.204,8.341-0.578
	c2.087-0.283,3.824-1.302,4.684-3.991c-1.525-0.663-2.908-1.264-4.558-1.982c-0.421-1.552-0.886-3.269-1.344-4.956
	c-7.936,1.136-16.047-1.281-23.897,2.857c-1.958-2.293-4.442-2.781-7.83-1.083c-3.042,1.523-6.65,1.949-10.229,2.918
	c-1.597-2.054-3.151-4.054-4.827-6.21c0.402-0.959,0.808-1.93,1.302-3.109c-0.852-1.005-1.754-2.07-2.901-3.423
	c3.022-2.269,5.8-4.356,8.853-6.649c4.237-0.991,9.71,1.524,13.458-3.792c2.223,0.49,4.462,0.983,6.637,1.462
	c0.489,2.328,0.851,4.041,1.366,6.489c1.437-1.281,2.412-2.15,3.554-3.165c4.276,0.717,8.655,1.452,13.199,2.214
	c1.391-2.487-2.411-2.537-2.354-4.404c0.073-1.449,0.146-2.899,0.209-4.144c-2.322-4.625-8.835-5.418-9.825-11.172
	c1.899-1.817,3.705-1.525,5.526-0.146c5.489,4.16,10.841,8.511,16.504,12.426c2.531,1.751,5.679,2.638,8.937,3.414
	c5.257,5.388,10.513,10.776,16.057,16.458c-0.586,0.952-1.225,1.991-1.865,3.031c0,2.521,0,5.066,0,7.595
	c-2.026,1.526-3.96,2.982-5.892,4.438c0.226,0.279,0.451,0.556,0.677,0.834c-1.248,0-2.495,0-4.164,0
	c-0.668-2.456-1.303-4.791-2.209-8.126c-1.716,3.248-2.749,5.926-4.413,8.147c-1.603,2.141-3.857,3.809-6.468,6.298
	c-0.463,0-1.905,0-3.049,0c-1.998,1.343-3.68,2.474-5.45,3.663c-0.986,2.523-1.982,5.069-3.15,8.055
	c0.138,0.794,0.449,2.041,0.558,3.306c0.238,2.758-1.05,4.501-3.731,5.406c-3.519,1.189-6.909,2.87-10.507,3.679
	c-3.015,0.678-6.397,1.064-9.357,0.421c-6.326-1.376-11.779-0.325-16.703,3.728L288.134,362.09z M289.874,235.933
	c-3.462-1.655-5.995-2.865-7.477-3.573c-4.024-4.041,0.612-6.978-0.948-9.868c9.301-10.246,18.401-19.829,35.332-16.835
	c-5.968,0.347-10.248,1.602-12.973,6.415c3.808-0.206,7.275-0.116,10.641-0.65c3.493-0.554,6.636,0.064,9.751,1.42
	c4.9,2.133,9.949,1.687,15.836,1.23c-4.52-4.194-9.182-6.444-14.056-8.392c8.714-0.136,15.152,4.388,21.1,9.985
	c-0.247,0.904-0.433,1.589-0.62,2.276c0.99,0.435,1.98,0.87,3.285,1.441c-0.203,6.385-6.796,4.592-9.576,7.95
	c-0.631-1.296-1.054-2.164-1.321-2.713c-7.173,1.472-14.12,2.899-21.498,4.413c-1.664,5.019-5.939,5.419-11.079,4.377
	c0.126,1.869,0.219,3.257,0.323,4.803C305.689,239.254,293.218,237.877,289.874,235.933z M296.198,225.16
	c2.581,2.259,5.067,2.182,7.994,1.656c-1.563-2.664-2.823-4.812-4.134-7.047C296.925,220.393,295.975,222.177,296.198,225.16z
	 M328.339,220.132c-0.033-0.515-0.066-1.029-0.099-1.544c-1.775-0.702-3.551-1.403-5.715-2.257c-0.858,2.909-1.594,5.405-2.332,7.9
	c0.263,0.22,0.525,0.439,0.787,0.659C323.435,223.304,325.888,221.718,328.339,220.132z M319.866,179.272
	c-0.204-0.61,13.978-3.107,15.865-0.702c0.15,1.365,0.328,2.981,0.562,5.122c10.064,0.692,18.636,3.822,21.208,15.6
	c-0.339,0.951-0.881,2.469-1.336,3.746c-2.653,1.279-9.263-1.17-12.087-4.159c-13.074-4.105-25.783-2.355-38.323,1.995
	c-9.117,3.163-18.193,6.439-27.127,9.608c-6.649-2.592-6.94-3.258-5.103-11.716c1.82,0.977,3.577,1.92,5.987,3.214
	c-0.441-1.617-0.699-2.559-1.091-3.993c1.646-0.181,3.19-0.351,4.125-0.454c4.244-2.546,7.985-4.915,11.858-7.048
	c1.412-0.777,3.117-1.278,4.731-1.414c5.656-0.475,10.672-2.089,14.792-6.224C315.404,181.365,317.611,180.591,319.866,179.272z
	 M160.794,226.708c-1.329-3.694-0.567-6.751,2.508-9.356c1.542-1.306,2.905-2.843,4.211-4.388c3.913-4.63,8.338-8.433,15.532-8.962
	c7.051,3.143,20.528,2.534,26.906,0.028c7.902,1.212,14.779,2.267,21.657,3.322c0.025-0.18,0.051-0.36,0.075-0.539
	c2.907,1.197,5.816,2.394,8.704,3.583c0.061,4.273-0.367,4.715-6.887,7.53c-12.788-0.532-25.001-1.156-37.222-1.46
	c-2.915-0.073-5.955,0.626-8.767,1.501c-4.967,1.545-9.832,3.432-14.68,5.32c-1.681,0.654-3.279,1.616-4.758,2.654
	C165.785,227.545,163.517,228.305,160.794,226.708z M214.049,221.772c8.979,1.001,17.557,3.033,24.692,9.958
	c-0.627,2.06-1.258,4.13-1.911,6.278c-1.304,0.808-2.54,1.574-4.089,2.533c-1.684,5.722-6.12,8.003-12.393,7.884
	c-0.065-0.963-0.134-1.966-0.194-2.858c-8.084-5.67-17.162-3.981-25.962-3.683c-2.819,0.096-5.721,0.179-8.525,1.645
	c-1.708,0.892-4.287,0.165-7.024,0.165c4.173-7.185,11.378-9.239,17.436-12.863c6.566-3.929,13.755-4.077,21.515-4.433
	c-1.351-1.126-2.702-2.254-4.053-3.38C213.71,222.601,213.88,222.187,214.049,221.772z M198.506,233.299
	c-1.82,1.405-2.981,2.301-4.237,3.27c1.923,2.753,3.978,3.183,6.887,2.248C200.36,237.161,199.677,235.737,198.506,233.299z
	 M192.216,337.421c-0.761-0.597-1.903-1.492-3.271-2.565c1.115-1.664,2.214-3.302,3.313-4.942c-0.277-0.871-0.549-1.722-0.895-2.811
	c3.969-0.547,5.619-3.131,5.774-6.028c3.823-4.381,7.206-8.193,10.492-12.082c0.566-0.669,1.019-1.668,1.026-2.518
	c0.059-7.743,5.662-12.39,9.848-17.707c2.415-0.783,4.639-1.504,7.3-2.366c0,1.126,0.263,1.952-0.04,2.425
	c-2.978,4.643-6.298,9.092-9.006,13.879c-1.724,3.047-2.581,6.57-3.822,9.881c-1.214,3.241-2.424,6.483-3.731,9.984
	c1.107,0,2.274,0,3.898,0c0.819,1.072,1.782,2.331,3,3.926c-2.09,1.85-3.959,3.505-5.937,5.255
	c-6.365-1.005-10.05,1.992-11.694,8.474c0.873,2.554,1.918,5.607,3.114,9.107c-2.589-0.942-4.608-1.676-6.627-2.411
	c-0.351,0.281-0.701,0.561-1.052,0.843C193.367,344.477,192.831,341.188,192.216,337.421z M215.756,343.245
	c-2.131,0-3.982,0-6.322,0c-1.055-1.474-2.195-3.067-3.42-4.78c0.833-1.279,1.504-2.309,2.166-3.326
	c2.748-0.18,5.294-0.347,8.12-0.533c0.993,0.78,2.133,1.677,3.003,2.36c6.142-0.288,12.023-0.564,18.273-0.857
	c-0.074,0.37,9.636-0.155,22.29-1.604c4.24-0.485,8.354-0.015,12.997-0.708c18.903-2.824,27.869-5.35,23.304-4.46
	c-6.011,1.174,7.335-1.889,2.379-0.547c-5.725,1.55-18.083,4.469-22.825,5.402c-6.226,1.227-12.19,0.706-16.96,1.201
	c-11.636,1.208-16.883,3.875-20.019,4.318c-0.719,0.958-2.097,1.086-2.127,1.233c1.523,2.228,2.857,4.182,4.117,6.026
	c-0.45,1.122-0.778,1.937-1.122,2.798c2.489,3.874,6.332,4.837,10.633,4.778c1.847,1.294,3.646,2.556,5.518,3.869
	c1.958-1.18,3.826-2.307,6.006-3.62c0.497,1.91,0.894,3.435,1.353,5.195c-8.987-0.25-17.788,0.158-26.306-2.336
	c-2.075-0.608-4.545-1.375-5.82-2.894C226.849,349.825,221.051,347.217,215.756,343.245z M300.131,276.515
	c-4.652,4.979-4.652,4.979-10.096,5.88c-2.068-1.946-4.431-4.17-7.553-7.108C289.067,274.625,294.559,273.882,300.131,276.515z
	 M288.11,362.05c-1.623,0.907-3.246,1.815-5.151,2.88c-1.018-0.623-2.252-1.378-3.347-2.049c-2.47-0.259-4.802-0.504-7.521-0.789
	c6.043-5.779,12.049-5.621,16.043-0.002L288.11,362.05z M240.184,305.497c5.751-3.116,7.024-2.899,12.559,1.839
	C249.551,311.254,245.962,310.803,240.184,305.497z M177.746,237.655c3.914-5.252,7.341-10.796,15.409-11.542
	c-5.017,4.287-9.534,8.158-14.088,11.989C178.935,238.213,178.433,237.897,177.746,237.655z M219.606,383.546
	c3.08,3.038,3.113,4.452,0.113,7.967C217.312,388.816,217.204,386.264,219.606,383.546z"/>
</svg>
