<?xml version="1.0" encoding="utf-8"?>
<!-- Generator: Adobe Illustrator 17.0.0, SVG Export Plug-In . SVG Version: 6.00 Build 0)  -->
<!DOCTYPE svg PUBLIC "-//W3C//DTD SVG 1.1//EN" "http://www.w3.org/Graphics/SVG/1.1/DTD/svg11.dtd">
<svg version="1.1" id="Layer_1" xmlns="http://www.w3.org/2000/svg" xmlns:xlink="http://www.w3.org/1999/xlink" x="0px" y="0px"
	 width="566.929px" height="566.929px" viewBox="1173.858 0 566.929 566.929" enable-background="new 1173.858 0 566.929 566.929"
	 xml:space="preserve">
<path d="M370.03,535.588c-2.617-2.22-5.233-4.442-8.641-7.333c0.962-0.318,1.991-0.66,3.019-1c-0.182-0.282-0.364-0.565-0.545-0.847
	c-0.672-0.167-1.344-0.333-2.203-0.545c0.572-2.072,1.166-4.224,1.929-6.994c-1.276,0.148-1.894,0.22-2.657,0.308
	c-2.581-1.637-5.325-3.378-8.197-5.199c2.365-6.073,4.706-12.063,5.51-18.528c-0.88-2.357-1.78-4.769-2.683-7.187
	c0.479-1.085,0.917-2.077,1.493-3.381c-4.259-4.47-8.598-9.023-12.939-13.577c-0.208,0.167-0.414,0.335-0.622,0.502
	c-0.258-1.241-0.517-2.482-0.691-3.322c-3.181-1.765-6.038-3.351-9.422-5.229c-0.361,0.113-1.412,0.438-3.329,1.033
	c-0.199-0.424-0.582-1.247-1.155-2.471c-2.939,0.959-5.665,1.849-9.277,3.028c-1.431,0.132-3.901,0.359-7.463,0.687
	c-3.402-2.002-7.782-1.146-12.208,0.727c-3.44,1.457-6.935,1.237-10.703,0.783c-3.85-0.464-7.912,0.77-11.802,2.075
	c-2.102-0.515-4.204-1.031-6.755-1.657c-0.114-0.883-0.268-2.08-0.502-3.886c-2.316-0.376-4.808-0.779-7.761-1.258
	c-0.397-0.637-1.04-1.666-2.038-3.264c-1.865,0.939-3.588,1.807-5.173,2.605c-0.239,1.376-0.417,2.403-0.658,3.792
	c-1.546-0.405-2.858-0.747-4.841-1.266c1.499-0.654,2.262-0.987,2.914-1.272c-2.884-2.67-5.719-5.294-8.623-7.982
	c-1.339,1.127-2.53,2.13-3.754,3.159c-1.222-0.523-2.227-0.954-3.478-1.489c-0.912,0.662-1.933,1.401-3.365,2.44
	c1.725,1.264,3.147,2.307,4.678,3.428c-0.057,0.598-0.122,1.267-0.242,2.514c-1.978-1.543-3.529-2.753-5.479-4.274
	c-3.687,3.494-9.737,3.716-11.737,8.482c-9.304,5.278-18.289,9.708-28.809,9.989c0.148,2.564,0.239,4.127,0.368,6.35
	c-1.493-1.6-2.571-2.755-4.088-4.38c-3.821,0.654-7.798,1.336-11.777,2.018c0.022,0.167,0.046,0.335,0.068,0.502
	c-2.007-0.307-4.015-0.615-6.3-0.965c-1.349,1.178-2.709,2.365-4.419,3.858c3.22,4.76,6.285,9.29,9.378,13.864
	c-2.317-0.871-2.342-0.852-5.224-4.535c-1.59-2.031-3.08-4.138-4.723-6.356c-2.218,0-4.424,0-6.6,0
	c-5.622-2.838-7.479-8.699-11.507-13.715c1.584-0.667,2.959-1.244,4.478-1.883c-0.986-2.104-2.056-4.384-3.241-6.913
	c0.898-0.994,1.851-2.05,2.764-3.059c-0.948-4.729-2.108-9.275-2.65-13.892c-0.192-1.634,1.032-3.48,1.799-5.146
	c0.347-0.754,1.154-1.302,2.195-1.828c-2.062,5.086-3.133,10.043,0.395,15.398c0.412-0.674,0.672-1.17,1.001-1.619
	c0.313-0.427,0.698-0.803,1.339-1.527c0.866,1.051,1.617,1.963,2.463,2.99c1.891-1.247,3.945-2.603,6.289-4.149
	c1.989,2.827,4.055,5.042,4.054,8.804c0,2.508,1.807,5.016,2.871,7.691c2.637-0.41,5.158-0.801,8.481-1.317
	c-1.063-3.162-1.971-6.045-2.999-8.885c-1.814-5.011-4.071-9.899-5.477-15.015c-2.458-8.944,0.96-13.966,10.056-16.265
	c2.828-0.715,5.451-2.21,8.478-3.479c1.914,2.395-0.497,4.716-0.064,7.336c-1.737,0-3.137,0-4.589,0
	c-2.947,2.707-5.867,5.388-8.344,7.662c-1.753,10.642,3.458,18.502,7.621,27.107c3.115-0.407,6.183-0.808,9.251-1.208
	c-0.1-0.222-0.201-0.444-0.301-0.667c5.16-2.648,10.322-5.296,15.575-7.991c-0.375-0.475-0.87-1.102-1.646-2.087
	c8.459-2.58,13.054-9.137,17.703-16.279c-3.07-1.718-6.107-3.417-9.356-5.234c0.787-0.471,1.665-0.996,2.608-1.561
	c-0.783-2.405-1.385-4.254-2.019-6.2c-1.214,0.494-2.003,0.816-3.048,1.24c0.203-1.241,0.37-2.26,0.566-3.455
	c-0.873-0.619-1.761-1.249-3.003-2.129c-0.586,1.214-1.122,2.327-1.66,3.44c-0.37-0.303-0.741-0.606-1.111-0.907
	c0.139-0.752,0.279-1.502,0.302-1.627c-3.055-3.075-5.875-5.807-8.569-8.653c-2.751-2.907-5.925-4.456-9.692-3.478
	c-2.929-4.917-5.543-9.721-8.611-14.223c-0.985-1.446-3.17-2.098-5.556-3.578c-2.208-6.621-7.4-12.433-11.851-18.774
	c-4.761-6.782-7.344-14.7-9.198-22.827c-0.913-4.004-2.815-7.791-4.767-11.528c-0.525-4.825-0.876-9.535-3.299-14.238
	c-1.515-2.942-0.506-7.133-0.67-10.763c-0.396-8.799-0.842-17.595-1.216-26.395c-0.279-6.551-2.512-12.431-6.256-18.658
	c-0.553,1.725-0.889,2.775-1.335,4.168c-2.633-5.371-5.073-10.347-7.905-16.125c-1.544-0.098-3.523-0.225-5.503-0.353
	c-0.047,0.27-0.093,0.539-0.14,0.809c-0.87-0.622-1.739-1.245-3.29-2.354c2.823-0.823,4.884-1.425,7.142-2.083
	c0.095-0.628,0.197-1.308,0.383-2.533c-1.593,0.212-2.832,0.378-4.292,0.573c-2.649-13.953-5.278-27.801-7.953-41.891
	c-0.578,0.515-1.059,0.943-2.117,1.884c0-3.516,0.007-6.542-0.001-9.569c-0.034-12.477,1.176-24.77,3.916-37.019
	c2.031-9.08,2.475-18.495,3.959-27.708c0.605-3.758,1.94-7.429,3.206-11.051c2.423-6.93,5.202-13.743,7.465-20.72
	c0.669-2.06,0.103-4.508,0.103-7.376c0.951-1.714,2.194-3.95,3.492-6.288c-0.953-0.321-1.763-0.594-3.101-1.044
	c3.077-4.12,6-8.036,10.385-13.908c4.603-3.015,11.229-7.355,17.855-11.697c0.146,0.221,0.291,0.442,0.436,0.662
	c1.369-1.909,2.738-3.817,4.081-5.691c5.581-0.935,8.767-4.858,12.308-8.843c2.031,0,4.201,0,6.783,0
	c-0.132-0.514-0.281-1.09-0.438-1.701c10.178-1.596,17.611-4.691,23.128-9.727c2.021,0.327,4.203,0.681,6.563,1.063
	c1.203-0.699,2.463-1.429,2.91-1.689c5.427,0,10.012,0,14.853,0c2.214-2.374,4.468-4.792,6.916-7.418
	c5.067,1.839,10.384,2.071,15.847-1.081c0.258,0.628,0.557,1.352,0.969,2.353c6.227,0.563,12.415,3.567,18.437,1.459
	c3.388,0.368,6.268,0.681,9,0.978c1.578-1.269,2.844-2.286,3.811-3.064c2.773,0.885,5.192,1.657,7.504,2.395
	c4.576,4.955,11.059,4.683,17.238,6.165c0.35,0.953,0.766,2.083,1.162,3.16c7.345,3.206,14.525,6.367,21.376,10.531
	c7.681,4.667,14.439,10.327,21.173,16.015c3.885,3.279,6.946,7.675,9.788,11.948c7.439,11.183,14.435,22.597,20.484,34.64
	c5.926,11.797,10.017,24.067,13.325,36.704c0.693,2.649,1.784,5.197,2.291,7.901c0.735,2.908,1.647,5.784,2.172,8.728
	c2.187,12.269,4.173,24.557,4.824,37.037c0.167,3.205,1.587,6.346,2.461,9.629c-1.067,0.722-2.13,1.439-3.431,2.319
	c-0.059,1.12-0.126,2.359-0.203,3.822c1.085,0.48,2.07,0.915,2.277,1.007c3.945,17.845,7.105,35.385,7.958,53.767
	c-5.013-2.486-1.878-7.564-4.639-10.298c-3.116,3.024-4.701,8.263-4.374,13.809c2.657,3.494,5.197,6.833,8.032,10.557
	c-1.873,1.103-3.239,1.908-4.609,2.713c-0.364-0.422-0.71-0.825-1.032-1.198c-4.092,1.511-2.802,9.042,2.592,13.865
	c-1.93,0.526-3.602,0.981-5.703,1.555c0.478,1.866,0.913,3.562,1.093,4.262c-0.163,3.348-0.825,5.833-0.297,8.044
	c2.157,9.04-0.525,16.939-4.944,24.684c-3.253,5.702-6.34,11.533-8.978,17.529c-2.283,5.188-3.529,10.82-5.827,16.001
	c-1.219,2.747-3.656,4.984-5.624,7.387c-1.314,1.605-3.245,2.479-3.934,4.906c-0.432,1.523-2.899,2.593-4.602,3.63
	c-2.143,1.305-4.437,2.369-6.284,3.336c-0.457,8.587-6.489,12.164-12.09,16.071c-0.169,1.746-0.327,3.356-0.498,5.115
	c-1.69,0.755-3.348,1.495-5.379,2.403c0.953,1.201,1.698,2.142,2.442,3.085c-0.116,1.975-0.231,3.948-0.353,6.029
	c-1.332,0.876-2.688,1.768-4.428,2.912c1.606,0.869,2.81,1.52,4.645,2.513c-3.082,1.03-6.509-0.16-7.72,3.283
	c0.234,3.676,4.037,3.189,6.287,5.027c-0.53,0.84-1.059,1.68-1.77,2.804c1.289,0.288,2.466,0.553,4.004,0.897
	c-0.229,0.844-0.448,1.657-0.668,2.47c0.073,0.169,0.111,0.458,0.225,0.491c3.734,1.078,3.487,5.203,5.833,7.428
	c1.522,1.443,2.715,3.577,3.252,5.607c1.575,5.969,2.419,12.136,4.159,18.051c2.575,8.752,6.258,17.104,11.025,24.954
	c0.572,0.943,1.188,1.873,1.635,2.875c0.981,2.198,2.059,3.839,4.746,4.81c2.2,0.796,4.248,3.096,5.448,5.229
	c1.897,3.375,4.41,5.768,8.863,7.48c-1.446,0.875-2.353,1.424-3.476,2.103c0.476,1.596,0.883,2.963,1.292,4.33
	C386.487,535.588,378.258,535.588,370.03,535.588z M140.516,165.46c2.054,3.635,4.611,8.597,0.646,13.987
	c1.243,1.061,2.195,1.873,3.778,3.224c-2.659,4.814-0.79,9.693,0.527,14.653c0.369,1.39,0.079,2.94,0.226,4.403
	c0.165,1.635,0.466,3.256,0.738,4.879c0.451,2.685,1.018,5.354,1.368,8.051c0.401,3.086,0.822,6.192,0.873,9.295
	c0.099,6.061-0.053,12.126-0.103,18.189c-0.056,6.745-0.616,13.531-0.048,20.226c0.726,8.561,2.372,17.047,3.597,25.569
	c0.678,4.713,0.945,9.518,2.059,14.126c1.109,4.588,3.044,8.982,4.703,13.707c-2.42,2.811-1.854,5.883-1.129,9.278
	c1.143,5.35,1.557,10.851,2.278,16.269c1.24,3.589,2.507,7.254,3.909,11.312c3.393,1.151,3.393,1.151,2.079,8.877
	c1.178,1.424,2.806,2.955,3.895,4.798c2.327,3.937,4.103,8.21,6.642,11.997c1.461,2.181,3.723,4.707,6.061,5.248
	c3.547,0.82,5.219,2.575,6.959,5.443c1.439,2.372,4.028,4.15,6.337,5.898c1.832,1.388,4.011,2.332,6.037,3.474
	c0.035-0.05,0.07-0.099,0.104-0.149c1.985,1.088,3.971,2.174,6,3.286c0.683-0.904,1.636-2.162,2.406-3.18c2.639,0,4.848,0,6.836,0
	c3.343-2.558,5.974-4.893,6.426-9.379c0.278-2.756,2.789-5.294,3.922-7.272c3.49,0.433,6.135,0.762,9.284,1.152
	c0.421,0.468,1.26,1.401,2.099,2.335c0.11-0.256,0.219-0.513,0.329-0.768c4.561,1.2,9.121,2.399,14.457,3.803
	c3.554-0.825,7.997-1.856,12.532-2.908c0.315-1.746,0.637-3.528,0.908-5.021c2.472-2.808,5.503-3.448,8.715-3.825
	c4.56-0.535,9.099-1.237,13.77-1.884c0.114,0.382,0.389,1.299,0.95,3.169c0.643-1.568,0.969-2.369,1.382-3.376
	c1.841,2.453,3.043,4.054,4.267,5.684c2.384-0.854,4.595-1.646,7.136-2.556c8.396,4.577,16.857,1.555,25.15-0.802
	c5.573,2.846,10.905,5.568,15.938,8.138c0.256,1.97,0.432,3.318,0.65,4.999c1.849-0.275,3.318-0.405,4.742-0.728
	c1.602-0.364,3.164-0.902,4.483-1.288c7.925-18.566,8.674-17.38,15.033-22.99c-0.103-1.726-0.205-3.452-0.315-5.289
	c1.351,0,2.252,0,2.96,0c0.981,1.233,1.812,2.279,3.141,3.949c1.001-2.704,1.72-4.649,2.611-7.054
	c2.044,1.074,3.731,1.96,5.745,3.018c1.446-4.935,2.81-9.59,4.497-15.347c0.478-2.922,1.146-6.996,1.92-11.724
	c0.971-0.639,2.516-1.656,4.22-2.777c-2.684-3.493-0.652-6.902-2.723-9.81c-1.846-2.592-3.007-5.657-4.311-8.201
	c1.298-1.641,2.075-2.623,2.767-3.497c-0.46-1.13-0.802-1.966-1.139-2.794c1.462-0.834,2.871-1.638,4.869-2.779
	c-1.553-3.548-3.027-6.917-4.77-10.897c0.332-0.938,0.926-2.618,1.473-4.17c-1.492-1.301-2.835-2.472-4.475-3.901
	c1.555-0.762,2.665-1.304,3.743-1.832c0.745-3.306,1.461-6.48,2.244-9.956c-0.554-1.2-1.249-2.706-1.906-4.131
	c0.52-6.393,1.03-12.687,1.534-18.893c-1.142-2.695-2.281-5.38-3.419-8.066c0.364-0.04,0.728-0.081,1.093-0.12
	c0.14-2.228,0.598-4.493,0.341-6.675c-0.32-2.719-0.976-5.461-1.934-8.032c-2.297-6.165-3.827-12.546-7.213-18.411
	c-2.89-5.009-4.809-10.754-6.108-16.406c-1.258-5.475-2.353-10.892-4.443-14.618c-1.064-4.845-1.838-8.377-2.617-11.924
	c-1.312-0.847-2.535-1.636-3.49-2.251c-2.594-6.198-5.046-12.057-7.539-18.014c3.584-2.879,2.389-6.744,2.493-9.117
	c-1.002-2.509-1.913-3.898-2.086-5.371c-0.862-7.345-4.768-13.404-9.25-18.784c-4.191-5.028-9.722-8.972-14.99-13.686
	c-2.998-0.995-6.413-2.128-11.032-3.659c1.94,3.369,3.182,5.526,4.572,7.939c1.651,0.949,4.468,1.185,4.468,4.588
	c-2.274,0.345-4.386,0.664-6.629,1.004c-1.068-0.548-2.218-1.138-3.513-1.804c-2.329,1.387-4.695,2.795-6.353,3.783
	c-2.74,0-5.578,0.844-6.712-0.166c-2.839-2.528-5.38-1.272-8.258-0.293c-0.101-1.312-0.177-2.3-0.258-3.333
	c-1.781,0.48-3.32,0.894-6.133,1.651c1.921-2.219,2.987-3.452,3.735-4.315c-2.543-1.246-4.856-2.378-7.769-3.805
	c-3.987,1.166-7.6-0.377-9.807-4.565c-5.394-1.546-10.506-3.013-16.219-4.651c-5.917,2.527-11.188-1.657-16.448-3.378
	c-1.719,0.561-2.98,0.974-5.044,1.647c0.632-4.043,2.396-5.082,5.507-4.602c0.59,0.091,1.26-0.318,2.38-0.634
	c-0.95-1.215-1.585-2.026-2.289-2.926c-1.533,0.567-2.879,1.064-4.05,1.498c-1.794-0.654-3.319-1.21-3.592-1.309
	c-3.717,1.985-6.471,3.455-9.387,5.012c-1.206-1.682-2.031-2.832-2.944-4.105c-7.748-0.543-14.201,2.691-20.158,6.984
	c-2.593,0-5.002,0-6.529,0c-3.67,1.728-6.582,3.242-9.607,4.487c-3.701,1.522-7.977,1.852-10.636,5.43
	c-0.498,0.671-1.525,0.998-2.356,1.384c-3.166,1.467-6.353,2.892-8.396,3.82c-2.697,3.17-4.67,5.488-6.53,7.674
	c-1.176-0.294-1.682-0.453-2.2-0.542c-0.498-0.085-1.009-0.097-2.014-0.187C149.29,127.027,139.597,143.878,140.516,165.46z
	 M411.167,266.939c-0.402-8.671-4.833-22.051-8.358-24.387C404.06,250.797,402.757,259.81,411.167,266.939z M104.1,535.588
	c-0.621-2.14-1.241-4.281-1.862-6.42c-0.256,0.051-0.511,0.102-0.766,0.153c0.282-1.312,0.563-2.624,1.031-4.8
	c1.371-1.072,3.497-2.734,5.663-4.427c1.694-4.037-2.945-5.52-3.845-9.815c0.071-3.117-0.826-7.327,1.324-11.7
	c1.433-2.915,1.059-6.693,1.476-10.086c0.2-1.627,0.355-3.258,0.559-5.153c1.423-0.354,2.742-0.682,4.488-1.116
	c-0.706-2.144-1.327-4.029-2.107-6.397c3.54-6.565,6.836-13.739,15.471-17.579c1.689-2.965,4.716-5.428,9.614-6.462
	c-1.149,4.739-5.683,6.038-7.705,9.301c-2.122,3.425-4.596,6.648-6.57,10.148c-1.984,3.519-3.54,7.271-5.499,11.373
	c1.98,4.577,0.674,9.343-0.496,14.207c-0.534,2.217-0.285,4.704,0.028,7.014c0.599,4.422,0.441,8.639-0.946,12.988
	c-0.902,2.829-0.54,6.051-0.781,9.658c-0.994,2.616-2.23,5.864-3.465,9.114C107.84,535.588,105.971,535.588,104.1,535.588z
	 M504.678,482.536c-1.095-0.066-2.19-0.133-3.523-0.213c-1.186-4.344-5.149-5.909-8.524-7.8c-3.107-1.741-5.009-4.052-6.322-7.142
	c1.611-2.077,3.097-0.658,4.381,0.091c4.704,2.743,9.332,5.611,13.989,8.433C504.678,478.115,504.678,480.326,504.678,482.536z
	 M79.415,535.588c-0.267-2.17-0.533-4.339-0.837-6.814c1.804-2.732,3.711-5.614,8.086-4.66c-0.401,2.619-0.401,2.619-3.573,4.068
	c0.261,2.383,0.537,4.894,0.812,7.406C82.407,535.588,80.91,535.588,79.415,535.588z M429.639,487.191
	c-10.02,5.468-16.369,15.409-27.695,18.561c1.848-1.703,3.575-3.56,5.567-5.082c7.837-5.992,14.497-13.09,20.572-20.763
	c1.946-2.457,3.984-4.849,5.816-7.385c1.181-1.637,2.365-3.383,3.013-5.259c1.075-3.115,1.719-6.373,2.497-9.383
	c-1.325-3.643-2.571-7.068-4.347-11.953c-5.719-3.43-12.647-7.584-19.576-11.738c10.579,0.584,20.593,2.629,29.885,6.882
	c3.351,6.277,2.794,12.031,0.084,18.198c-3.504,7.975-8.467,15.024-13.029,22.346C431.362,483.32,430.614,485.216,429.639,487.191z
	 M417.613,498.519c2.372-0.176,3.984-0.294,5.157-0.381c1.676-1.33,3.024-2.542,4.514-3.55c3.096-2.094,6.418-3.806,8.643-7.047
	c1.269-1.848,3.428-1.879,5.364-0.561c0.642-1.379,1.233-2.648,1.892-4.061c2.875,0.367,5.453,0.573,6.159,4.515
	c-1.104,0.777-2.453,1.727-3.792,2.669c0,2.504,0,4.659,0,6.864c-0.949,0.994-1.917,2.007-3.071,3.215
	c-1.083-0.456-2.249-0.948-3.597-1.517c-0.745,0.661-1.553,1.377-2.593,2.3c-0.705-0.274-1.535-0.598-2.633-1.025
	c-1.869,2.691-4.495,3.991-7.637,2.837c-4.583,3.899-8.837,7.521-13.446,11.444C412.534,508.389,418.207,504.746,417.613,498.519z
	 M98.557,483.458c-0.645,5.114-3.456,8.045-6.256,10.982c-0.491,5.019-0.491,5.019-4.524,8.379c-0.47,1.787-0.981,3.727-1.491,5.667
	c0.533,0.96,1.033,1.862,1.67,3.008c-0.83-0.054-1.406,0.049-1.849-0.144c-3.953-1.715-4.153-5.442-4.326-8.818
	c-0.295-5.806-0.082-11.637-0.082-18.238c3.934-1.26,8.423-2.698,13.189-4.225C96.191,481.272,97.355,482.347,98.557,483.458z
	 M472.572,487.592c-3.03,2.075-5.257,3.6-8.218,5.627c3.209-6.336,6.058-11.96,8.906-17.583c0.329,0.09,0.658,0.178,0.986,0.267
	C473.677,479.875,473.108,483.845,472.572,487.592z M409.542,429.276c-5.193,1.3-8.595-1.672-9.944-8.688
	C403.175,420.538,403.175,420.538,409.542,429.276z M449.873,499.077c0.224,1.309,0.399,2.323,0.662,3.853
	c-4.914,3.821-9.939,7.728-14.964,11.635c-0.302-0.316-0.605-0.631-0.907-0.947C439.516,508.98,444.368,504.341,449.873,499.077z
	 M454.021,507.228c-0.735,3.011-0.853,6.267-4.615,8.105c-0.882-0.764-1.899-1.645-2.893-2.504
	C450.131,508.121,450.281,508.011,454.021,507.228z M467.102,478.106c-2.458,3.448-4.622,6.483-6.786,9.519
	c-0.376-0.222-0.752-0.444-1.128-0.667c1.955-3.867,3.909-7.734,6.222-12.31C466.133,476.124,466.556,476.989,467.102,478.106z
	 M468.24,467.989c-0.87-4.674-1.675-9.01-2.521-13.558C469.48,456.313,470.513,462.613,468.24,467.989z M288.134,362.09
	c-0.175-2.33-0.35-4.66-0.544-7.242c1.423,0.148,2.653,0.276,3.93,0.409c3.049-1.383,4.979-5.699,9.185-3.218
	c1.846-1.554,3.391-2.856,5.038-4.244c1.37,0.621,2.683,1.217,3.87,1.755c0.537-0.329,1.075-0.471,1.133-0.722
	c1.033-4.407,7.46-5.735,6.82-11.518c-1.254,0.217-2.231,0.386-4.254,0.736c1.456-2.028,2.442-3.399,3.591-4.999
	c-1.162-3.983-3.882-6.287-9.219-6.725c5.434-2.312,9.947-4.432,15.286-4.183c2.768,0.129,5.583-0.204,8.341-0.578
	c2.087-0.283,3.824-1.302,4.684-3.991c-1.525-0.663-2.908-1.264-4.558-1.982c-0.421-1.552-0.886-3.269-1.344-4.956
	c-7.936,1.136-16.047-1.281-23.897,2.857c-1.958-2.293-4.442-2.781-7.83-1.083c-3.042,1.523-6.65,1.949-10.229,2.918
	c-1.597-2.054-3.151-4.054-4.827-6.21c0.402-0.959,0.808-1.93,1.302-3.109c-0.852-1.005-1.754-2.07-2.901-3.423
	c3.022-2.269,5.8-4.356,8.853-6.649c4.237-0.991,9.71,1.524,13.458-3.792c2.223,0.49,4.462,0.983,6.637,1.462
	c0.489,2.328,0.851,4.041,1.366,6.489c1.437-1.281,2.412-2.15,3.554-3.165c4.276,0.717,8.655,1.452,13.199,2.214
	c1.391-2.487-2.411-2.537-2.354-4.404c0.073-1.449,0.146-2.899,0.209-4.144c-2.322-4.625-8.835-5.418-9.825-11.172
	c1.899-1.817,3.705-1.525,5.526-0.146c5.489,4.16,10.841,8.511,16.504,12.426c2.531,1.751,5.679,2.638,8.937,3.414
	c5.257,5.388,10.513,10.776,16.057,16.458c-0.586,0.952-1.225,1.991-1.865,3.031c0,2.521,0,5.066,0,7.595
	c-2.026,1.526-3.96,2.982-5.892,4.438c0.226,0.279,0.451,0.556,0.677,0.834c-1.248,0-2.495,0-4.164,0
	c-0.668-2.456-1.303-4.791-2.209-8.126c-1.716,3.248-2.749,5.926-4.413,8.147c-1.603,2.141-3.857,3.809-6.468,6.298
	c-0.463,0-1.905,0-3.049,0c-1.998,1.343-3.68,2.474-5.45,3.663c-0.986,2.523-1.982,5.069-3.15,8.055
	c0.138,0.794,0.449,2.041,0.558,3.306c0.238,2.758-1.05,4.501-3.731,5.406c-3.519,1.189-6.909,2.87-10.507,3.679
	c-3.015,0.678-6.397,1.064-9.357,0.421c-6.326-1.376-11.779-0.325-16.703,3.728L288.134,362.09z M289.874,235.933
	c-3.462-1.655-5.995-2.865-7.477-3.573c-4.024-4.041,0.612-6.978-0.948-9.868c9.301-10.246,18.401-19.829,35.332-16.835
	c-5.968,0.347-10.248,1.602-12.973,6.415c3.808-0.206,7.275-0.116,10.641-0.65c3.493-0.554,6.636,0.064,9.751,1.42
	c4.9,2.133,9.949,1.687,15.836,1.23c-4.52-4.194-9.182-6.444-14.056-8.392c8.714-0.136,15.152,4.388,21.1,9.985
	c-0.247,0.904-0.433,1.589-0.62,2.276c0.99,0.435,1.98,0.87,3.285,1.441c-0.203,6.385-6.796,4.592-9.576,7.95
	c-0.631-1.296-1.054-2.164-1.321-2.713c-7.173,1.472-14.12,2.899-21.498,4.413c-1.664,5.019-5.939,5.419-11.079,4.377
	c0.126,1.869,0.219,3.257,0.323,4.803C305.689,239.254,293.218,237.877,289.874,235.933z M296.198,225.16
	c2.581,2.259,5.067,2.182,7.994,1.656c-1.563-2.664-2.823-4.812-4.134-7.047C296.925,220.393,295.975,222.177,296.198,225.16z
	 M328.339,220.132c-0.033-0.515-0.066-1.029-0.099-1.544c-1.775-0.702-3.551-1.403-5.715-2.257c-0.858,2.909-1.594,5.405-2.332,7.9
	c0.263,0.22,0.525,0.439,0.787,0.659C323.435,223.304,325.888,221.718,328.339,220.132z M319.866,179.272
	c-0.204-0.61,13.978-3.107,15.865-0.702c0.15,1.365,0.328,2.981,0.562,5.122c10.064,0.692,18.636,3.822,21.208,15.6
	c-0.339,0.951-0.881,2.469-1.336,3.746c-2.653,1.279-9.263-1.17-12.087-4.159c-13.074-4.105-25.783-2.355-38.323,1.995
	c-9.117,3.163-18.193,6.439-27.127,9.608c-6.649-2.592-6.94-3.258-5.103-11.716c1.82,0.977,3.577,1.92,5.987,3.214
	c-0.441-1.617-0.699-2.559-1.091-3.993c1.646-0.181,3.19-0.351,4.125-0.454c4.244-2.546,7.985-4.915,11.858-7.048
	c1.412-0.777,3.117-1.278,4.731-1.414c5.656-0.475,10.672-2.089,14.792-6.224C315.404,181.365,317.611,180.591,319.866,179.272z
	 M160.794,226.708c-1.329-3.694-0.567-6.751,2.508-9.356c1.542-1.306,2.905-2.843,4.211-4.388c3.913-4.63,8.338-8.433,15.532-8.962
	c7.051,3.143,20.528,2.534,26.906,0.028c7.902,1.212,14.779,2.267,21.657,3.322c0.025-0.18,0.051-0.36,0.075-0.539
	c2.907,1.197,5.816,2.394,8.704,3.583c0.061,4.273-0.367,4.715-6.887,7.53c-12.788-0.532-25.001-1.156-37.222-1.46
	c-2.915-0.073-5.955,0.626-8.767,1.501c-4.967,1.545-9.832,3.432-14.68,5.32c-1.681,0.654-3.279,1.616-4.758,2.654
	C165.785,227.545,163.517,228.305,160.794,226.708z M214.049,221.772c8.979,1.001,17.557,3.033,24.692,9.958
	c-0.627,2.06-1.258,4.13-1.911,6.278c-1.304,0.808-2.54,1.574-4.089,2.533c-1.684,5.722-6.12,8.003-12.393,7.884
	c-0.065-0.963-0.134-1.966-0.194-2.858c-8.084-5.67-17.162-3.981-25.962-3.683c-2.819,0.096-5.721,0.179-8.525,1.645
	c-1.708,0.892-4.287,0.165-7.024,0.165c4.173-7.185,11.378-9.239,17.436-12.863c6.566-3.929,13.755-4.077,21.515-4.433
	c-1.351-1.126-2.702-2.254-4.053-3.38C213.71,222.601,213.88,222.187,214.049,221.772z M198.506,233.299
	c-1.82,1.405-2.981,2.301-4.237,3.27c1.923,2.753,3.978,3.183,6.887,2.248C200.36,237.161,199.677,235.737,198.506,233.299z
	 M192.216,337.421c-0.761-0.597-1.903-1.492-3.271-2.565c1.115-1.664,2.214-3.302,3.313-4.942c-0.277-0.871-0.549-1.722-0.895-2.811
	c3.969-0.547,5.619-3.131,5.774-6.028c3.823-4.381,7.206-8.193,10.492-12.082c0.566-0.669,1.019-1.668,1.026-2.518
	c0.059-7.743,5.662-12.39,9.848-17.707c2.415-0.783,4.639-1.504,7.3-2.366c0,1.126,0.263,1.952-0.04,2.425
	c-2.978,4.643-6.298,9.092-9.006,13.879c-1.724,3.047-2.581,6.57-3.822,9.881c-1.214,3.241-2.424,6.483-3.731,9.984
	c1.107,0,2.274,0,3.898,0c0.819,1.072,1.782,2.331,3,3.926c-2.09,1.85-3.959,3.505-5.937,5.255
	c-6.365-1.005-10.05,1.992-11.694,8.474c0.873,2.554,1.918,5.607,3.114,9.107c-2.589-0.942-4.608-1.676-6.627-2.411
	c-0.351,0.281-0.701,0.561-1.052,0.843C193.367,344.477,192.831,341.188,192.216,337.421z M215.756,343.245
	c-2.131,0-3.982,0-6.322,0c-1.055-1.474-2.195-3.067-3.42-4.78c0.833-1.279,1.504-2.309,2.166-3.326
	c2.748-0.18,5.294-0.347,8.12-0.533c0.993,0.78,2.133,1.677,3.003,2.36c6.142-0.288,12.023-0.564,18.273-0.857
	c-0.074,0.37,9.636-0.155,22.29-1.604c4.24-0.485,8.354-0.015,12.997-0.708c18.903-2.824,27.869-5.35,23.304-4.46
	c-6.011,1.174,7.335-1.889,2.379-0.547c-5.725,1.55-18.083,4.469-22.825,5.402c-6.226,1.227-12.19,0.706-16.96,1.201
	c-11.636,1.208-16.883,3.875-20.019,4.318c-0.719,0.958-2.097,1.086-2.127,1.233c1.523,2.228,2.857,4.182,4.117,6.026
	c-0.45,1.122-0.778,1.937-1.122,2.798c2.489,3.874,6.332,4.837,10.633,4.778c1.847,1.294,3.646,2.556,5.518,3.869
	c1.958-1.18,3.826-2.307,6.006-3.62c0.497,1.91,0.894,3.435,1.353,5.195c-8.987-0.25-17.788,0.158-26.306-2.336
	c-2.075-0.608-4.545-1.375-5.82-2.894C226.849,349.825,221.051,347.217,215.756,343.245z M300.131,276.515
	c-4.652,4.979-4.652,4.979-10.096,5.88c-2.068-1.946-4.431-4.17-7.553-7.108C289.067,274.625,294.559,273.882,300.131,276.515z
	 M288.11,362.05c-1.623,0.907-3.246,1.815-5.151,2.88c-1.018-0.623-2.252-1.378-3.347-2.049c-2.47-0.259-4.802-0.504-7.521-0.789
	c6.043-5.779,12.049-5.621,16.043-0.002L288.11,362.05z M240.184,305.497c5.751-3.116,7.024-2.899,12.559,1.839
	C249.551,311.254,245.962,310.803,240.184,305.497z M177.746,237.655c3.914-5.252,7.341-10.796,15.409-11.542
	c-5.017,4.287-9.534,8.158-14.088,11.989C178.935,238.213,178.433,237.897,177.746,237.655z M219.606,383.546
	c3.08,3.038,3.113,4.452,0.113,7.967C217.312,388.816,217.204,386.264,219.606,383.546z"/>
<g>
	<path stroke="#000000" stroke-width="0.0938" stroke-miterlimit="10" d="M872.134,31.737c10.903-1.283,22.172,0.641,32.433,4.489
		c-0.458,3.482-0.458,7.055-0.458,10.628c10.078-4.123,21.164,0.275,29.043,6.871c11.636,7.604,22.905,16.033,32.8,25.928
		c3.207,3.207,7.879,5.222,9.528,9.712c-0.367,1.466-1.283,2.84-2.107,4.123c-8.704-12.918-22.355-21.256-35.823-28.493
		c-15.392-8.521-33.441-8.246-50.482-9.986c-7.329-1.649-12.277,5.131-18.965,6.413c-16.217,3.573-31.425,11.269-43.794,22.263
		c-16.583,16.217-27.852,37.106-35.731,58.636c-6.138,17.682-3.573,36.464-3.298,54.697c0.092,12.277-0.916,24.646,0,36.831
		c2.016,10.17,4.489,20.156,5.864,30.418c0.916,2.84-0.092,5.589-0.825,8.246c2.016,5.68,2.657,11.636,2.749,17.682
		c1.374,7.604,2.474,15.3,4.673,22.722c1.558,4.673-2.016,8.887-3.756,13.01c-6.047,0.55-12.002-1.558-16.217-6.047
		c-0.641-5.131,4.856-7.33,8.062-10.261c-1.557-3.481-3.023-7.238-5.864-10.078c-5.131-5.406-8.429-12.552-9.07-19.973
		c2.932-0.733,6.688-0.55,9.254-2.749c1.099-2.107,0.916-4.489,1.374-6.78c-0.916,0.183-1.741,0.366-2.565,0.641
		c0.825-3.298,1.924-6.597,2.107-9.986c-0.458-3.756-2.474-7.055-3.94-10.445c-1.741-4.031-2.29-8.521-4.123-12.552
		c-0.825-2.107-3.482-1.466-5.314-1.741c-2.016-3.482-3.482-7.421-6.597-10.078c-5.497-4.856-12.735-8.062-16.4-14.751
		c-5.772-9.07-6.871-20.523-4.123-30.784c2.932-12.002,3.573-24.554,7.696-36.19c11.91-23.913,26.478-46.268,41.961-67.89
		c4.489-6.138,8.887-12.552,15.209-16.949c12.369-9.253,25.837-17.224,40.312-22.813C854.085,32.928,863.247,32.47,872.134,31.737
		L872.134,31.737z"/>
	<path fill="#080907" stroke="#080907" stroke-width="0.0938" stroke-miterlimit="10" d="M984.459,109.613
		c3.756,3.482,4.398,8.704,6.23,13.285c1.558,4.306,3.39,9.345,0.458,13.56c-0.825-2.474,0.092-5.497-1.557-7.696
		C985.65,123.264,984.551,116.21,984.459,109.613L984.459,109.613z"/>
	<path fill="#0B0D0A" stroke="#0B0D0A" stroke-width="0.0938" stroke-miterlimit="10" d="M992.705,141.405
		c0.55-1.924,1.191-3.848,1.832-5.772c0.183,1.924,0.275,3.94,0.366,5.864C994.354,141.496,993.255,141.405,992.705,141.405
		L992.705,141.405z"/>
	<path fill="#040404" stroke="#040404" stroke-width="0.0938" stroke-miterlimit="10" d="M989.956,155.789
		c4.031,2.107,8.887,3.848,10.353,8.612c4.856,10.994,0.367,24.187,7.696,34.449c4.398-0.825,5.864-5.222,8.979-7.696
		c6.871,1.008,11.544,6.413,17.499,9.345c-0.55,4.947-1.557,9.895-3.023,14.659c-0.458,5.772-2.199,11.361-5.772,15.942
		c0-6.688,0.092-13.376-0.275-19.973c-3.665,0.641-7.33,1.832-11.086,1.558c-4.214-1.008-5.039-6.047-6.871-9.254
		c-3.482,4.856-4.306,10.903-7.513,15.85c-1.191-5.68-1.466-11.452-2.657-17.224C994.537,186.665,987.208,171.822,989.956,155.789
		L989.956,155.789z"/>
	<path fill="#030403" stroke="#030403" stroke-width="0.0938" stroke-miterlimit="10" d="M824.309,160.553
		c4.123-1.741,8.521-0.458,12.643,0.55c5.955,1.558,10.261,6.597,16.217,8.246c4.306,1.374,9.437,2.474,11.727,6.78
		c7.879,9.254,3.115,23.638-4.947,31.059c-5.864,6.505-14.293,8.795-21.989,12.094c0.641-1.191,1.283-2.382,1.924-3.482
		c-7.33-2.565-15.3-2.565-22.355-6.047c-3.848-1.649-8.154-0.275-12.094,0.275c3.848-6.963,9.437-12.827,15.667-17.682
		c4.856-2.84,10.719-3.115,15.667-5.772c-1.557-5.589,4.673-6.963,7.513-10.445c-1.008-2.474-2.84-5.222-5.772-5.68
		c-7.146-1.008-14.293,0.275-21.347,1.558c-3.94,1.191-7.055,4.031-10.445,6.23c1.924-2.29,4.398-4.398,5.131-7.513
		C815.514,166.783,818.904,162.111,824.309,160.553L824.309,160.553z"/>
	<path fill="#040403" stroke="#040403" stroke-width="0.0938" stroke-miterlimit="10" d="M913.912,180.801
		c4.581-3.573,9.712-6.505,15.667-6.688c-0.55,1.283-1.099,2.565-1.649,3.848c7.788,2.657,15.942,4.673,22.538,9.986
		c-3.023,2.107-5.589,5.955-9.712,5.406c-4.581-0.366-9.162-1.283-13.743-0.825c-0.733-2.016-1.374-4.031-2.107-6.139
		c-1.466,1.191-2.84,2.565-4.489,3.482c-2.016-0.183-3.94-1.008-5.772-1.649C914.554,185.748,914.371,183.275,913.912,180.801
		L913.912,180.801z"/>
	<path fill="#0A0D08" stroke="#0A0D08" stroke-width="0.0938" stroke-miterlimit="10" d="M805.802,202.423
		c0.916-8.337,8.887-13.102,15.85-16.308C814.872,190.055,810.841,196.651,805.802,202.423L805.802,202.423z"/>
	<path stroke="#000000" stroke-width="0.0938" stroke-miterlimit="10" d="M850.512,251.897c0.825-4.856,1.649-9.712,4.214-14.018
		c0.275,3.665,0.366,7.238,1.008,10.811c1.374,4.214,6.413,5.039,9.986,6.23c0.275-3.023-0.092-6.413,1.466-9.254
		c3.023-3.94,7.788-5.772,12.369-7.238c0.825,2.382,1.924,4.764,2.016,7.33c-2.199,3.94-6.413,6.047-9.62,9.07
		c1.008,0.183,2.016,0.458,3.115,0.641c-3.298,6.23,0.916,12.46,2.199,18.599c1.466-0.55,3.023-1.099,4.489-1.558
		c0,4.123,0.092,8.246,0.367,12.369c2.382-3.023,4.673-6.322,4.673-10.445c0.55-2.474,0.825-7.604,4.581-7.696
		c2.84,0.641,5.314,2.474,7.879,3.848c-1.283,5.131-2.29,10.261-2.657,15.484c5.222-1.924,6.505-7.604,8.704-12.094
		c1.283,1.191,2.657,2.474,3.94,3.665c-0.458,2.29-0.916,4.489-1.283,6.78c1.283-0.55,2.565-1.099,3.94-1.558
		c-0.55,2.016-0.733,4.214-1.649,6.138c-5.68,5.68-14.018,6.688-21.256,9.254c-7.971,5.131-17.224,7.146-26.295,9.162
		c-4.581,2.199-6.322,7.696-9.345,11.544c1.008-0.458,2.016-0.916,3.023-1.374c-0.55,2.657-1.008,5.405-1.283,8.062
		c1.558-0.366,3.207-0.825,4.856-1.283c0.092,0.916,0.275,1.741,0.458,2.657c1.557-0.458,3.115-0.825,4.673-1.191
		c-1.283,2.107-2.657,4.214-4.123,6.322c4.673-1.191,9.437,0.275,13.01,3.39c1.099-0.825,2.199-1.649,3.298-2.382
		c0.092,1.283,0.183,2.565,0.275,3.94c3.207-2.107,6.047-4.673,8.246-7.788c1.283-1.832,3.115-3.298,5.314-3.665
		c4.764,4.489-2.199,9.162-5.131,12.002c1.924-0.367,3.94-0.733,5.955-1.008c-0.092,1.374-0.092,2.749-0.092,4.123
		c1.466,0.641,2.932,1.374,4.489,2.107c-0.641,1.466-1.283,3.023-1.924,4.489c2.29-0.55,4.673-1.466,7.055-1.466
		c2.932,0.733,5.497,2.474,8.521,2.657c3.665,0.55,7.238-2.29,10.903-0.825c3.023,1.008,6.138,1.558,8.887,3.023
		c1.649,4.856,2.565,9.987,4.673,14.751c2.382-5.131,2.749-10.903,3.482-16.491c1.741,2.382,3.39,4.856,4.764,7.421
		c0.641-1.283,1.374-2.657,2.016-3.94c0.825,2.29,1.466,4.581,1.924,6.963c0.458-0.183,0.916-0.366,1.374-0.55
		c-2.382,5.222-4.398,10.719-6.688,16.033c4.398-1.283,8.795-2.29,13.102-3.848c3.207-2.199,5.864-6.688,10.353-5.131
		c-1.008,2.932-2.016,5.955-2.932,8.887c0.825-0.092,1.741-0.183,2.657-0.275c-1.374,2.749-2.749,5.497-3.665,8.429
		c6.322-6.505,6.505-18.324,15.942-21.714c-0.55,2.474-1.191,5.039-1.557,7.604c4.123-2.382,7.513-5.864,9.162-10.445
		c-1.832,1.558-3.573,3.207-5.314,4.764c0.733-3.207,1.466-6.413,2.199-9.62c2.199,1.832,4.581,3.573,5.955,6.138
		c0.641,2.29-1.374,4.489-1.283,6.597c-0.641-1.099-1.374-2.199-2.016-3.298c-0.733,1.741-1.557,3.482-2.29,5.222
		c4.489,1.924,7.055-2.474,9.62-5.314c-1.466,3.115-3.023,6.138-4.581,9.162c2.749,0.825,5.589,1.558,8.521,2.107
		c-1.374,3.115-2.84,6.138-4.581,8.979c3.665,5.131,5.039,12.002,2.382,17.774c-2.474,3.298-6.78,4.581-9.07,8.062
		c-3.115,4.306-7.33,7.971-8.612,13.376c-1.466,4.031-0.916,8.704-3.207,12.552c-5.406,5.864-11.544,11.269-19.057,14.201
		c0.366-1.283,0.733-2.474,1.099-3.665c-5.772,2.016-12.002,3.298-16.766,7.421c0.825-2.29,1.466-4.673,2.016-7.055
		c-3.207,2.199-6.505,4.215-9.987,5.772c1.191-2.932,2.565-5.864,3.756-8.795c-2.291,1.924-4.489,3.94-6.688,5.955
		c-1.099-0.916-2.199-3.573-3.756-1.924c-10.261,8.062-23.546,10.445-34.174,17.774c0.275-0.825,0.641-1.741,0.916-2.565
		c-5.864,0.458-11.727-0.458-17.591,0.092c-2.382,1.374-3.573,4.673-2.474,7.238c3.573,9.162,8.154,17.957,13.193,26.386
		c-3.298,1.283-6.505,2.474-9.803,3.665c4.123,4.489,9.345,7.421,14.109,11.086c5.772-1.008,11.361,1.099,17.133,0.55
		c9.254-1.191,18.874,3.665,27.669-1.191c6.688-3.665,12.002-9.345,18.507-13.376c-6.871,0.367-13.743,0.641-20.523,0
		c-11.177-1.191-22.905,2.657-33.624-1.741c1.924-2.749,3.94-5.497,7.055-6.963c13.285-6.138,28.585-5.222,41.687-11.636
		c4.398-2.29,9.528-1.099,14.201-2.29c7.055-4.306,12.918-10.17,18.507-16.308c4.947-5.131,12.185-7.788,16.217-13.834
		c4.398-5.222,6.322-11.911,8.795-18.049c3.94-9.162,1.649-19.332-0.458-28.585c5.497-2.382,11.269-3.756,17.224-4.673
		c-0.825,3.023-1.649,6.138-2.474,9.162c5.772,1.466,11.086,4.123,16.858,5.589c-0.458,4.031-0.825,8.154-1.374,12.185
		c-0.824,5.772-3.848,10.811-5.864,16.125c1.191-0.825,2.382-1.649,3.665-2.474c-1.099,2.474-2.199,4.947-3.298,7.421
		c2.84-0.458,5.68-0.458,8.429-0.55c-3.482,5.131-8.704,8.612-13.193,12.827c-6.322,5.589-12.369,11.361-18.69,17.041
		c-4.764,4.673-5.222,13.285-12.002,15.575c-5.039,2.199-8.337,6.963-13.651,8.612c-1.649,4.673-3.207,9.345-4.673,14.018
		c-11.819,6.322-21.622,15.667-33.258,22.355c-6.138,2.382-12.277,5.131-17.224,9.803c-5.131,5.405-11.452,9.62-15.484,16.033
		c11.636-5.68,19.698-17.041,32.708-20.248c-2.657,3.756-4.031,8.246-6.871,11.911c-4.123,2.29-9.253,2.382-13.102,5.314
		c0.916,0.916,1.924,1.741,2.84,2.657c3.115-0.092,6.23,0.275,9.253,1.374c-5.314,3.023-10.811,5.772-15.758,9.437h-2.565
		c1.191-0.733,3.756-1.466,3.115-3.298c-1.924-0.733-2.657,2.016-3.482,3.298H629.344c10.811-7.879,22.996-13.01,34.724-19.24
		c7.513-3.756,12.735-10.536,19.24-15.575c11.727-8.337,24.096-15.758,36.464-23.088c4.398-2.474,5.314-7.788,6.597-12.094
		c1.008-3.665,3.665-6.505,5.131-9.895c1.374-3.482,1.191-7.329,2.474-10.811c1.649-2.932,3.94-5.405,6.047-7.879
		c-1.466,3.848-3.39,7.513-5.039,11.269c3.94-3.298,7.146-7.33,10.903-10.811c-1.466-2.199-3.023-4.398-4.306-6.78
		c4.673-0.092,9.345,0.366,13.926-0.183c5.314-1.924,8.979-6.963,14.293-8.795c2.474-0.275,7.604-0.916,10.078-1.191
		c7.055-11.544,7.696-26.111,16.4-36.739c4.947-5.68,7.696-13.102,8.337-20.523c-1.558,0.641-3.115,1.283-4.673,2.016
		c4.489-5.68,3.115-13.01,4.673-19.606c-3.573,4.123-7.055,8.246-10.353,12.552c0.458-1.832,1.008-3.665,1.466-5.497
		c-0.916,0-1.924-0.092-2.932-0.092c0.641-7.238,9.253-10.994,7.879-18.782c-1.924,0.916-3.848,1.832-5.68,2.84
		c2.199-3.298,4.398-6.505,6.597-9.803c-1.008,0.092-2.107,0.183-3.115,0.275c2.016-2.29,3.94-4.581,5.955-6.871
		c-2.291,1.466-4.489,3.023-6.78,4.581c2.657-4.489,5.222-9.07,7.604-13.651c-3.023-0.55-5.955-1.008-8.979-1.466
		c1.191-1.558,2.382-3.115,3.573-4.673c-2.382-4.764,1.374-8.887,4.306-12.369c1.283,0.916,2.474,1.924,3.756,2.84
		c6.138-5.864,12.369-11.819,17.133-18.874c-1.374,0.458-2.84,1.008-4.306,1.466c2.932-3.115,6.597-5.864,8.154-9.986
		c2.657-5.222,3.023-12.643,8.795-15.667c5.68-3.023,10.811-6.871,15.484-11.269c4.123-4.031,9.437-6.138,13.743-9.895
		C861.232,259.227,855.918,255.47,850.512,251.897 M982.535,405.909c1.832-1.099,2.932-2.657,3.482-4.673
		C984.734,402.702,983.543,404.26,982.535,405.909L982.535,405.909z"/>
	<path fill="#080808" stroke="#080808" stroke-width="0.0938" stroke-miterlimit="10" d="M900.903,240.72
		c0.55-0.275,1.741-0.916,2.29-1.191c1.099,0.458,2.199,0.825,3.39,1.283c-0.641,1.099-1.191,2.29-2.016,3.298
		C902.918,243.56,902.094,241.911,900.903,240.72L900.903,240.72z"/>
	<path fill="#0B0E09" stroke="#0B0E09" stroke-width="0.0938" stroke-miterlimit="10" d="M1017.9,259.044
		c1.741-2.749,4.123-5.131,8.062-3.848C1023.947,257.761,1021.015,258.86,1017.9,259.044L1017.9,259.044z"/>
	<path fill="#0A0C08" stroke="#0A0C08" stroke-width="0.0938" stroke-miterlimit="10" d="M1005.623,260.143
		c1.557-0.092,3.207-0.183,4.856-0.275c-0.367,4.398-1.008,8.795-1.924,13.102C1006.356,269.03,1004.89,264.632,1005.623,260.143
		L1005.623,260.143z"/>
	<path fill="#11170E" stroke="#11170E" stroke-width="0.0938" stroke-miterlimit="10" d="M827.058,289.186
		c2.657-3.023,5.314-6.78,9.62-7.238C833.746,284.697,830.448,286.987,827.058,289.186L827.058,289.186z"/>
	<path fill="#040404" stroke="#040404" stroke-width="0.0938" stroke-miterlimit="10" d="M1005.165,281.032
		c1.649,3.023,1.924,6.413,2.199,9.803c1.649-0.641,3.207-1.283,4.856-1.924c-0.275,1.832-0.641,3.665-0.916,5.497
		c0.916-0.183,1.832-0.366,2.749-0.641c-2.107,4.764-3.023,10.628-8.154,13.102c-1.924-4.031-5.039-8.154-4.306-12.918
		C1002.233,289.461,1003.607,285.155,1005.165,281.032L1005.165,281.032z"/>
	<path fill="#020202" stroke="#020202" stroke-width="0.0938" stroke-miterlimit="10" d="M799.755,324.826
		c1.374,0.458,0.458,2.474-0.733,2.016C797.556,326.384,798.564,324.368,799.755,324.826L799.755,324.826z"/>
	<path fill="#0C0E0B" stroke="#0C0E0B" stroke-width="0.0938" stroke-miterlimit="10" d="M957.065,362.39
		c1.466-2.474,2.932-5.039,4.673-7.238c1.008,2.749,1.557,5.589,1.283,8.521c-1.008-0.916-1.924-1.832-2.749-2.932
		C959.172,361.29,958.073,361.84,957.065,362.39L957.065,362.39z"/>
	<path fill="#0A0D09" stroke="#0A0D09" stroke-width="0.0938" stroke-miterlimit="10" d="M947.17,367.429
		c1.008-2.016,2.107-4.031,3.665-5.68C949.827,363.764,948.728,365.78,947.17,367.429L947.17,367.429z"/>
	<path fill="#0B0D0A" stroke="#0B0D0A" stroke-width="0.0938" stroke-miterlimit="10" d="M979.512,417.545
		c2.474-0.366,0.092,3.94-1.466,2.932C977.313,419.377,978.412,418.003,979.512,417.545L979.512,417.545z"/>
	<path fill="#030303" stroke="#030303" stroke-width="0.0938" stroke-miterlimit="10" d="M1067.283,464.454
		c1.466-0.733,3.023-1.558,4.581-2.199c2.749,9.254,9.986,16.033,16.491,22.813c1.191-2.84,2.29-5.68,3.39-8.521
		c1.832,0.275,3.665,0.55,5.589,0.825c2.016-2.932,4.856-6.047,9.162-4.123c8.062,0.916,18.049,0.916,23.179,8.429
		c-4.856,3.023-9.895,5.864-14.567,9.162c-2.107,1.374-4.214,3.298-4.214,5.955c-0.55,5.68-0.733,11.361-2.107,16.858
		c-0.916,3.39,1.557,6.23,3.298,8.887c1.924-3.94,3.298-8.521,7.146-11.086c4.214-2.932,7.513-7.238,12.094-9.712
		c5.222-0.641,10.261-2.107,14.659-4.947c-1.191-3.482-2.474-6.963-3.573-10.536c4.031,2.565,8.062,5.314,11.819,8.337v72.013
		H991.514c0.366-5.497,0.55-10.903,0.733-16.4c3.573-2.565,6.78-6.047,11.086-7.238c7.788-2.382,13.193-8.795,20.065-12.735
		c9.528-5.772,15.758-15.484,20.706-25.195c4.123-9.345,6.78-19.423,9.162-29.318c0.092-4.947,5.131-6.597,8.521-8.979
		c1.557,17.316-2.016,35.273,3.482,52.04c1.283,0,2.565-0.092,3.848-0.092c5.955-10.811,5.314-23.546,4.673-35.457
		c2.199,0.458,4.306,1.008,6.413,1.466C1078.002,476.73,1071.864,470.958,1067.283,464.454L1067.283,464.454z"/>
	<path fill="#0A0C08" stroke="#0A0C08" stroke-width="0.0938" stroke-miterlimit="10" d="M732.415,467.66
		c1.191-1.466,2.474-2.932,3.756-4.306c0,0.825,0.183,2.474,0.275,3.298C735.072,467.019,733.789,467.294,732.415,467.66
		L732.415,467.66z"/>
	<path fill="#070707" stroke="#070707" stroke-width="0.0938" stroke-miterlimit="10" d="M1020.099,493.405
		c5.497-5.131,11.819-9.254,18.324-12.918C1034.3,486.809,1027.612,491.939,1020.099,493.405L1020.099,493.405z"/>
	<path fill="#040404" stroke="#040404" stroke-width="0.0938" stroke-miterlimit="10" d="M994.537,509.622
		c1.741,0.092,5.222,0.183,6.963,0.275c-2.016,3.39-4.856,6.322-8.704,7.696C993.346,514.844,993.896,512.279,994.537,509.622
		L994.537,509.622z"/>
	<path fill="#020302" stroke="#020302" stroke-width="0.0938" stroke-miterlimit="10" d="M956.332,527.213
		c9.62-6.23,18.873-13.56,30.417-15.85c-4.123,12.552-1.558,25.928-3.023,38.846c-0.55,5.497-0.092,10.903,0.367,16.4h-28.768
		c-7.421-1.374-14.842-2.474-22.172-3.756c5.497-9.712,10.353-19.973,16.766-29.226C951.385,530.877,953.675,528.77,956.332,527.213
		L956.332,527.213z"/>
	<path fill="#D9D9D9" stroke="#D9D9D9" stroke-width="0.0938" stroke-miterlimit="10" d="M913.179,566.609
		c0.825-1.283,1.558-4.031,3.482-3.298c0.641,1.832-1.924,2.565-3.115,3.298H913.179L913.179,566.609z"/>
</g>
<g>
	<path fill="#020202" stroke="#020202" stroke-width="0.0938" stroke-miterlimit="10" d="M1392.728,74.672
		c5.477-6.198,11.675-12.107,19.602-14.702C1406.565,65.591,1400.079,71.068,1392.728,74.672L1392.728,74.672z"/>
	<path fill="#020202" stroke="#020202" stroke-width="0.0938" stroke-miterlimit="10" d="M1542.339,77.122
		c2.018-1.153,4.612,2.018,3.171,3.747C1543.492,82.022,1540.898,78.852,1542.339,77.122L1542.339,77.122z"/>
	<path fill="#020202" stroke="#020202" stroke-width="0.0938" stroke-miterlimit="10" d="M1552.429,88.653
		c2.018-1.009,4.18,2.45,2.739,4.18C1553.149,93.841,1550.987,90.238,1552.429,88.653L1552.429,88.653z"/>
	<path fill="#020202" stroke="#020202" stroke-width="0.0938" stroke-miterlimit="10" d="M1556.609,95.571
		c1.585-1.297,3.747,1.585,2.018,2.883C1557.041,99.751,1554.879,96.868,1556.609,95.571L1556.609,95.571z"/>
	<path fill="#020202" stroke="#020202" stroke-width="0.0938" stroke-miterlimit="10" d="M1411.898,196.753
		c8.216-3.171,17.008,0.576,22.773,6.486c7.927,7.207,20.467,14.846,16.864,27.097c-3.315-0.865-6.63-1.874-9.945-2.739
		c1.009,4.036,3.892,7.063,6.486,10.089c-1.441,1.441-2.306,4.18-4.756,4.18c-11.243,0.577-22.197,2.883-33.295,4.036
		c9.513-6.198,21.044-7.639,31.565-11.243c-2.45-0.721-7.207-1.874-9.657-2.594c-1.153-3.027-2.162-6.054-3.315-9.225
		c-2.45,3.459-4.901,7.063-7.063,10.522c-3.747-1.441-10.234,1.874-12.684-2.594c-2.162-3.603-2.306-8.071-3.315-11.963
		c-6.63,6.774-14.125,12.54-22.773,16.431c-2.018-9.657,6.918-16.431,13.26-22.341c8.071-7.783,20.179-3.315,29.836-3.171
		C1421.411,205.257,1416.51,201.221,1411.898,196.753L1411.898,196.753z"/>
	<path fill="#020202" stroke="#020202" stroke-width="0.0938" stroke-miterlimit="10" d="M1492.901,211.887
		c8.072-3.748,14.269-12.251,23.926-11.243c1.73,0.577,5.91,0.144,4.468,3.171c-5.477,3.459-11.098,6.342-16.575,9.801
		c11.819,1.297,24.647-0.432,35.745,5.045c6.054,2.883,8.936,9.369,11.531,15.134c-9.224-0.865-17.584-5.333-23.638-12.251
		c0.288,4.901-1.585,9.513-4.036,13.693c-4.612-0.577-9.08-1.297-13.693-2.018c-1.441-3.603-2.594-7.351-4.18-11.098
		c-4.036,2.883-5.909,7.207-4.756,12.107c-5.621-2.162-10.81-5.189-16.431-6.774C1484.83,221.256,1486.703,214.338,1492.901,211.887
		L1492.901,211.887z"/>
	<path fill="#020202" stroke="#020202" stroke-width="0.0938" stroke-miterlimit="10" d="M1331.759,220.391
		c1.297-0.432,2.45-0.865,3.603-1.441c1.441,1.586,2.883,3.171,4.18,4.901c-3.459,4.036-4.18,9.369-5.765,14.269
		C1333.633,232.21,1332.624,226.301,1331.759,220.391L1331.759,220.391z"/>
	<path fill="#020202" stroke="#020202" stroke-width="0.0938" stroke-miterlimit="10" d="M1590.624,226.157
		c2.45-1.874,4.901-3.603,7.495-5.189c0.721,9.369,0,18.737-0.865,27.962C1594.372,241.579,1591.777,234.084,1590.624,226.157
		L1590.624,226.157z"/>
	<path fill="#020202" stroke="#020202" stroke-width="0.0938" stroke-miterlimit="10" d="M1346.028,237.976
		c2.162-0.721,3.315,3.027,0.865,3.459C1344.587,242.156,1343.578,238.408,1346.028,237.976L1346.028,237.976z"/>
	<path fill="#020202" stroke="#020202" stroke-width="0.0938" stroke-miterlimit="10" d="M1506.738,241.002
		c1.874-1.153,5.765,0.721,5.189,3.171C1510.053,245.326,1506.162,243.453,1506.738,241.002L1506.738,241.002z"/>
	<path fill="#020202" stroke="#020202" stroke-width="0.0938" stroke-miterlimit="10" d="M1581.255,242.444
		c2.018-0.144,4.036-0.288,6.054-0.432c-2.162,2.594-4.468,5.189-6.486,7.783C1580.823,247.344,1580.967,244.894,1581.255,242.444
		L1581.255,242.444z"/>
	<path fill="#020202" stroke="#020202" stroke-width="0.0938" stroke-miterlimit="10" d="M1582.697,251.524
		c2.018-0.865,5.045,2.162,4.18,4.18C1584.715,256.857,1581.544,253.686,1582.697,251.524L1582.697,251.524z"/>
	<path fill="#020202" stroke="#020202" stroke-width="0.0938" stroke-miterlimit="10" d="M1347.614,268.244
		c1.874-1.585,4.18,1.73,2.306,3.171C1348.046,272.856,1345.74,269.685,1347.614,268.244L1347.614,268.244z"/>
	<path fill="#020202" stroke="#020202" stroke-width="0.0938" stroke-miterlimit="10" d="M1439.283,300.674
		c3.315-1.441,6.918-5.333,10.666-3.027c1.874,0.865,3.747,2.018,5.621,3.171c-2.594,2.45-5.333,4.756-7.927,7.207
		c4.612,1.297,10.234,2.162,12.972,6.486c1.153,5.333,0.865,11.098,0,16.575c-5.333,3.892-12.828,0.288-18.881,2.306
		c-7.927,2.594-16.864,2.739-23.35,8.504c18.305-1.009,36.61,2.306,54.771,4.036c12.684-0.721,24.791-5.045,37.043-7.927
		c-3.027-4.901-6.198-9.801-8.36-15.278c7.495,3.171,9.08,12.828,17.296,15.422c-17.152,6.918-35.457,9.369-53.474,12.396
		c-17.584,0.865-35.601-5.621-52.753,0.721c-0.144-0.865-0.432-2.594-0.577-3.459c0.865-0.144,2.306-0.721,3.171-1.009
		c-2.45-3.171-4.901-6.342-7.207-9.657c2.739-3.747,5.333-7.927,9.08-10.81c3.892-2.594,6.342,0.432,8.792,2.306
		c6.342-6.918,13.116-13.404,20.755-18.882c-2.162,0.288-4.324,0.721-6.486,1.009c1.297-1.153,2.594-2.162,4.036-3.315
		C1442.887,305.142,1441.013,302.836,1439.283,300.674L1439.283,300.674z"/>
	<path fill="#020202" stroke="#020202" stroke-width="0.0938" stroke-miterlimit="10" d="M1475.029,303.268
		c4.036-4.18,10.089-9.225,15.711-4.901l1.153,7.351C1486.127,306.584,1480.506,305.142,1475.029,303.268L1475.029,303.268z"/>
	<path fill="#020202" stroke="#020202" stroke-width="0.0938" stroke-miterlimit="10" d="M1461.192,307.016
		c2.739-0.577,5.477-1.009,8.216-1.153c-1.585,3.603-1.73,9.369-8.36,7.063C1461.048,311.052,1461.048,309.034,1461.192,307.016
		L1461.192,307.016z"/>
	<path fill="#020202" stroke="#020202" stroke-width="0.0938" stroke-miterlimit="10" d="M1473.875,311.34
		c2.883-0.721,5.91-2.45,9.08-1.874c5.333,1.585,8.216,6.774,10.81,11.387c-2.739-1.297-5.621-2.594-8.504-3.892
		c2.594,4.324,5.189,8.648,7.639,12.972c-2.45-0.865-4.756-1.73-7.207-2.594c-2.739,1.585-5.189,3.459-7.927,5.189
		C1476.182,325.609,1474.596,318.547,1473.875,311.34L1473.875,311.34z"/>
	<path fill="#020202" stroke="#020202" stroke-width="0.0938" stroke-miterlimit="10" d="M1466.092,325.609
		c2.162-0.721,4.468-1.297,6.63-2.018c-0.432,2.739-1.153,5.477-1.874,8.072C1469.119,329.933,1467.534,327.771,1466.092,325.609
		L1466.092,325.609z"/>
	<path fill="#020202" stroke="#020202" stroke-width="0.0938" stroke-miterlimit="10" d="M1510.053,326.906
		c3.315-0.865,6.63-1.73,9.945-2.45c1.153,1.009,2.45,2.018,3.748,3.027c-1.73-0.144-3.603-0.288-5.333-0.288
		c1.874,1.441,3.748,3.027,5.621,4.468c-0.432,1.441-0.865,2.883-1.297,4.18C1518.99,332.384,1515.242,328.348,1510.053,326.906
		L1510.053,326.906z"/>
	<path fill="#020202" stroke="#020202" stroke-width="0.0938" stroke-miterlimit="10" d="M1495.207,327.483
		c2.018-1.009,4.18,2.594,2.739,4.18C1495.928,332.672,1493.766,329.068,1495.207,327.483L1495.207,327.483z"/>
	<path fill="#020202" stroke="#020202" stroke-width="0.0938" stroke-miterlimit="10" d="M1456.579,362.508
		c8.36,0.288,16.864,0.288,24.935,2.594c-3.748,4.756-7.351,9.513-10.954,14.269c-6.054-1.441-13.116-3.459-16.287-9.225
		C1454.706,367.408,1455.859,364.958,1456.579,362.508L1456.579,362.508z"/>
	<path fill="#020202" stroke="#020202" stroke-width="0.0938" stroke-miterlimit="10" d="M1357.559,380.669
		c1.297-6.342,4.18-12.251,8.504-17.008c7.495,9.801,2.162,23.494,6.486,34.592c3.027,13.693,14.846,22.773,18.449,36.178
		c3.315,9.657,14.702,12.251,20.611,19.602c8.216,10.954,21.476,17.008,34.592,19.314c10.666,0.577,21.188-1.009,31.709-2.162
		c-0.144,1.009-0.288,2.018-0.432,3.171c7.927-0.577,15.278,2.883,21.188,8.216c-3.459,3.459-6.918,6.918-10.522,10.233
		c0.432,4.324,1.586,9.801-2.739,12.54c-5.189,3.459-11.387,5.045-17.44,6.198c-5.189-2.306-10.666-4.18-15.855-6.486
		c-3.459-2.739-4.756-7.207-6.342-11.242c-5.477-4.612-12.107-8.072-19.314-8.792c-1.009,6.342-1.153,13.116,2.739,18.737
		c-3.459,2.018-7.062,3.459-10.954,4.324c-3.315-3.747-6.198-8.071-9.945-11.531c-3.459-1.73-7.351,0.577-10.81,1.441
		c3.892,6.918,6.054,14.702,7.351,22.485c-13.26-16.287-25.656-33.295-38.484-49.87c0.144,3.892,0.432,7.783,0.577,11.531
		c-7.783-10.378-10.234-23.638-14.269-35.601c-3.171-9.08-4.324-18.593-5.189-28.106c-1.441-8.648,3.747-16.575,4.756-24.935
		c-1.585,0.721-3.171,1.441-4.756,2.162C1349.344,389.605,1356.118,386.866,1357.559,380.669L1357.559,380.669z"/>
	<path fill="#020202" stroke="#020202" stroke-width="0.0938" stroke-miterlimit="10" d="M1552.717,371.3
		c6.63,3.747,14.269,6.054,20.467,10.666c6.774,9.369,4.612,22.485,11.675,31.854c-2.306-2.162-4.756-4.324-7.207-6.198
		c2.45,5.621,3.603,13.693,10.954,14.702c2.45,13.404,4.468,26.809,6.198,40.213c0.721,5.189-2.45,9.945-4.756,14.558
		c1.73-0.432,3.603-0.865,5.333-1.297c0.144,5.333,3.747,11.387,1.009,16.575c-3.171,7.063-8.936,11.963-14.846,16.431
		c-0.144-1.009-0.432-3.027-0.577-4.036c3.027-2.306,6.774-4.18,8.504-7.783c-6.054-3.747-10.81,5.045-16.72,5.909
		c3.459-4.612,8.648-7.495,12.972-11.098c2.018-3.892,0.288-8.36,0.288-12.54c-3.459,2.306-6.774,4.756-10.089,7.063
		c1.729,0,3.603,0,5.333,0c-12.54,7.639-22.917,18.017-34.448,26.953c0-8.072,0.432-16.575-1.73-24.503
		c-3.315-5.621-7.495-10.954-12.684-15.134c-2.306,2.306-4.324,5.189-7.207,6.918c-4.612,1.297-9.369,1.73-13.837,3.171
		c2.594-3.603,5.477-6.918,7.927-10.522c-2.162,0.144-4.324,0.432-6.342,0.577c4.18-4.324,8.792-8.504,11.242-14.125
		c3.027-8.792,9.08-16.143,11.243-25.224c0.865-6.342,5.189-11.242,7.639-16.864C1546.952,402.289,1551.131,387.01,1552.717,371.3
		L1552.717,371.3z"/>
	<path fill="#020202" stroke="#020202" stroke-width="0.0938" stroke-miterlimit="10" d="M1398.926,392.055
		c5.621-2.739,12.251-4.036,15.567-9.801c1.874,1.153,3.459,2.45,4.612,4.18c-4.324,1.585-8.072,4.18-10.81,7.927
		c1.153,0,3.459,0,4.612,0c0.721-1.441,1.297-2.883,2.018-4.18c7.783,2.162,12.54,8.936,14.269,16.575
		c5.189,1.153,10.81,1.441,14.702-2.739c4.324,2.45,8.216,5.621,11.531,9.369c-0.721-2.883-1.586-5.91-2.306-8.792
		c3.747,2.018,7.351,4.612,10.954,6.918c1.441-0.288,2.883-0.721,4.324-1.009c-2.45-3.747-5.333-7.063-7.783-10.81
		c4.756,0.865,11.819-1.441,14.413,4.036c1.874,2.883,3.459,6.198,4.756,9.513c1.297-1.585,2.45-3.171,3.892-4.756
		c1.009,0.432,2.018,0.865,3.027,1.441c2.018-2.883,5.333-6.054,9.08-4.756c4.324,1.153,9.513,1.73,12.972-1.586
		c4.324-3.892,7.783-8.792,13.693-10.522c2.162,7.495-5.189,12.54-10.089,16.864c-5.477,4.612-13.549,7.351-16.864,14.269
		c-0.865-0.288-1.585-0.721-2.45-1.009c-6.918,6.486-13.837,13.26-22.917,16.575c-5.91-1.441-11.963-3.459-16.287-7.783
		c-4.468,0.577-8.936,1.153-13.26,1.73c0.865-3.027,1.73-6.198,2.883-9.08c-4.468,0.721-8.648,1.73-12.972,2.594
		c-0.144-3.027-0.144-5.909-0.721-8.936c-4.036-3.459-9.513-5.045-14.413-7.063c0.144-2.883,0.144-5.621,0.144-8.36
		c-3.459-0.721-6.774-1.585-10.089-2.594c0-3.315,0.577-6.486,0.865-9.801C1404.403,393.785,1399.214,399.118,1398.926,392.055
		L1398.926,392.055z"/>
	<path fill="#020202" stroke="#020202" stroke-width="0.0938" stroke-miterlimit="10" d="M1526.052,392.199
		c2.162,0,1.73,3.603-0.288,3.459C1523.602,395.659,1524.034,392.055,1526.052,392.199L1526.052,392.199z"/>
	<path fill="#020202" stroke="#020202" stroke-width="0.0938" stroke-miterlimit="10" d="M1456.291,400.847
		c1.874-1.73,5.333,1.153,3.892,3.315C1458.309,405.748,1454.85,402.865,1456.291,400.847L1456.291,400.847z"/>
	<path fill="#020202" stroke="#020202" stroke-width="0.0938" stroke-miterlimit="10" d="M1447.499,435.728
		c1.586-0.288,3.315-0.577,5.045-0.865c-0.144,0.865-0.721,2.739-1.009,3.747c-1.73,0.288-3.315,0.577-5.045,0.865
		C1446.634,438.61,1447.211,436.737,1447.499,435.728L1447.499,435.728z"/>
	<path fill="#020202" stroke="#020202" stroke-width="0.0938" stroke-miterlimit="10" d="M1433.374,455.186
		c1.153,0,3.315,0.144,4.468,0.144c0,2.018,0,4.036,0,6.054C1436.256,459.366,1434.815,457.204,1433.374,455.186L1433.374,455.186z"
		/>
	<path fill="#020202" stroke="#020202" stroke-width="0.0938" stroke-miterlimit="10" d="M1443.175,462.104
		c3.603,0.865,7.063,2.306,9.945,4.756C1449.661,465.564,1446.346,464.122,1443.175,462.104L1443.175,462.104z"/>
	<path fill="#020202" stroke="#020202" stroke-width="0.0938" stroke-miterlimit="10" d="M1453.12,466.861
		c5.909,0.144,11.819,0.577,17.584,1.874C1464.795,471.329,1458.021,471.473,1453.12,466.861L1453.12,466.861z"/>
	<path fill="#020202" stroke="#020202" stroke-width="0.0938" stroke-miterlimit="10" d="M1511.783,486.895
		c2.306,0.144,4.468,0.288,6.63,0.432c-2.883,1.585-5.765,3.171-8.936,4.036C1510.197,489.778,1511.062,488.337,1511.783,486.895
		L1511.783,486.895z"/>
	<path fill="#020202" stroke="#020202" stroke-width="0.0938" stroke-miterlimit="10" d="M1513.368,492.084
		c4.036-0.288,0.432,6.198-2.306,4.324C1510.197,494.679,1511.927,492.661,1513.368,492.084L1513.368,492.084z"/>
	<path fill="#020202" stroke="#020202" stroke-width="0.0938" stroke-miterlimit="10" d="M1324.408,500.876
		c6.918,10.954,16.431,20.179,23.35,31.133C1336.083,525.235,1327.579,513.849,1324.408,500.876L1324.408,500.876z"/>
</g>
<g>
	<path fill="#010201" stroke="#010201" stroke-width="0.0938" stroke-miterlimit="10" d="M2067.918,33.615c1.609,0,3.124,0,4.733,0
		c0,0.473,0,1.42,0,1.893c-1.609,0-3.124,0-4.733,0C2067.918,35.035,2067.918,34.088,2067.918,33.615L2067.918,33.615z"/>
	<path fill="#010201" stroke="#010201" stroke-width="0.0938" stroke-miterlimit="10" d="M2070.853,39.484
		c6.343-2.745,13.537-3.976,20.353-1.515c7.857,2.745,15.904,5.68,22.72,10.603c-9.656-0.568-18.081-7.857-27.643-6.532
		c3.313,2.84,7.573,4.071,11.36,6.248c-2.84-0.757-5.775-1.988-8.804-2.083c-4.355,1.515-6.153,6.248-5.396,10.603
		c6.059-1.041,11.644-3.787,17.419-5.491c8.899,4.26,15.715,12.307,25.181,15.431c7.1,3.692,12.969,9.372,18.839,14.673
		c2.272,5.68,9.845,7.384,10.697,13.727c0.947,4.923,0.095,9.751-0.568,14.579c0.094,5.491,3.976,10.035,7.384,13.916
		c-0.379,2.84-1.799,5.964-0.094,8.615c4.165,7.1,6.816,15.147,8.52,23.099c0.189,8.993,2.461,17.797,4.355,26.507
		c0.852,4.733-1.42,9.277-1.136,14.011c1.609,10.887,2.461,21.963,2.84,33.039c-1.231-0.663-2.461-1.325-3.692-1.988
		c-0.284,10.224-0.947,20.543-3.881,30.483c-3.597,0.095-8.236-1.325-10.886,1.988c-1.515,3.881-2.651,7.857-3.787,11.833
		c-0.284-0.284-0.947-0.852-1.231-1.136c0.095-3.976,0.284-7.952-0.095-11.928c-2.177,1.515-4.26,3.219-6.153,5.112
		c-2.272-17.797-4.449-35.689-3.881-53.581c-0.757-4.544-0.284-10.224-3.881-13.727c-8.425-7.1-12.212-17.892-19.312-26.033
		c-12.212-15.809-23.099-35.121-42.695-42.695c-5.775-3.597-12.685-1.704-18.744,0c-13.537,3.029-26.98-2.651-40.612-2.272
		c-9.845,0.663-19.596,3.313-28.211,8.236c-10.413,2.935-20.543,7.195-31.24,8.804c0.095-1.136,0.189-2.272,0.189-3.408
		c-3.787,4.449-9.088,8.331-9.94,14.484c1.515-1.041,3.029-2.083,4.544-3.124c0.568,0.284,1.704,1.041,2.272,1.42
		c-2.84,4.355-6.343,8.141-10.129,11.549c-5.964,7.857-10.697,17.229-10.697,27.264c-4.071,20.353,1.704,41.464-3.787,61.533
		c-1.136,3.313-2.935,7.384-6.627,8.425c-3.219-0.095-6.059-1.799-9.183-2.461c0.663-2.177,1.42-4.26,2.083-6.343
		c-3.313,0.284-6.721,0.568-10.035,0.852c-2.367-3.029-4.639-6.059-7.1-8.993c-0.284,3.881-0.473,7.668-0.852,11.455
		c-5.396-4.828-5.017-12.591-6.437-19.123c-1.231-5.964,1.988-11.739,3.597-17.324c-2.461,0.284-4.923,0.568-7.384,0.947
		c4.828-17.513,6.816-35.784,13.348-52.824c6.059-17.513,12.212-35.121,19.501-52.161c0.757-4.071-0.473-8.331,1.42-12.212
		c4.923-11.265,12.117-22.625,23.288-28.589c8.899-2.84,16.377-8.709,24.235-13.537c8.615-3.881,17.797-6.627,26.033-11.455
		c10.508-6.437,23.193-9.845,35.594-8.993c4.733,1.893,9.467,4.26,13.348,7.668c-0.947,0.284-2.84,0.852-3.692,1.231
		c0.663,1.041,1.325,2.177,1.988,3.219c1.893-2.272,3.881-4.449,6.059-6.437c1.041,5.301,0.663,10.697,0.379,15.999
		c5.207-6.248,13.443-8.331,21.016-10.319c1.42,2.272,2.272,4.828,3.408,7.289c4.071-2.84,6.816-7.289,8.425-11.928
		c-1.136-3.029-5.68-1.515-8.331-2.272c-0.568,1.609-0.947,3.219-1.704,4.733c-4.923,1.609-9.94,2.745-15.052,3.408
		c3.313-1.988,6.059-4.828,7.479-8.52c0.852-2.84,3.787-1.325,5.869-1.041C2071.421,41.472,2071.136,40.526,2070.853,39.484
		L2070.853,39.484z"/>
	<path fill="#010201" stroke="#010201" stroke-width="0.0938" stroke-miterlimit="10" d="M1978.174,52.454
		c1.515-0.663,2.367,1.893,0.757,2.272C1977.417,55.388,1976.565,52.927,1978.174,52.454L1978.174,52.454z"/>
	<path fill="#010201" stroke="#010201" stroke-width="0.0938" stroke-miterlimit="10" d="M1977.038,221.906
		c13.632-4.071,27.927-7.479,42.316-5.207c2.745,1.42,5.207,3.503,7.479,5.68c2.651,2.083,0.284,5.491-0.757,7.763
		c-1.704,3.313-5.585,7.1-9.561,5.396c-2.745-1.041-5.207-2.651-7.668-4.071c-2.651,4.165-5.112,10.413-10.886,10.224
		c-4.639-0.095-7.195-4.449-9.751-7.573c-6.153,2.745-12.401,5.301-18.744,7.763c0.379-1.988,0.095-4.355,1.799-5.869
		c6.721-7.857,18.081-7.573,27.169-10.792C1991.427,223.326,1983.76,224.841,1977.038,221.906L1977.038,221.906z"/>
	<path fill="#010201" stroke="#010201" stroke-width="0.0938" stroke-miterlimit="10" d="M2083.727,217.078
		c9.277-1.704,18.176,2.651,27.358,2.177c3.503-0.095,6.911-1.041,10.319-0.473c1.609,1.041,2.84,2.556,4.165,3.881
		c-8.425,0.947-16.756,1.893-24.992,3.787c5.68,2.651,12.78,3.124,16.756,8.615c1.799,3.124,2.367,6.816,3.597,10.129
		c-6.532-1.136-13.159-3.692-16.567-9.751c-0.379,0-1.042,0.095-1.42,0.189c-1.799,4.071-5.112,8.615-10.508,7.289
		c-5.017,0-7.952-4.639-10.129-8.52c-3.692,1.893-7.384,3.692-10.886,5.869c-1.988-1.515-4.166-2.651-6.438-3.692
		c1.325-3.503,2.272-7.195,4.544-10.224C2073.598,222.38,2078.521,219.256,2083.727,217.078L2083.727,217.078z"/>
	<path fill="#010201" stroke="#010201" stroke-width="0.0938" stroke-miterlimit="10" d="M1913.422,267.157
		c2.177-2.083,5.207-2.083,8.141-1.799C1921.469,269.713,1915.979,267.63,1913.422,267.157L1913.422,267.157z"/>
	<path fill="#010201" stroke="#010201" stroke-width="0.0938" stroke-miterlimit="10" d="M1928.001,273.31
		c1.609-0.473,2.461,2.272,0.757,2.651C1927.149,276.434,1926.297,273.689,1928.001,273.31L1928.001,273.31z"/>
	<path fill="#010201" stroke="#010201" stroke-width="0.0938" stroke-miterlimit="10" d="M2055.517,302.562
		c2.272-2.272,4.26-4.923,6.911-6.816c3.313,0.379,5.869,2.935,8.709,4.544c-0.473,1.325-0.947,2.556-1.42,3.881
		c-4.355-0.473-9.372-2.84-13.064,0.284c-3.029,2.651-6.248,5.301-8.141,8.899c-0.663,4.733,3.124,8.141,5.112,12.023
		c-1.231,0.284-2.367,0.568-3.597,0.852c-0.473-1.704-0.947-3.408-1.42-5.112c-2.083,1.609-3.787,4.26-6.627,4.449
		c-10.035,0.284-20.921,2.84-27.832,10.792c8.425,0.095,16.756-1.893,25.181-1.515c2.745,1.041,4.355,3.692,5.68,6.153
		c1.893-0.095,3.786-0.189,5.68-0.284c-1.042-1.515-2.083-3.029-3.029-4.544c5.964-0.663,11.739-2.556,17.797-2.083
		c6.153,0.473,12.401,1.041,18.555,1.325c-1.42-5.017-6.911-5.68-11.265-6.532c-0.473-3.597-1.515-7.005-3.787-9.845
		c-1.799,2.84-3.787,5.585-5.964,8.141c-3.313-4.449-5.774-9.94-4.449-15.431c2.84,0.852,5.68,0.757,8.425-0.189
		c4.639,4.923,10.413,9.183,12.875,15.809c5.207,0.189,10.508-0.663,15.62-2.083c2.84,3.219,7.668,6.059,7.005,11.076
		c-0.757,5.491,0.379,12.023-3.881,16.377c-0.757-3.787-0.947-7.573-1.704-11.265c-11.171,2.083-22.436,0.379-33.701,1.041
		c-13.821,0.757-27.737-0.379-41.558,1.041c-8.047,0.379-17.229-3.976-24.424,1.515c-0.852-3.976-1.041-7.952-1.325-11.928
		c3.881-1.988,7.1-5.585,11.833-4.923c10.981-2.177,20.164-10.129,26.506-19.028c4.544,0.189,9.088,0.379,13.727,0.757
		c-0.757-1.988-1.42-3.976-2.083-6.059C2048.795,302.183,2052.203,301.805,2055.517,302.562L2055.517,302.562z"/>
	<path fill="#010201" stroke="#010201" stroke-width="0.0938" stroke-miterlimit="10" d="M2026.359,303.509
		c2.272-3.029,5.017-7.005,9.277-6.721c2.935,0.852,4.544,3.597,6.343,5.869C2036.773,302.278,2031.471,302.562,2026.359,303.509
		L2026.359,303.509z"/>
	<path fill="#010201" stroke="#010201" stroke-width="0.0938" stroke-miterlimit="10" d="M2143.083,308.242
		c0.379-5.207,4.828-8.615,8.425-11.928c1.988,4.544,4.26,8.899,5.869,13.537c-3.029-2.556-5.869-5.207-9.183-7.289
		c-1.325,6.911-2.083,14.2-5.774,20.353C2142.515,317.993,2142.704,313.165,2143.083,308.242L2143.083,308.242z"/>
	<path fill="#010201" stroke="#010201" stroke-width="0.0938" stroke-miterlimit="10" d="M1919.386,298.775
		c4.355,0.379,8.804,0.663,13.159,0.947c1.515,13.348,3.597,26.601,7.952,39.287c3.408,6.627,7.479,12.875,10.981,19.501
		c1.988,4.071,7.763,2.083,10.129,5.68c2.745,3.597,4.828,7.668,7.384,11.36c1.799-1.325,3.692-2.651,5.585-3.881
		c4.449,3.503,10.129,4.355,15.241,6.437c6.153,1.609,8.709-7.573,14.957-5.869c4.355,3.503,8.047,7.763,12.023,11.739
		c0.568,3.692,1.041,7.384,1.609,11.171c4.733-2.556,9.94-1.136,14.863-0.095c0.947-2.367,1.988-4.639,3.124-6.911
		c3.313,0.663,6.627,0.947,10.035,1.136c-0.947,3.503-2.177,7.005-3.219,10.508c0.852,0.284,1.799,0.568,2.651,0.947
		c2.651-4.639,6.911-7.763,11.928-9.183c0.095,2.84,0,5.68-0.095,8.52c1.515-0.473,2.935-0.947,4.449-1.42
		c0.852-3.503,2.272-6.816,4.449-9.751c0.473,2.083,0.947,4.26,1.42,6.437c5.869-2.84,11.928-5.396,17.324-9.277
		c4.733-5.112,7.1-11.833,8.804-18.46c2.651,0.852,5.396,1.704,8.047,2.745c1.799-1.231,3.692-2.461,5.585-3.692
		c2.367,5.491,4.26,11.265,6.721,16.756c3.124-3.124,6.438-6.153,9.751-9.088c-0.284,1.893-0.757,3.787-1.609,5.491
		c-6.532,13.159-14.768,25.276-24.329,36.352c-2.745,2.935-4.26,6.627-4.828,10.697c-2.177-1.325-5.207-2.461-7.1,0.095
		c-8.993,10.508-20.543,20.164-34.553,22.341c-1.988,0.473-3.597-0.947-5.112-1.893c-4.071,0-7.479-1.799-10.603-4.165
		c-5.491-3.787-12.78-1.988-18.176-5.964c-0.379,1.136-0.757,2.272-1.041,3.408c-5.491-9.372-16.188-13.443-23.004-21.584
		c-3.976-4.923-10.224-7.384-13.727-12.685c-6.248-9.372-14.957-17.04-19.028-27.737c-4.828-6.721-8.047-14.863-14.673-20.259
		c-0.284,1.609-0.663,3.219-1.041,4.923c-3.219-2.177-6.343-4.449-9.656-6.532c0.663-4.355,1.325-8.899,0.568-13.253
		c-1.136,2.84-2.272,5.775-3.313,8.709c-1.799,0.852-3.597,1.704-5.491,2.461c-1.515-8.804,0.663-17.892-0.852-26.696
		C1922.51,318.75,1920.522,308.81,1919.386,298.775L1919.386,298.775z"/>
	<path fill="#010201" stroke="#010201" stroke-width="0.0938" stroke-miterlimit="10" d="M2054.949,316.951
		c1.23-0.947,2.745,1.136,1.515,2.083C2055.233,319.981,2053.718,317.898,2054.949,316.951L2054.949,316.951z"/>
	<path fill="#010201" stroke="#010201" stroke-width="0.0938" stroke-miterlimit="10" d="M2140.906,341.659
		c0.379-2.177,0.852-4.355,1.515-6.532C2142.042,337.399,2141.663,339.576,2140.906,341.659L2140.906,341.659z"/>
	<path fill="#010201" stroke="#010201" stroke-width="0.0938" stroke-miterlimit="10" d="M2096.98,360.876
		c2.651-1.42,5.301-2.745,8.141-3.503c-0.947,2.556-1.893,5.112-3.029,7.668c-0.663-0.095-2.177-0.095-2.84-0.189
		C2098.495,363.527,2097.738,362.202,2096.98,360.876L2096.98,360.876z"/>
	<path fill="#010201" stroke="#010201" stroke-width="0.0938" stroke-miterlimit="10" d="M2038.098,364.663
		c2.367-1.325,4.544-3.219,7.289-4.071c3.597-0.473,7.1,1.041,10.413,2.272c-0.284,1.988-0.568,3.976-0.852,6.059
		c-5.017-0.379-9.751,1.515-14.579,2.651C2039.613,369.302,2038.855,367.03,2038.098,364.663L2038.098,364.663z"/>
	<path fill="#010201" stroke="#010201" stroke-width="0.0938" stroke-miterlimit="10" d="M1996.729,364.284
		c0.663,0,2.083-0.095,2.84-0.189c-0.568,4.639-2.745,8.709-5.869,12.023c-0.852-1.799-1.609-3.692-2.367-5.585
		C1993.889,369.302,1995.877,367.219,1996.729,364.284L1996.729,364.284z"/>
	<path fill="#010201" stroke="#010201" stroke-width="0.0938" stroke-miterlimit="10" d="M2129.262,414.268
		c4.544,0.095,8.993,0.379,13.348,1.136c5.68,1.515,8.709,7.005,13.253,10.224c8.709,6.059,17.987,11.455,27.643,15.715
		c12.496,5.112,25.465,8.993,37.866,14.579c14.863,7.289,30.767,12.401,45.819,19.501c11.833,5.775,24.235,10.413,35.5,17.229
		c9.656,5.301,17.703,12.875,25.56,20.448v53.486h-567.998v-31.903c11.549-16.567,28.4-28.684,46.954-36.352
		c16.567-6.532,30.483-18.555,47.617-23.761c13.632-4.449,25.844-12.117,39.097-17.608c9.277-3.881,16.945-10.697,25.465-15.999
		c4.639-2.745,10.224-3.503,14.768-6.343c4.733-3.219,4.544-10.224,8.899-13.727c4.355-1.609,9.277,0.189,13.821,0.095
		c-3.597,5.585-10.697,10.887-7.1,18.365c1.988,13.064,11.076,23.193,19.975,32.187c5.585,6.437,11.549,13.348,19.974,15.999
		c19.312,8.52,40.896,7.1,61.533,8.709c7.1,0.473,13.727-1.893,20.164-4.639c17.04-6.343,37.677-6.816,50.173-21.868
		c10.035-10.603,21.111-21.963,23.383-37.109c1.42-2.651,0-4.923-1.799-6.532C2138.634,422.031,2133.522,418.717,2129.262,414.268
		L2129.262,414.268z"/>
	<path fill="#010201" stroke="#010201" stroke-width="0.0938" stroke-miterlimit="10" d="M2025.507,443.709
		c1.515-0.568,1.988,0,1.515,1.515C2025.507,445.697,2024.939,445.224,2025.507,443.709L2025.507,443.709z"/>
	<path fill="#010201" stroke="#010201" stroke-width="0.0938" stroke-miterlimit="10" d="M2035.921,449.484
		c2.651-0.852,5.301-0.379,7.289,1.42C2040.749,450.62,2038.287,450.241,2035.921,449.484L2035.921,449.484z"/>
</g>
</svg>
